SplineFontDB: 3.2
FontName: edge-icons-Regular
FullName: edge-icons
FamilyName: edge-icons
Weight: Book
Copyright: copyright missing
Version: 1.000;PS 001.000;hotconv 1.0.70;makeotf.lib2.5.58329
ItalicAngle: 0
UnderlinePosition: -150
UnderlineWidth: 50
Ascent: 960
Descent: 64
InvalidEm: 0
sfntRevision: 0x00010000
LayerCount: 2
Layer: 0 1 "Back" 1
Layer: 1 1 "Fore" 0
XUID: [1021 784 -274100997 16755]
StyleMap: 0x0040
FSType: 8
OS2Version: 3
OS2_WeightWidthSlopeOnly: 0
OS2_UseTypoMetrics: 0
CreationTime: 1564146709
ModificationTime: 1706649334
PfmFamily: 81
TTFWeight: 400
TTFWidth: 5
LineGap: 0
VLineGap: 0
Panose: 0 0 5 0 0 0 0 0 0 0
OS2TypoAscent: 960
OS2TypoAOffset: 0
OS2TypoDescent: -64
OS2TypoDOffset: 0
OS2TypoLinegap: 205
OS2WinAscent: 1165
OS2WinAOffset: 0
OS2WinDescent: 64
OS2WinDOffset: 0
HheadAscent: 1165
HheadAOffset: 0
HheadDescent: -64
HheadDOffset: 0
OS2SubXSize: 665
OS2SubYSize: 614
OS2SubXOff: 0
OS2SubYOff: 76
OS2SupXSize: 665
OS2SupYSize: 614
OS2SupXOff: 0
OS2SupYOff: 358
OS2StrikeYSize: 50
OS2StrikeYPos: 225
OS2Vendor: 'UKWN'
OS2CodePages: 00000001.00000000
OS2UnicodeRanges: 00000000.00000000.00000000.00000000
DEI: 91125
ShortTable: maxp 16
  1
  0
  221
  238
  11
  0
  0
  2
  0
  1
  1
  0
  64
  0
  0
  0
EndShort
LangName: 1033 "" "" "Regular" "1.000;UKWN;edge-icons-Regular" "" "Version 1.000;PS 001.000;hotconv 1.0.70;makeotf.lib2.5.58329"
GaspTable: 1 65535 2 0
Encoding: UnicodeBmp
UnicodeInterp: none
NameList: AGL For New Fonts
DisplaySize: -48
AntiAlias: 1
FitToEm: 0
WinInfo: 61400 25 8
BeginChars: 65539 222

StartChar: uniE609
Encoding: 58889 58889 4
Width: 1024
GlyphClass: 2
Flags: W
LayerCount: 2
Fore
SplineSet
512 907 m 128,-1,1
 636 907 636 907 742 845.5 c 128,-1,2
 848 784 848 784 909.5 678 c 128,-1,3
 971 572 971 572 971 448 c 128,-1,4
 971 324 971 324 909.5 218 c 128,-1,5
 848 112 848 112 742 50.5 c 128,-1,6
 636 -11 636 -11 512 -11 c 128,-1,7
 388 -11 388 -11 282 50.5 c 128,-1,8
 176 112 176 112 114.5 218 c 128,-1,9
 53 324 53 324 53 448 c 128,-1,10
 53 572 53 572 114.5 678 c 128,-1,11
 176 784 176 784 282 845.5 c 128,-1,0
 388 907 388 907 512 907 c 128,-1,1
512 843 m 0,12,13
 348 843 348 843 232.5 727.5 c 128,-1,14
 117 612 117 612 117 448 c 0,15,16
 117 305 117 305 211 193 c 1,17,-1
 767 749 l 1,18,19
 655 843 655 843 512 843 c 0,12,13
512 53 m 0,20,21
 676 53 676 53 791.5 168.5 c 128,-1,22
 907 284 907 284 907 448 c 0,23,24
 907 591 907 591 813 703 c 1,25,-1
 257 147 l 1,26,27
 369 53 369 53 512 53 c 0,20,21
EndSplineSet
EndChar

StartChar: uniF000
Encoding: 61440 61440 5
Width: 1024
GlyphClass: 2
Flags: W
LayerCount: 2
Fore
SplineSet
146 716 m 0,0,1
 86 630 86 630 90 518 c 0,2,3
 90 500 90 500 78 487.5 c 128,-1,4
 66 475 66 475 48 474 c 2,5,-1
 47 474 l 2,6,7
 30 474 30 474 17.5 486 c 128,-1,8
 5 498 5 498 4 516 c 0,9,10
 2 659 2 659 76 765 c 0,11,12
 152 873 152 873 285 918 c 0,13,14
 302 923 302 923 318 915 c 128,-1,15
 334 907 334 907 339 891 c 0,16,17
 345 874 345 874 337 858 c 128,-1,18
 329 842 329 842 312 837 c 0,19,20
 205 800 205 800 146 716 c 0,0,1
948 765 m 0,21,22
 1023 657 1023 657 1019 516 c 0,23,24
 1019 498 1019 498 1006.5 486 c 128,-1,25
 994 474 994 474 977 474 c 2,26,-1
 976 474 l 2,27,28
 958 475 958 475 945.5 487.5 c 128,-1,29
 933 500 933 500 934 518 c 0,30,31
 938 630 938 630 878 716 c 0,32,33
 819 800 819 800 712 837 c 0,34,35
 695 842 695 842 687 858 c 128,-1,36
 679 874 679 874 685 891 c 0,37,38
 690 907 690 907 706 915 c 128,-1,39
 722 923 722 923 739 918 c 0,40,41
 872 873 872 873 948 765 c 0,21,22
176 478 m 0,42,43
 159 478 159 478 146.5 490.5 c 128,-1,44
 134 503 134 503 133 520 c 0,45,46
 131 617 131 617 183 693 c 0,47,48
 236 767 236 767 328 799 c 0,49,50
 345 804 345 804 361 796 c 128,-1,51
 377 788 377 788 382 772 c 0,52,53
 388 756 388 756 380 740 c 128,-1,54
 372 724 372 724 355 718 c 0,55,56
 291 697 291 697 253 644 c 0,57,58
 217 592 217 592 219 522 c 0,59,60
 219 504 219 504 206.5 491.5 c 128,-1,61
 194 479 194 479 176 478 c 0,42,43
696 799 m 0,62,63
 788 767 788 767 841 693 c 0,64,65
 893 617 893 617 891 520 c 0,66,67
 890 503 890 503 877.5 491 c 128,-1,68
 865 479 865 479 848 479 c 2,69,-1
 847 479 l 2,70,71
 829 479 829 479 817 491.5 c 128,-1,72
 805 504 805 504 805 522 c 0,73,74
 807 592 807 592 771 644 c 0,75,76
 735 695 735 695 669 718 c 0,77,78
 652 724 652 724 644 740 c 128,-1,79
 636 756 636 756 642 772 c 128,-1,80
 648 788 648 788 664 796 c 128,-1,81
 680 804 680 804 696 799 c 0,62,63
773 415 m 0,82,83
 773 375 773 375 779.5 340.5 c 128,-1,84
 786 306 786 306 795.5 285.5 c 128,-1,85
 805 265 805 265 816 248.5 c 128,-1,86
 827 232 827 232 832.5 226.5 c 128,-1,87
 838 221 838 221 841 219 c 0,88,89
 859 203 859 203 851 183 c 0,90,91
 844 161 844 161 821 161 c 2,92,-1
 684 161 l 1,93,94
 679 94 679 94 629.5 47.5 c 128,-1,95
 580 1 580 1 512 1 c 128,-1,96
 444 1 444 1 394.5 47.5 c 128,-1,97
 345 94 345 94 340 161 c 1,98,-1
 203 161 l 2,99,100
 180 161 180 161 172 183 c 0,101,102
 165 205 165 205 184 219 c 0,103,104
 252 287 252 287 251 415 c 0,105,106
 249 549 249 549 332 632 c 0,107,108
 404 706 404 706 512 706 c 128,-1,109
 620 706 620 706 692 632 c 0,110,111
 775 549 775 549 773 415 c 0,82,83
512 86 m 128,-1,113
 545 86 545 86 569.5 107.5 c 128,-1,114
 594 129 594 129 599 161 c 1,115,-1
 425 161 l 1,116,117
 430 129 430 129 454.5 107.5 c 128,-1,112
 479 86 479 86 512 86 c 128,-1,113
EndSplineSet
EndChar

StartChar: uniF002
Encoding: 61442 61442 6
Width: 1024
GlyphClass: 2
Flags: W
LayerCount: 2
Fore
SplineSet
522 441 m 0,0,1
 639 441 639 441 685 495 c 0,2,3
 737 552 737 552 720 682 c 0,4,5
 708 773 708 773 655.5 824 c 128,-1,6
 603 875 603 875 522 875 c 128,-1,7
 441 875 441 875 388.5 824 c 128,-1,8
 336 773 336 773 323 682 c 0,9,10
 306 552 306 552 358 495 c 0,11,12
 404 441 404 441 522 441 c 0,0,1
272 21 m 2,13,-1
 771 21 l 2,14,15
 814 21 814 21 841 54 c 0,16,17
 870 91 870 91 859 138 c 0,18,19
 832 251 832 251 738 322.5 c 128,-1,20
 644 394 644 394 522 394 c 0,21,22
 399 394 399 394 305 322.5 c 128,-1,23
 211 251 211 251 184 138 c 0,24,25
 173 91 173 91 202 54 c 0,26,27
 229 21 229 21 272 21 c 2,13,-1
EndSplineSet
EndChar

StartChar: uniF003
Encoding: 61443 61443 7
Width: 1024
GlyphClass: 2
Flags: W
LayerCount: 2
Fore
SplineSet
863 337 m 0,0,1
 867 324 867 324 858 311 c 0,2,3
 846 299 846 299 829 299 c 2,4,-1
 656 299 l 1,5,-1
 532 13 l 2,6,7
 526 0 526 0 512 0 c 128,-1,8
 498 0 498 0 493 13 c 2,9,-1
 369 299 l 1,10,-1
 195 299 l 2,11,12
 177 299 177 299 166 312 c 0,13,14
 157 324 157 324 161 337 c 0,15,16
 172 390 172 390 224 441 c 128,-1,17
 276 492 276 492 332 513 c 1,18,-1
 352 723 l 1,19,-1
 288 819 l 2,20,21
 278 836 278 836 287 853 c 128,-1,22
 296 870 296 870 316 870 c 2,23,-1
 706 870 l 2,24,25
 726 870 726 870 734 853 c 0,26,27
 744 835 744 835 733 819 c 2,28,-1
 669 724 l 1,29,-1
 692 513 l 1,30,31
 748 492 748 492 800 441 c 128,-1,32
 852 390 852 390 863 337 c 0,0,1
EndSplineSet
EndChar

StartChar: uniF004
Encoding: 61444 61444 8
Width: 1024
GlyphClass: 2
Flags: W
LayerCount: 2
Fore
SplineSet
139 875 m 2,0,-1
 885 875 l 2,1,2
 925 875 925 875 953 847 c 128,-1,3
 981 819 981 819 981 779 c 2,4,-1
 981 117 l 2,5,6
 981 77 981 77 953 49 c 128,-1,7
 925 21 925 21 885 21 c 2,8,-1
 139 21 l 2,9,10
 99 21 99 21 71 49 c 128,-1,11
 43 77 43 77 43 117 c 2,12,-1
 43 779 l 2,13,14
 43 819 43 819 71 847 c 128,-1,15
 99 875 99 875 139 875 c 2,0,-1
747 384 m 2,16,-1
 747 625 l 2,17,18
 747 641 747 641 736 651.5 c 128,-1,19
 725 662 725 662 709 662 c 2,20,-1
 468 662 l 2,21,22
 453 662 453 662 442 651.5 c 128,-1,23
 431 641 431 641 431 625 c 128,-1,24
 431 609 431 609 442 598.5 c 128,-1,25
 453 588 453 588 468 588 c 2,26,-1
 619 588 l 1,27,-1
 297 266 l 2,28,29
 286 255 286 255 286 239.5 c 128,-1,30
 286 224 286 224 297 213 c 128,-1,31
 308 202 308 202 324 202 c 0,32,33
 339 202 339 202 350 213 c 2,34,-1
 672 535 l 1,35,-1
 672 384 l 2,36,37
 672 368 672 368 683 357 c 128,-1,38
 694 346 694 346 709 346 c 0,39,40
 725 346 725 346 736 357 c 128,-1,41
 747 368 747 368 747 384 c 2,16,-1
EndSplineSet
EndChar

StartChar: uniF005
Encoding: 61445 61445 9
Width: 1024
GlyphClass: 2
Flags: W
LayerCount: 2
Fore
SplineSet
422 865 m 2,0,-1
 599 864 l 2,1,2
 739 864 739 864 835.5 768 c 128,-1,3
 932 672 932 672 932 532 c 2,4,-1
 932 531 l 2,5,6
 932 456 932 456 897.5 385 c 128,-1,7
 863 314 863 314 802 262 c 0,8,9
 726 198 726 198 457 27 c 0,10,11
 449 22 449 22 440 22 c 0,12,13
 422 22 422 22 413 37 c 0,14,15
 408 45 408 45 408 54 c 2,16,-1
 408 217 l 1,17,18
 271 222 271 222 180 311.5 c 128,-1,19
 89 401 89 401 89 532 c 0,20,21
 89 672 89 672 185.5 768.5 c 128,-1,22
 282 865 282 865 422 865 c 2,0,-1
EndSplineSet
EndChar

StartChar: uniF006
Encoding: 61446 61446 10
Width: 1024
GlyphClass: 2
Flags: W
LayerCount: 2
Fore
SplineSet
314 171 m 2,0,-1
 536 171 l 2,1,2
 557 171 557 171 572 156 c 128,-1,3
 587 141 587 141 587 119 c 0,4,5
 587 98 587 98 572 83 c 128,-1,6
 557 68 557 68 536 68 c 2,7,-1
 314 68 l 2,8,9
 244 68 244 68 194.5 117.5 c 128,-1,10
 145 167 145 167 145 237 c 2,11,-1
 145 638 l 1,12,-1
 89 581 l 2,13,14
 74 566 74 566 53 566 c 128,-1,15
 32 566 32 566 17 581 c 0,16,17
 1 596 1 596 1 617.5 c 128,-1,18
 1 639 1 639 17 654 c 2,19,-1
 161 798 l 2,20,21
 175 813 175 813 196.5 813 c 128,-1,22
 218 813 218 813 233 798 c 2,23,-1
 377 654 l 2,24,25
 392 639 392 639 392 617.5 c 128,-1,26
 392 596 392 596 377 581 c 128,-1,27
 362 566 362 566 341 566 c 128,-1,28
 320 566 320 566 305 581 c 2,29,-1
 248 638 l 1,30,-1
 248 237 l 2,31,32
 248 209 248 209 267.5 190 c 128,-1,33
 287 171 287 171 314 171 c 2,0,-1
1008 300 m 0,34,35
 1023 285 1023 285 1023 263.5 c 128,-1,36
 1023 242 1023 242 1008 227 c 2,37,-1
 864 83 l 2,38,39
 849 68 849 68 827 68 c 0,40,41
 806 68 806 68 791 83 c 2,42,-1
 647 227 l 2,43,44
 632 242 632 242 632 263.5 c 128,-1,45
 632 285 632 285 647 300 c 128,-1,46
 662 315 662 315 683.5 315 c 128,-1,47
 705 315 705 315 720 300 c 2,48,-1
 776 243 l 1,49,-1
 776 644 l 2,50,51
 776 672 776 672 756.5 691 c 128,-1,52
 737 710 737 710 710 710 c 2,53,-1
 488 710 l 2,54,55
 467 710 467 710 452 725 c 128,-1,56
 437 740 437 740 437 762 c 0,57,58
 437 783 437 783 452 798 c 128,-1,59
 467 813 467 813 488 813 c 2,60,-1
 710 813 l 2,61,62
 780 813 780 813 829.5 763.5 c 128,-1,63
 879 714 879 714 879 644 c 2,64,-1
 879 243 l 1,65,-1
 935 300 l 2,66,67
 950 315 950 315 971 315 c 128,-1,68
 992 315 992 315 1008 300 c 0,34,35
EndSplineSet
EndChar

StartChar: uniF007
Encoding: 61447 61447 11
Width: 1024
GlyphClass: 2
Flags: W
LayerCount: 2
Fore
SplineSet
896 875 m 128,-1,1
 914 875 914 875 926.5 862.5 c 128,-1,2
 939 850 939 850 939 832 c 2,3,-1
 939 64 l 2,4,5
 939 46 939 46 926.5 33.5 c 128,-1,6
 914 21 914 21 896 21 c 128,-1,7
 878 21 878 21 865.5 33.5 c 128,-1,8
 853 46 853 46 853 64 c 2,9,-1
 853 832 l 2,10,11
 853 850 853 850 865.5 862.5 c 128,-1,0
 878 875 878 875 896 875 c 128,-1,1
128 619 m 0,12,13
 157 619 157 619 168 589 c 1,14,-1
 768 788 l 1,15,-1
 768 108 l 1,16,-1
 668 141 l 1,17,18
 647 88 647 88 598.5 54.5 c 128,-1,19
 550 21 550 21 491 21 c 0,20,21
 412 21 412 21 355.5 77.5 c 128,-1,22
 299 134 299 134 299 213 c 0,23,24
 299 238 299 238 305 261 c 1,25,-1
 168 307 l 1,26,27
 157 277 157 277 128 277 c 0,28,29
 110 277 110 277 97.5 289.5 c 128,-1,30
 85 302 85 302 85 320 c 2,31,-1
 85 576 l 2,32,33
 85 594 85 594 97.5 606.5 c 128,-1,34
 110 619 110 619 128 619 c 0,12,13
491 107 m 0,35,36
 522 107 522 107 548 124 c 128,-1,37
 574 141 574 141 587 168 c 1,38,-1
 386 234 l 1,39,40
 384 222 384 222 384 213 c 0,41,42
 384 169 384 169 415.5 138 c 128,-1,43
 447 107 447 107 491 107 c 0,35,36
EndSplineSet
EndChar

StartChar: uniF009
Encoding: 61449 61449 12
Width: 1024
GlyphClass: 2
Flags: W
LayerCount: 2
Fore
SplineSet
779 480 m 1,0,-1
 917 480 l 2,1,2
 930 480 930 480 939.5 471 c 128,-1,3
 949 462 949 462 949 448 c 2,4,-1
 949 139 l 2,5,6
 949 90 949 90 915 55.5 c 128,-1,7
 881 21 881 21 832 21 c 2,8,-1
 171 21 l 2,9,10
 131 21 131 21 103 49 c 128,-1,11
 75 77 75 77 75 117 c 2,12,-1
 75 779 l 2,13,14
 75 819 75 819 103 847 c 128,-1,15
 131 875 131 875 171 875 c 2,16,-1
 683 875 l 2,17,18
 723 875 723 875 751 847 c 128,-1,19
 779 819 779 819 779 779 c 2,20,-1
 779 480 l 1,0,-1
256 587 m 2,21,-1
 597 587 l 2,22,23
 610 587 610 587 619.5 596.5 c 128,-1,24
 629 606 629 606 629 619 c 128,-1,25
 629 632 629 632 619.5 641.5 c 128,-1,26
 610 651 610 651 597 651 c 2,27,-1
 256 651 l 2,28,29
 243 651 243 651 233.5 641.5 c 128,-1,30
 224 632 224 632 224 619 c 128,-1,31
 224 606 224 606 233 596.5 c 128,-1,32
 242 587 242 587 256 587 c 2,21,-1
256 416 m 2,33,-1
 597 416 l 2,34,35
 610 416 610 416 619.5 425 c 128,-1,36
 629 434 629 434 629 448 c 128,-1,37
 629 462 629 462 619.5 471 c 128,-1,38
 610 480 610 480 597 480 c 2,39,-1
 256 480 l 2,40,41
 242 480 242 480 233 471 c 128,-1,42
 224 462 224 462 224 448 c 128,-1,43
 224 434 224 434 233 425 c 128,-1,44
 242 416 242 416 256 416 c 2,33,-1
885 416 m 1,45,-1
 779 416 l 1,46,-1
 779 139 l 2,47,48
 779 117 779 117 794.5 101 c 128,-1,49
 810 85 810 85 832 85 c 128,-1,50
 854 85 854 85 869.5 101 c 128,-1,51
 885 117 885 117 885 139 c 2,52,-1
 885 416 l 1,45,-1
256 245 m 2,53,-1
 459 245 l 2,54,55
 472 245 472 245 481.5 254.5 c 128,-1,56
 491 264 491 264 491 277 c 128,-1,57
 491 290 491 290 481.5 299.5 c 128,-1,58
 472 309 472 309 459 309 c 2,59,-1
 256 309 l 2,60,61
 242 309 242 309 233 299.5 c 128,-1,62
 224 290 224 290 224 277 c 128,-1,63
 224 264 224 264 233.5 254.5 c 128,-1,64
 243 245 243 245 256 245 c 2,53,-1
EndSplineSet
EndChar

StartChar: uniF010
Encoding: 61456 61456 13
Width: 1024
GlyphClass: 2
Flags: W
LayerCount: 2
Fore
SplineSet
512 873 m 128,-1,1
 665 873 665 873 774 764.5 c 128,-1,2
 883 656 883 656 883 503 c 0,3,4
 883 378 883 378 808 280 c 0,5,6
 792 259 792 259 764 231 c 128,-1,7
 736 203 736 203 707.5 176.5 c 128,-1,8
 679 150 679 150 647 122.5 c 128,-1,9
 615 95 615 95 591.5 76 c 128,-1,10
 568 57 568 57 550 42 c 2,11,-1
 532 27 l 2,12,13
 524 20 524 20 512 20 c 128,-1,14
 500 20 500 20 492 27 c 2,15,-1
 474 42 l 2,16,17
 456 57 456 57 432.5 76 c 128,-1,18
 409 95 409 95 377 122.5 c 128,-1,19
 345 150 345 150 316.5 176 c 128,-1,20
 288 202 288 202 260 230 c 128,-1,21
 232 258 232 258 216 279 c 0,22,23
 141 378 141 378 141 503 c 0,24,25
 141 656 141 656 250 764.5 c 128,-1,0
 359 873 359 873 512 873 c 128,-1,1
512 361 m 128,-1,27
 574 361 574 361 617.5 405 c 128,-1,28
 661 449 661 449 661 511 c 0,29,30
 661 572 661 572 617.5 616 c 128,-1,31
 574 660 574 660 512 660 c 128,-1,32
 450 660 450 660 406.5 616 c 128,-1,33
 363 572 363 572 363 511 c 0,34,35
 363 449 363 449 406.5 405 c 128,-1,26
 450 361 450 361 512 361 c 128,-1,27
EndSplineSet
EndChar

StartChar: uniF011
Encoding: 61457 61457 14
Width: 1024
GlyphClass: 2
Flags: W
LayerCount: 2
Fore
SplineSet
784 604 m 0,0,1
 923 419 923 419 881 282 c 0,2,3
 840 149 840 149 605 65 c 0,4,5
 594 61 594 61 587 70 c 0,6,7
 580 78 580 78 585 88 c 0,8,9
 590 97 590 97 597 113 c 128,-1,10
 604 129 604 129 617 178.5 c 128,-1,11
 630 228 630 228 633.5 277 c 128,-1,12
 637 326 637 326 623 394 c 128,-1,13
 609 462 609 462 573 522 c 1,14,15
 565 455 565 455 481 359 c 0,16,17
 380 243 380 243 495 14 c 1,18,-1
 499 4 l 1,19,20
 499 -12 499 -12 483 -12 c 2,21,-1
 482 -12 l 1,22,-1
 476 -11 l 2,23,24
 464 -6 464 -6 441 5.5 c 128,-1,25
 418 17 418 17 369 47.5 c 128,-1,26
 320 78 320 78 278.5 112.5 c 128,-1,27
 237 147 237 147 198 198.5 c 128,-1,28
 159 250 159 250 145 303 c 0,29,30
 116 412 116 412 196 519 c 0,31,32
 246 585 246 585 279.5 639 c 128,-1,33
 313 693 313 693 322 714 c 2,34,-1
 330 735 l 2,35,36
 333 747 333 747 347 747 c 0,37,38
 360 745 360 745 362 732 c 0,39,40
 364 696 364 696 374.5 652.5 c 128,-1,41
 385 609 385 609 395 584 c 2,42,-1
 405 558 l 1,43,44
 460 627 460 627 493 713.5 c 128,-1,45
 526 800 526 800 532 838.5 c 128,-1,46
 538 877 538 877 538 892 c 0,47,48
 540 904 540 904 550 907 c 0,49,50
 563 909 563 909 568 899 c 2,51,-1
 598 858 l 2,52,53
 628 816 628 816 682 742 c 128,-1,54
 736 668 736 668 784 604 c 0,0,1
EndSplineSet
EndChar

StartChar: uniF012
Encoding: 61458 61458 15
Width: 1024
GlyphClass: 2
Flags: W
LayerCount: 2
Fore
SplineSet
181 875 m 2,0,-1
 843 875 l 2,1,2
 882 875 882 875 910.5 846.5 c 128,-1,3
 939 818 939 818 939 779 c 2,4,-1
 939 117 l 2,5,6
 939 78 939 78 910.5 49.5 c 128,-1,7
 882 21 882 21 843 21 c 2,8,-1
 181 21 l 2,9,10
 142 21 142 21 113.5 49.5 c 128,-1,11
 85 78 85 78 85 117 c 2,12,-1
 85 779 l 2,13,14
 85 818 85 818 113.5 846.5 c 128,-1,15
 142 875 142 875 181 875 c 2,0,-1
299 587 m 2,16,-1
 725 587 l 2,17,18
 738 587 738 587 747.5 596.5 c 128,-1,19
 757 606 757 606 757 619 c 128,-1,20
 757 632 757 632 747.5 641.5 c 128,-1,21
 738 651 738 651 725 651 c 2,22,-1
 299 651 l 2,23,24
 286 651 286 651 276.5 641.5 c 128,-1,25
 267 632 267 632 267 619 c 128,-1,26
 267 606 267 606 276.5 596.5 c 128,-1,27
 286 587 286 587 299 587 c 2,16,-1
299 416 m 2,28,-1
 725 416 l 2,29,30
 738 416 738 416 747.5 425 c 128,-1,31
 757 434 757 434 757 448 c 128,-1,32
 757 462 757 462 747.5 471 c 128,-1,33
 738 480 738 480 725 480 c 2,34,-1
 299 480 l 2,35,36
 286 480 286 480 276.5 471 c 128,-1,37
 267 462 267 462 267 448 c 128,-1,38
 267 434 267 434 276.5 425 c 128,-1,39
 286 416 286 416 299 416 c 2,28,-1
299 245 m 2,40,-1
 469 245 l 2,41,42
 482 245 482 245 491.5 254.5 c 128,-1,43
 501 264 501 264 501 277 c 128,-1,44
 501 290 501 290 491.5 299.5 c 128,-1,45
 482 309 482 309 469 309 c 2,46,-1
 299 309 l 2,47,48
 286 309 286 309 276.5 299.5 c 128,-1,49
 267 290 267 290 267 277 c 128,-1,50
 267 264 267 264 276.5 254.5 c 128,-1,51
 286 245 286 245 299 245 c 2,40,-1
EndSplineSet
EndChar

StartChar: uniF014
Encoding: 61460 61460 16
Width: 1024
GlyphClass: 2
Flags: W
LayerCount: 2
Fore
SplineSet
1009 749 m 1,0,1
 969 689 969 689 910 646 c 1,2,-1
 910 621 l 2,3,4
 910 541 910 541 887 461 c 128,-1,5
 864 381 864 381 816 308 c 128,-1,6
 768 235 768 235 702 178.5 c 128,-1,7
 636 122 636 122 543.5 88.5 c 128,-1,8
 451 55 451 55 345 55 c 0,9,10
 179 55 179 55 40 145 c 1,11,12
 64 142 64 142 87 142 c 0,13,14
 225 142 225 142 334 227 c 1,15,16
 270 228 270 228 219 266.5 c 128,-1,17
 168 305 168 305 149 365 c 1,18,19
 173 361 173 361 186 361 c 0,20,21
 210 361 210 361 238 368 c 1,22,23
 169 382 169 382 124 437 c 128,-1,24
 79 492 79 492 79 563 c 2,25,-1
 79 566 l 1,26,27
 121 542 121 542 169 541 c 1,28,29
 129 568 129 568 105 611.5 c 128,-1,30
 81 655 81 655 81 706 c 0,31,32
 81 762 81 762 107 806 c 1,33,34
 182 714 182 714 288.5 659.5 c 128,-1,35
 395 605 395 605 517 599 c 1,36,37
 512 622 512 622 512 644 c 0,38,39
 512 726 512 726 570 784.5 c 128,-1,40
 628 843 628 843 711 843 c 0,41,42
 796 843 796 843 856 780 c 1,43,44
 926 794 926 794 982 828 c 1,45,46
 959 757 959 757 895 718 c 1,47,48
 952 725 952 725 1009 749 c 1,0,1
EndSplineSet
EndChar

StartChar: uniF015
Encoding: 61461 61461 17
Width: 1024
GlyphClass: 2
Flags: W
LayerCount: 2
Fore
SplineSet
511 37 m 2,0,-1
 512 37 l 2,1,2
 554 38 554 38 626 88.5 c 128,-1,3
 698 139 698 139 768 215.5 c 128,-1,4
 838 292 838 292 889.5 397 c 128,-1,5
 941 502 941 502 941 598 c 0,6,7
 941 696 941 696 871.5 770 c 128,-1,8
 802 844 802 844 710 844 c 0,9,10
 596 844 596 844 512 727 c 1,11,12
 428 844 428 844 314 844 c 0,13,14
 222 844 222 844 152.5 770 c 128,-1,15
 83 696 83 696 83 598 c 0,16,17
 83 502 83 502 134.5 397 c 128,-1,18
 186 292 186 292 256 215.5 c 128,-1,19
 326 139 326 139 397.5 88.5 c 128,-1,20
 469 38 469 38 511 37 c 2,0,-1
EndSplineSet
EndChar

StartChar: uniF016
Encoding: 61462 61462 18
Width: 1024
GlyphClass: 2
Flags: W
LayerCount: 2
Fore
SplineSet
512 21 m 128,-1,1
 525 21 525 21 534.5 30.5 c 128,-1,2
 544 40 544 40 544 53 c 2,3,-1
 544 843 l 2,4,5
 544 856 544 856 534.5 865.5 c 128,-1,6
 525 875 525 875 512 875 c 128,-1,7
 499 875 499 875 489.5 865.5 c 128,-1,8
 480 856 480 856 480 843 c 2,9,-1
 480 53 l 2,10,11
 480 40 480 40 489.5 30.5 c 128,-1,0
 499 21 499 21 512 21 c 128,-1,1
731 21 m 128,-1,13
 744 21 744 21 753.5 30.5 c 128,-1,14
 763 40 763 40 763 53 c 2,15,-1
 763 623 l 2,16,17
 763 636 763 636 753.5 645.5 c 128,-1,18
 744 655 744 655 731 655 c 128,-1,19
 718 655 718 655 708.5 645.5 c 128,-1,20
 699 636 699 636 699 623 c 2,21,-1
 699 53 l 2,22,23
 699 40 699 40 708.5 30.5 c 128,-1,12
 718 21 718 21 731 21 c 128,-1,13
293 21 m 128,-1,25
 306 21 306 21 315.5 30.5 c 128,-1,26
 325 40 325 40 325 53 c 2,27,-1
 325 492 l 2,28,29
 325 505 325 505 315.5 514.5 c 128,-1,30
 306 524 306 524 293 524 c 128,-1,31
 280 524 280 524 270.5 514.5 c 128,-1,32
 261 505 261 505 261 492 c 2,33,-1
 261 53 l 2,34,35
 261 40 261 40 270.5 30.5 c 128,-1,24
 280 21 280 21 293 21 c 128,-1,25
EndSplineSet
EndChar

StartChar: uniF017
Encoding: 61463 61463 19
Width: 1024
GlyphClass: 2
Flags: W
LayerCount: 2
Fore
SplineSet
383 -8 m 0,0,1
 399 -8 399 -8 408 3 c 2,2,-1
 835 529 l 2,3,4
 848 545 848 545 840 563 c 0,5,6
 830 581 830 581 811 581 c 2,7,-1
 611 581 l 1,8,-1
 673 841 l 2,9,10
 676 856 676 856 667 868 c 128,-1,11
 658 880 658 880 642 880 c 2,12,-1
 351 880 l 2,13,14
 339 880 339 880 330 872.5 c 128,-1,15
 321 865 321 865 320 853 c 2,16,-1
 248 429 l 2,17,18
 245 416 245 416 255 403 c 0,19,20
 264 392 264 392 279 392 c 2,21,-1
 404 392 l 1,22,-1
 351 28 l 2,23,24
 348 4 348 4 370 -6 c 0,25,26
 374 -8 374 -8 383 -8 c 0,0,1
EndSplineSet
EndChar

StartChar: uniF018
Encoding: 61464 61464 20
Width: 1024
GlyphClass: 2
Flags: W
LayerCount: 2
Fore
SplineSet
149 505 m 1,0,-1
 863 505 l 2,1,2
 875 505 875 505 875 493 c 2,3,-1
 875 395 l 2,4,5
 875 383 875 383 863 383 c 2,6,-1
 149 383 l 1,7,-1
 149 319 l 1,8,-1
 600 319 l 2,9,10
 604 319 604 319 608 315.5 c 128,-1,11
 612 312 612 312 612 307 c 2,12,-1
 612 208 l 2,13,14
 612 204 612 204 608 200 c 128,-1,15
 604 196 604 196 600 196 c 2,16,-1
 149 196 l 1,17,-1
 149 71 l 2,18,19
 149 58 149 58 139.5 48.5 c 128,-1,20
 130 39 130 39 117 39 c 128,-1,21
 104 39 104 39 94.5 48.5 c 128,-1,22
 85 58 85 58 85 71 c 2,23,-1
 85 817 l 2,24,25
 85 830 85 830 94.5 839.5 c 128,-1,26
 104 849 104 849 117 849 c 128,-1,27
 130 849 130 849 139.5 839.5 c 128,-1,28
 149 830 149 830 149 817 c 2,29,-1
 149 691 l 1,30,-1
 731 691 l 2,31,32
 743 691 743 691 743 680 c 2,33,-1
 743 581 l 2,34,35
 743 569 743 569 731 569 c 2,36,-1
 149 569 l 1,37,-1
 149 505 l 1,0,-1
EndSplineSet
EndChar

StartChar: uniF019
Encoding: 61465 61465 21
Width: 1024
GlyphClass: 2
Flags: W
LayerCount: 2
Fore
SplineSet
926 257 m 0,0,1
 944 244 944 244 937 222 c 128,-1,2
 930 200 930 200 907 200 c 2,3,-1
 715 200 l 1,4,5
 712 118 712 118 653 61 c 128,-1,6
 594 4 594 4 512 4 c 128,-1,7
 430 4 430 4 371 61 c 128,-1,8
 312 118 312 118 309 200 c 1,9,-1
 117 200 l 2,10,11
 94 200 94 200 87 222 c 128,-1,12
 80 244 80 244 98 257 c 0,13,14
 102 260 102 260 109 267 c 128,-1,15
 116 274 116 274 131 296 c 128,-1,16
 146 318 146 318 158 345 c 128,-1,17
 170 372 170 372 179 417.5 c 128,-1,18
 188 463 188 463 188 515 c 0,19,20
 186 682 186 682 288 785 c 0,21,22
 379 876 379 876 512 878 c 0,23,24
 645 876 645 876 736 785 c 0,25,26
 838 682 838 682 836 515 c 0,27,28
 835 464 835 464 844 419 c 128,-1,29
 853 374 853 374 864.5 347 c 128,-1,30
 876 320 876 320 891.5 297.5 c 128,-1,31
 907 275 907 275 913.5 268.5 c 128,-1,32
 920 262 920 262 926 257 c 0,0,1
512 89 m 128,-1,34
 559 89 559 89 592.5 121 c 128,-1,35
 626 153 626 153 630 200 c 1,36,-1
 394 200 l 1,37,38
 398 153 398 153 431.5 121 c 128,-1,33
 465 89 465 89 512 89 c 128,-1,34
EndSplineSet
EndChar

StartChar: uniF020
Encoding: 61472 61472 22
Width: 1024
GlyphClass: 2
Flags: W
LayerCount: 2
Fore
SplineSet
763 699 m 1,0,-1
 843 699 l 2,1,2
 883 699 883 699 911 671 c 128,-1,3
 939 643 939 643 939 603 c 2,4,-1
 939 117 l 2,5,6
 939 77 939 77 911 49 c 128,-1,7
 883 21 883 21 843 21 c 2,8,-1
 357 21 l 2,9,10
 317 21 317 21 289 49 c 128,-1,11
 261 77 261 77 261 117 c 2,12,-1
 261 197 l 1,13,-1
 181 197 l 2,14,15
 141 197 141 197 113 225 c 128,-1,16
 85 253 85 253 85 293 c 2,17,-1
 85 779 l 2,18,19
 85 819 85 819 113 847 c 128,-1,20
 141 875 141 875 181 875 c 2,21,-1
 667 875 l 2,22,23
 707 875 707 875 735 847 c 128,-1,24
 763 819 763 819 763 779 c 2,25,-1
 763 699 l 1,0,-1
875 117 m 2,26,-1
 875 603 l 2,27,28
 875 616 875 616 865.5 625.5 c 128,-1,29
 856 635 856 635 843 635 c 2,30,-1
 763 635 l 1,31,-1
 763 293 l 2,32,33
 763 253 763 253 735 225 c 128,-1,34
 707 197 707 197 667 197 c 2,35,-1
 325 197 l 1,36,-1
 325 117 l 2,37,38
 325 104 325 104 334.5 94.5 c 128,-1,39
 344 85 344 85 357 85 c 2,40,-1
 843 85 l 2,41,42
 856 85 856 85 865.5 94.5 c 128,-1,43
 875 104 875 104 875 117 c 2,26,-1
EndSplineSet
EndChar

StartChar: uniF021
Encoding: 61473 61473 23
Width: 1024
GlyphClass: 2
Flags: W
LayerCount: 2
Fore
SplineSet
762 648 m 1,0,-1
 843 648 l 2,1,2
 883 648 883 648 911 620 c 128,-1,3
 939 592 939 592 939 552 c 2,4,-1
 939 116 l 2,5,6
 939 76 939 76 911 48 c 128,-1,7
 883 20 883 20 843 20 c 2,8,-1
 181 20 l 2,9,10
 141 20 141 20 113 48 c 128,-1,11
 85 76 85 76 85 116 c 2,12,-1
 85 552 l 2,13,14
 85 592 85 592 113 620 c 128,-1,15
 141 648 141 648 181 648 c 2,16,-1
 262 648 l 1,17,18
 268 747 268 747 340.5 815.5 c 128,-1,19
 413 884 413 884 512 884 c 0,20,21
 612 884 612 884 684 815.5 c 128,-1,22
 756 747 756 747 762 648 c 1,0,-1
326 648 m 1,23,-1
 698 648 l 1,24,25
 692 720 692 720 638.5 770 c 128,-1,26
 585 820 585 820 512 820 c 128,-1,27
 439 820 439 820 385.5 770 c 128,-1,28
 332 720 332 720 326 648 c 1,23,-1
544 231 m 2,29,-1
 544 291 l 1,30,31
 569 301 569 301 584.5 323 c 128,-1,32
 600 345 600 345 600 372 c 0,33,34
 600 409 600 409 574 434.5 c 128,-1,35
 548 460 548 460 512 460 c 0,36,37
 475 460 475 460 449.5 434.5 c 128,-1,38
 424 409 424 409 424 372 c 0,39,40
 424 344 424 344 439.5 322 c 128,-1,41
 455 300 455 300 480 291 c 1,42,-1
 480 231 l 2,43,44
 480 218 480 218 489 208.5 c 128,-1,45
 498 199 498 199 512 199 c 128,-1,46
 526 199 526 199 535 208.5 c 128,-1,47
 544 218 544 218 544 231 c 2,29,-1
EndSplineSet
EndChar

StartChar: uniF022
Encoding: 61474 61474 24
Width: 1024
GlyphClass: 2
Flags: W
LayerCount: 2
Fore
SplineSet
252 870 m 2,0,-1
 872 475 l 2,1,2
 887 465 887 465 887 448 c 128,-1,3
 887 431 887 431 872 421 c 2,4,-1
 252 26 l 2,5,6
 244 21 244 21 235 21 c 0,7,8
 229 21 229 21 219 25 c 0,9,10
 203 35 203 35 203 53 c 2,11,-1
 203 843 l 2,12,13
 203 861 203 861 219 871 c 0,14,15
 237 879 237 879 252 870 c 2,0,-1
EndSplineSet
EndChar

StartChar: uniF023
Encoding: 61475 61475 25
Width: 1024
GlyphClass: 2
Flags: W
LayerCount: 2
Fore
SplineSet
422 865 m 2,0,-1
 599 864 l 2,1,2
 739 864 739 864 835.5 768 c 128,-1,3
 932 672 932 672 932 532 c 2,4,-1
 932 531 l 2,5,6
 932 456 932 456 897.5 385 c 128,-1,7
 863 314 863 314 802 262 c 0,8,9
 726 198 726 198 457 27 c 0,10,11
 449 22 449 22 440 22 c 0,12,13
 422 22 422 22 413 37 c 0,14,15
 408 45 408 45 408 54 c 2,16,-1
 408 217 l 1,17,18
 271 222 271 222 180 311.5 c 128,-1,19
 89 401 89 401 89 532 c 0,20,21
 89 672 89 672 185.5 768.5 c 128,-1,22
 282 865 282 865 422 865 c 2,0,-1
EndSplineSet
EndChar

StartChar: uniF026
Encoding: 61478 61478 26
Width: 1024
GlyphClass: 2
Flags: W
LayerCount: 2
Fore
SplineSet
309 847 m 0,0,1
 199 810 199 810 137 722 c 0,2,3
 77 635 77 635 79 518 c 0,4,5
 80 504 80 504 70.5 494.5 c 128,-1,6
 61 485 61 485 48 485 c 2,7,-1
 47 485 l 2,8,9
 34 485 34 485 25 494 c 128,-1,10
 16 503 16 503 15 516 c 0,11,12
 11 653 11 653 85 758 c 0,13,14
 158 864 158 864 289 908 c 0,15,16
 301 912 301 912 313 906 c 128,-1,17
 325 900 325 900 329 887 c 0,18,19
 334 875 334 875 328 863.5 c 128,-1,20
 322 852 322 852 309 847 c 0,0,1
939 758 m 0,21,22
 1013 653 1013 653 1009 516 c 0,23,24
 1008 503 1008 503 999 494 c 128,-1,25
 990 485 990 485 977 485 c 2,26,-1
 976 485 l 2,27,28
 963 485 963 485 953.5 494.5 c 128,-1,29
 944 504 944 504 945 518 c 0,30,31
 947 635 947 635 887 722 c 0,32,33
 825 810 825 810 715 847 c 0,34,35
 702 852 702 852 696.5 863.5 c 128,-1,36
 691 875 691 875 695 888 c 0,37,38
 700 900 700 900 711.5 906 c 128,-1,39
 723 912 723 912 736 908 c 0,40,41
 867 863 867 863 939 758 c 0,21,22
177 489 m 2,42,-1
 176 489 l 2,43,44
 163 489 163 489 154 498 c 128,-1,45
 145 507 145 507 144 520 c 0,46,47
 142 615 142 615 192 686 c 0,48,49
 243 759 243 759 331 789 c 0,50,51
 344 793 344 793 355.5 787 c 128,-1,52
 367 781 367 781 372 769 c 0,53,54
 376 756 376 756 370.5 744.5 c 128,-1,55
 365 733 365 733 352 728 c 0,56,57
 283 705 283 705 244 650 c 0,58,59
 206 595 206 595 208 522 c 0,60,61
 209 509 209 509 200 499.5 c 128,-1,62
 191 490 191 490 177 489 c 2,42,-1
693 789 m 0,63,64
 781 759 781 759 832 686 c 0,65,66
 882 615 882 615 880 520 c 0,67,68
 880 507 880 507 870.5 498 c 128,-1,69
 861 489 861 489 848 489 c 2,70,-1
 847 489 l 2,71,72
 834 490 834 490 825 499 c 128,-1,73
 816 508 816 508 816 522 c 0,74,75
 818 595 818 595 780 650 c 0,76,77
 741 705 741 705 672 728 c 0,78,79
 659 733 659 733 653.5 744.5 c 128,-1,80
 648 756 648 756 652 769 c 0,81,82
 657 781 657 781 668.5 787 c 128,-1,83
 680 793 680 793 693 789 c 0,63,64
773 415 m 0,84,85
 773 375 773 375 779.5 340.5 c 128,-1,86
 786 306 786 306 795.5 285.5 c 128,-1,87
 805 265 805 265 816 248.5 c 128,-1,88
 827 232 827 232 832.5 226.5 c 128,-1,89
 838 221 838 221 841 219 c 0,90,91
 859 203 859 203 851 183 c 0,92,93
 844 161 844 161 821 161 c 2,94,-1
 663 161 l 1,95,96
 658 103 658 103 614.5 62.5 c 128,-1,97
 571 22 571 22 512 22 c 128,-1,98
 453 22 453 22 409.5 62.5 c 128,-1,99
 366 103 366 103 361 161 c 1,100,-1
 203 161 l 2,101,102
 180 161 180 161 172 183 c 0,103,104
 165 205 165 205 184 219 c 0,105,106
 252 287 252 287 251 415 c 0,107,108
 249 549 249 549 332 632 c 0,109,110
 404 706 404 706 512 706 c 128,-1,111
 620 706 620 706 692 632 c 0,112,113
 775 549 775 549 773 415 c 0,84,85
269 225 m 1,114,-1
 754 225 l 1,115,116
 708 305 708 305 709 416 c 0,117,118
 709 523 709 523 647 587 c 0,119,120
 593 641 593 641 512 643 c 0,121,122
 431 641 431 641 377 587 c 0,123,124
 313 522 313 522 315 416 c 0,125,126
 316 304 316 304 269 225 c 1,114,-1
512 86 m 128,-1,128
 545 86 545 86 569.5 107.5 c 128,-1,129
 594 129 594 129 599 161 c 1,130,-1
 425 161 l 1,131,132
 430 129 430 129 454.5 107.5 c 128,-1,127
 479 86 479 86 512 86 c 128,-1,128
EndSplineSet
EndChar

StartChar: uniF027
Encoding: 61479 61479 27
Width: 1024
GlyphClass: 2
Flags: W
LayerCount: 2
Fore
SplineSet
181 875 m 2,0,-1
 843 875 l 2,1,2
 883 875 883 875 911 847 c 128,-1,3
 939 819 939 819 939 779 c 2,4,-1
 939 117 l 2,5,6
 939 77 939 77 911 49 c 128,-1,7
 883 21 883 21 843 21 c 2,8,-1
 181 21 l 2,9,10
 141 21 141 21 113 49 c 128,-1,11
 85 77 85 77 85 117 c 2,12,-1
 85 779 l 2,13,14
 85 819 85 819 113 847 c 128,-1,15
 141 875 141 875 181 875 c 2,0,-1
843 811 m 2,16,-1
 181 811 l 2,17,18
 168 811 168 811 158.5 801.5 c 128,-1,19
 149 792 149 792 149 779 c 2,20,-1
 149 207 l 1,21,-1
 358 420 l 2,22,23
 369 431 369 431 380 430 c 0,24,25
 393 430 393 430 403 420 c 2,26,-1
 480 343 l 1,27,-1
 665 530 l 2,28,29
 675 540 675 540 687 540 c 0,30,31
 700 540 700 540 710 530 c 2,32,-1
 875 366 l 1,33,-1
 875 779 l 2,34,35
 875 792 875 792 865.5 801.5 c 128,-1,36
 856 811 856 811 843 811 c 2,16,-1
378 671 m 0,37,38
 351 671 351 671 332 652 c 128,-1,39
 313 633 313 633 313 605 c 0,40,41
 313 578 313 578 332 559 c 128,-1,42
 351 540 351 540 378 540 c 0,43,44
 406 540 406 540 425 559 c 128,-1,45
 444 578 444 578 444 605 c 0,46,47
 444 633 444 633 425 652 c 128,-1,48
 406 671 406 671 378 671 c 0,37,38
739 85 m 1,49,-1
 843 85 l 2,50,51
 856 85 856 85 865.5 94.5 c 128,-1,52
 875 104 875 104 875 117 c 2,53,-1
 875 275 l 1,54,-1
 688 462 l 1,55,-1
 526 298 l 1,56,-1
 739 85 l 1,49,-1
381 352 m 1,57,-1
 150 116 l 1,58,59
 150 103 150 103 159 94 c 128,-1,60
 168 85 168 85 181 85 c 2,61,-1
 649 85 l 1,62,-1
 381 352 l 1,57,-1
EndSplineSet
EndChar

StartChar: uniF028
Encoding: 61480 61480 28
Width: 1024
GlyphClass: 2
Flags: W
LayerCount: 2
Fore
SplineSet
149 874 m 2,0,-1
 875 874 l 2,1,2
 915 874 915 874 943 846 c 128,-1,3
 971 818 971 818 971 778 c 2,4,-1
 971 116 l 2,5,6
 971 76 971 76 943 48.5 c 128,-1,7
 915 21 915 21 875 21 c 2,8,-1
 149 21 l 2,9,10
 109 21 109 21 81 48.5 c 128,-1,11
 53 76 53 76 53 116 c 2,12,-1
 53 778 l 2,13,14
 53 818 53 818 81 846 c 128,-1,15
 109 874 109 874 149 874 c 2,0,-1
907 116 m 2,16,-1
 907 778 l 2,17,18
 907 791 907 791 897.5 800.5 c 128,-1,19
 888 810 888 810 875 810 c 2,20,-1
 149 810 l 2,21,22
 136 810 136 810 126.5 800.5 c 128,-1,23
 117 791 117 791 117 778 c 2,24,-1
 117 116 l 2,25,26
 117 103 117 103 126.5 94 c 128,-1,27
 136 85 136 85 149 85 c 2,28,-1
 875 85 l 2,29,30
 888 85 888 85 897.5 94 c 128,-1,31
 907 103 907 103 907 116 c 2,16,-1
346 516 m 0,32,33
 318 516 318 516 297.5 495 c 128,-1,34
 277 474 277 474 277 448 c 0,35,36
 277 419 277 419 297 399.5 c 128,-1,37
 317 380 317 380 346 380 c 0,38,39
 362 380 362 380 380 388 c 1,40,-1
 380 414 l 1,41,-1
 329 414 l 1,42,-1
 329 465 l 1,43,-1
 448 465 l 1,44,-1
 448 358 l 1,45,46
 406 311 406 311 346 311 c 0,47,48
 288 311 288 311 248.5 350.5 c 128,-1,49
 209 390 209 390 209 448 c 128,-1,50
 209 506 209 506 248.5 545.5 c 128,-1,51
 288 585 288 585 346 585 c 0,52,53
 406 585 406 585 448 538 c 1,54,-1
 397 495 l 1,55,56
 376 516 376 516 346 516 c 0,32,33
499 311 m 1,57,-1
 572 311 l 1,58,-1
 572 585 l 1,59,-1
 499 585 l 1,60,-1
 499 311 l 1,57,-1
695 512 m 1,61,-1
 695 469 l 1,62,-1
 781 469 l 1,63,-1
 781 397 l 1,64,-1
 695 397 l 1,65,-1
 695 311 l 1,66,-1
 623 311 l 1,67,-1
 623 585 l 1,68,-1
 811 585 l 1,69,-1
 811 512 l 1,70,-1
 695 512 l 1,61,-1
EndSplineSet
EndChar

StartChar: uniF029
Encoding: 61481 61481 29
Width: 1024
GlyphClass: 2
Flags: W
LayerCount: 2
Fore
SplineSet
1015 866 m 1,0,-1
 1015 862 l 2,1,2
 1017 859 1017 859 1018 840 c 128,-1,3
 1019 821 1019 821 1016.5 791.5 c 128,-1,4
 1014 762 1014 762 1007 731.5 c 128,-1,5
 1000 701 1000 701 982 669.5 c 128,-1,6
 964 638 964 638 938 619 c 0,7,8
 886 585 886 585 810 567 c 1,9,10
 724 552 724 552 661 495 c 1,11,12
 703 482 703 482 734 482 c 2,13,-1
 823 491 l 1,14,15
 821 487 821 487 815.5 479.5 c 128,-1,16
 810 472 810 472 788 451 c 128,-1,17
 766 430 766 430 737 411.5 c 128,-1,18
 708 393 708 393 656 371.5 c 128,-1,19
 604 350 604 350 542 337 c 1,20,21
 513 314 513 314 482.5 279 c 128,-1,22
 452 244 452 244 426 208 c 128,-1,23
 400 172 400 172 374.5 133 c 128,-1,24
 349 94 349 94 329.5 60.5 c 128,-1,25
 310 27 310 27 294 0.5 c 128,-1,26
 278 -26 278 -26 268.5 -41 c 128,-1,27
 259 -56 259 -56 256 -55 c 0,28,29
 251 -55 251 -55 249.5 -43 c 128,-1,30
 248 -31 248 -31 253.5 0.5 c 128,-1,31
 259 32 259 32 273 77.5 c 128,-1,32
 287 123 287 123 319 199 c 128,-1,33
 351 275 351 275 397 367 c 0,34,35
 442 458 442 458 500.5 535 c 128,-1,36
 559 612 559 612 615 662 c 128,-1,37
 671 712 671 712 730.5 751 c 128,-1,38
 790 790 790 790 837.5 811 c 128,-1,39
 885 832 885 832 926.5 845 c 128,-1,40
 968 858 968 858 987.5 862 c 128,-1,41
 1007 866 1007 866 1011 866 c 2,42,-1
 1015 866 l 1,0,-1
239 653 m 1,43,-1
 375 653 l 2,44,45
 418 653 418 653 418 623 c 0,46,47
 418 608 418 608 407.5 598.5 c 128,-1,48
 397 589 397 589 384 589 c 2,49,-1
 243 589 l 1,50,-1
 243 444 l 2,51,52
 243 410 243 410 209 410 c 0,53,54
 194 410 194 410 184.5 420.5 c 128,-1,55
 175 431 175 431 175 444 c 2,56,-1
 175 585 l 1,57,-1
 34 585 l 2,58,59
 0 585 0 585 0 619 c 0,60,61
 0 634 0 634 10.5 643.5 c 128,-1,62
 21 653 21 653 34 653 c 2,63,-1
 175 653 l 1,64,-1
 175 794 l 2,65,66
 175 828 175 828 205 828 c 0,67,68
 220 828 220 828 229.5 817.5 c 128,-1,69
 239 807 239 807 239 794 c 2,70,-1
 239 653 l 1,43,-1
EndSplineSet
EndChar

StartChar: uniF030
Encoding: 61488 61488 30
Width: 1024
GlyphClass: 2
Flags: W
LayerCount: 2
Fore
SplineSet
977 689 m 0,0,1
 996 679 996 679 996 660 c 2,2,-1
 996 191 l 2,3,4
 996 171 996 171 977 162 c 0,5,6
 971 159 971 159 963 159 c 0,7,8
 951 159 951 159 943 166 c 2,9,-1
 827 260 l 1,10,-1
 827 116 l 2,11,12
 827 76 827 76 799 48 c 128,-1,13
 771 20 771 20 731 20 c 2,14,-1
 135 20 l 2,15,16
 95 20 95 20 67 48 c 128,-1,17
 39 76 39 76 39 116 c 2,18,-1
 39 735 l 2,19,20
 39 774 39 774 67 802.5 c 128,-1,21
 95 831 95 831 135 831 c 2,22,-1
 731 831 l 2,23,24
 771 831 771 831 799 802.5 c 128,-1,25
 827 774 827 774 827 735 c 2,26,-1
 827 591 l 1,27,-1
 943 685 l 2,28,29
 959 697 959 697 977 689 c 0,0,1
763 116 m 2,30,-1
 763 735 l 2,31,32
 763 748 763 748 753.5 757.5 c 128,-1,33
 744 767 744 767 731 767 c 2,34,-1
 135 767 l 2,35,36
 122 767 122 767 112.5 757.5 c 128,-1,37
 103 748 103 748 103 735 c 2,38,-1
 103 116 l 2,39,40
 103 102 103 102 112.5 93 c 128,-1,41
 122 84 122 84 135 84 c 2,42,-1
 731 84 l 2,43,44
 744 84 744 84 753.5 93.5 c 128,-1,45
 763 103 763 103 763 116 c 2,30,-1
433 218 m 128,-1,47
 518 218 518 218 579 279 c 128,-1,48
 640 340 640 340 640 425 c 0,49,50
 640 511 640 511 579.5 572 c 128,-1,51
 519 633 519 633 433 633 c 128,-1,52
 347 633 347 633 286.5 572 c 128,-1,53
 226 511 226 511 226 425 c 0,54,55
 226 340 226 340 287 279 c 128,-1,46
 348 218 348 218 433 218 c 128,-1,47
932 593 m 1,56,-1
 827 508 l 1,57,-1
 827 342 l 1,58,-1
 932 258 l 1,59,-1
 932 593 l 1,56,-1
433 569 m 128,-1,61
 492 569 492 569 534 526.5 c 128,-1,62
 576 484 576 484 576 425 c 128,-1,63
 576 366 576 366 534 324 c 128,-1,64
 492 282 492 282 433 282 c 128,-1,65
 374 282 374 282 332 324 c 128,-1,66
 290 366 290 366 290 425 c 128,-1,67
 290 484 290 484 332 526.5 c 128,-1,60
 374 569 374 569 433 569 c 128,-1,61
EndSplineSet
EndChar

StartChar: uniF031
Encoding: 61489 61489 31
Width: 1024
GlyphClass: 2
Flags: W
LayerCount: 2
Fore
SplineSet
883 504 m 0,0,1
 883 381 883 381 809 281 c 1,2,-1
 808 281 l 1,3,-1
 808 280 l 1,4,5
 792 259 792 259 764 231 c 128,-1,6
 736 203 736 203 707.5 177 c 128,-1,7
 679 151 679 151 647 123.5 c 128,-1,8
 615 96 615 96 591.5 77 c 128,-1,9
 568 58 568 58 550 43 c 2,10,-1
 532 28 l 2,11,12
 522 21 522 21 512 21 c 128,-1,13
 502 21 502 21 492 28 c 2,14,-1
 474 43 l 2,15,16
 456 58 456 58 432.5 77 c 128,-1,17
 409 96 409 96 377 123.5 c 128,-1,18
 345 151 345 151 316.5 177.5 c 128,-1,19
 288 204 288 204 260 232 c 128,-1,20
 232 260 232 260 216 281 c 0,21,22
 141 380 141 380 141 504 c 0,23,24
 141 657 141 657 250 766 c 128,-1,25
 359 875 359 875 512 875 c 0,26,27
 666 875 666 875 774.5 766 c 128,-1,28
 883 657 883 657 883 504 c 0,0,1
512 94 m 1,29,30
 706 255 706 255 758 320 c 0,31,32
 819 401 819 401 819 504 c 0,33,34
 819 631 819 631 729 721 c 128,-1,35
 639 811 639 811 512 811 c 128,-1,36
 385 811 385 811 295 721 c 128,-1,37
 205 631 205 631 205 504 c 0,38,39
 205 401 205 401 266 320 c 0,40,41
 318 255 318 255 512 94 c 1,29,30
512 349 m 128,-1,43
 579 349 579 349 626.5 396.5 c 128,-1,44
 674 444 674 444 674 511 c 128,-1,45
 674 578 674 578 626.5 625 c 128,-1,46
 579 672 579 672 512 672 c 128,-1,47
 445 672 445 672 397.5 625 c 128,-1,48
 350 578 350 578 350 511 c 128,-1,49
 350 444 350 444 397.5 396.5 c 128,-1,42
 445 349 445 349 512 349 c 128,-1,43
512 608 m 128,-1,51
 553 608 553 608 581.5 579.5 c 128,-1,52
 610 551 610 551 610 511 c 0,53,54
 610 470 610 470 581 441.5 c 128,-1,55
 552 413 552 413 512 413 c 128,-1,56
 472 413 472 413 443 441.5 c 128,-1,57
 414 470 414 470 414 511 c 0,58,59
 414 551 414 551 442.5 579.5 c 128,-1,50
 471 608 471 608 512 608 c 128,-1,51
EndSplineSet
EndChar

StartChar: uniF032
Encoding: 61490 61490 32
Width: 1024
GlyphClass: 2
Flags: W
LayerCount: 2
Fore
SplineSet
512 -11 m 128,-1,1
 636 -11 636 -11 742 50.5 c 128,-1,2
 848 112 848 112 909.5 218 c 128,-1,3
 971 324 971 324 971 448 c 128,-1,4
 971 572 971 572 909.5 678 c 128,-1,5
 848 784 848 784 742 845.5 c 128,-1,6
 636 907 636 907 512 907 c 128,-1,7
 388 907 388 907 282 845.5 c 128,-1,8
 176 784 176 784 114.5 678 c 128,-1,9
 53 572 53 572 53 448 c 128,-1,10
 53 324 53 324 114.5 218 c 128,-1,11
 176 112 176 112 282 50.5 c 128,-1,0
 388 -11 388 -11 512 -11 c 128,-1,1
EndSplineSet
EndChar

StartChar: uniF033
Encoding: 61491 61491 33
Width: 1024
GlyphClass: 2
Flags: W
LayerCount: 2
Fore
SplineSet
512 -11 m 128,-1,1
 636 -11 636 -11 742 50.5 c 128,-1,2
 848 112 848 112 909.5 218 c 128,-1,3
 971 324 971 324 971 448 c 128,-1,4
 971 572 971 572 909.5 678 c 128,-1,5
 848 784 848 784 742 845.5 c 128,-1,6
 636 907 636 907 512 907 c 128,-1,7
 388 907 388 907 282 845.5 c 128,-1,8
 176 784 176 784 114.5 678 c 128,-1,9
 53 572 53 572 53 448 c 128,-1,10
 53 324 53 324 114.5 218 c 128,-1,11
 176 112 176 112 282 50.5 c 128,-1,0
 388 -11 388 -11 512 -11 c 128,-1,1
512 843 m 128,-1,13
 676 843 676 843 791.5 727.5 c 128,-1,14
 907 612 907 612 907 448 c 128,-1,15
 907 284 907 284 791.5 168.5 c 128,-1,16
 676 53 676 53 512 53 c 128,-1,17
 348 53 348 53 232.5 168.5 c 128,-1,18
 117 284 117 284 117 448 c 128,-1,19
 117 612 117 612 232.5 727.5 c 128,-1,12
 348 843 348 843 512 843 c 128,-1,13
395 620 m 128,-1,21
 369 620 369 620 350.5 601 c 128,-1,22
 332 582 332 582 332 556 c 128,-1,23
 332 530 332 530 350.5 511.5 c 128,-1,24
 369 493 369 493 395 493 c 128,-1,25
 421 493 421 493 439.5 511.5 c 128,-1,26
 458 530 458 530 458 556 c 128,-1,27
 458 582 458 582 439.5 601 c 128,-1,20
 421 620 421 620 395 620 c 128,-1,21
629 620 m 128,-1,29
 603 620 603 620 584.5 601 c 128,-1,30
 566 582 566 582 566 556 c 128,-1,31
 566 530 566 530 584.5 511.5 c 128,-1,32
 603 493 603 493 629 493 c 128,-1,33
 655 493 655 493 673.5 511.5 c 128,-1,34
 692 530 692 530 692 556 c 128,-1,35
 692 582 692 582 673.5 601 c 128,-1,28
 655 620 655 620 629 620 c 128,-1,29
512 230 m 128,-1,37
 573 230 573 230 625.5 258.5 c 128,-1,38
 678 287 678 287 711 338 c 0,39,40
 718 349 718 349 715 362 c 128,-1,41
 712 375 712 375 701 382 c 128,-1,42
 690 389 690 389 677.5 386.5 c 128,-1,43
 665 384 665 384 657 373 c 0,44,45
 606 294 606 294 512 294 c 128,-1,46
 418 294 418 294 367 373 c 0,47,48
 360 384 360 384 347 387 c 128,-1,49
 334 390 334 390 323 382 c 0,50,51
 312 375 312 375 309 362 c 128,-1,52
 306 349 306 349 313 338 c 0,53,54
 346 287 346 287 398.5 258.5 c 128,-1,36
 451 230 451 230 512 230 c 128,-1,37
EndSplineSet
EndChar

StartChar: uniF034
Encoding: 61492 61492 34
Width: 1024
GlyphClass: 2
Flags: W
LayerCount: 2
Fore
SplineSet
149 505 m 1,0,-1
 863 505 l 2,1,2
 875 505 875 505 875 493 c 2,3,-1
 875 395 l 2,4,5
 875 383 875 383 863 383 c 2,6,-1
 149 383 l 1,7,-1
 149 319 l 1,8,-1
 600 319 l 2,9,10
 604 319 604 319 608 315.5 c 128,-1,11
 612 312 612 312 612 307 c 2,12,-1
 612 208 l 2,13,14
 612 204 612 204 608 200 c 128,-1,15
 604 196 604 196 600 196 c 2,16,-1
 149 196 l 1,17,-1
 149 71 l 2,18,19
 149 58 149 58 139.5 48.5 c 128,-1,20
 130 39 130 39 117 39 c 128,-1,21
 104 39 104 39 94.5 48.5 c 128,-1,22
 85 58 85 58 85 71 c 2,23,-1
 85 817 l 2,24,25
 85 830 85 830 94.5 839.5 c 128,-1,26
 104 849 104 849 117 849 c 128,-1,27
 130 849 130 849 139.5 839.5 c 128,-1,28
 149 830 149 830 149 817 c 2,29,-1
 149 691 l 1,30,-1
 731 691 l 2,31,32
 743 691 743 691 743 680 c 2,33,-1
 743 581 l 2,34,35
 743 569 743 569 731 569 c 2,36,-1
 149 569 l 1,37,-1
 149 505 l 1,0,-1
EndSplineSet
EndChar

StartChar: uniF035
Encoding: 61493 61493 35
Width: 1024
GlyphClass: 2
Flags: W
LayerCount: 2
Fore
SplineSet
889 821 m 1,0,-1
 992 821 l 2,1,2
 1006 821 1006 821 1015 811.5 c 128,-1,3
 1024 802 1024 802 1024 789 c 128,-1,4
 1024 776 1024 776 1014.5 766.5 c 128,-1,5
 1005 757 1005 757 992 757 c 2,6,-1
 889 757 l 1,7,-1
 889 654 l 2,8,9
 889 641 889 641 879.5 631.5 c 128,-1,10
 870 622 870 622 857 622 c 128,-1,11
 844 622 844 622 834.5 631 c 128,-1,12
 825 640 825 640 825 654 c 2,13,-1
 825 757 l 1,14,-1
 721 757 l 2,15,16
 708 757 708 757 698.5 766.5 c 128,-1,17
 689 776 689 776 689 789 c 128,-1,18
 689 802 689 802 698.5 811.5 c 128,-1,19
 708 821 708 821 721 821 c 2,20,-1
 825 821 l 1,21,-1
 825 925 l 2,22,23
 825 938 825 938 834.5 947.5 c 128,-1,24
 844 957 844 957 857 957 c 128,-1,25
 870 957 870 957 879.5 947.5 c 128,-1,26
 889 938 889 938 889 925 c 2,27,-1
 889 821 l 1,0,-1
857 528 m 128,-1,29
 870 528 870 528 879.5 518.5 c 128,-1,30
 889 509 889 509 889 496 c 2,31,-1
 889 151 l 2,32,33
 889 111 889 111 860.5 83 c 128,-1,34
 832 55 832 55 793 55 c 2,35,-1
 175 55 l 2,36,37
 135 55 135 55 107 83 c 128,-1,38
 79 111 79 111 79 151 c 2,39,-1
 79 725 l 2,40,41
 79 765 79 765 107 793 c 128,-1,42
 135 821 135 821 175 821 c 2,43,-1
 563 821 l 2,44,45
 576 821 576 821 585.5 811.5 c 128,-1,46
 595 802 595 802 595 789 c 128,-1,47
 595 776 595 776 585.5 766.5 c 128,-1,48
 576 757 576 757 563 757 c 2,49,-1
 175 757 l 2,50,51
 162 757 162 757 152.5 747.5 c 128,-1,52
 143 738 143 738 143 725 c 2,53,-1
 143 681 l 1,54,-1
 466 465 l 2,55,56
 483 454 483 454 501 465 c 2,57,-1
 694 593 l 2,58,59
 705 600 705 600 717.5 598 c 128,-1,60
 730 596 730 596 737 585 c 128,-1,61
 744 574 744 574 742 561.5 c 128,-1,62
 740 549 740 549 729 542 c 2,63,-1
 535 413 l 2,64,65
 511 397 511 397 484 397 c 0,66,67
 458 397 458 397 432 413 c 2,68,-1
 143 606 l 1,69,-1
 143 151 l 2,70,71
 143 138 143 138 152.5 128.5 c 128,-1,72
 162 119 162 119 175 119 c 2,73,-1
 793 119 l 2,74,75
 806 119 806 119 815.5 128.5 c 128,-1,76
 825 138 825 138 825 151 c 2,77,-1
 825 496 l 2,78,79
 825 510 825 510 834.5 519 c 128,-1,28
 844 528 844 528 857 528 c 128,-1,29
EndSplineSet
EndChar

StartChar: uniF036
Encoding: 61494 61494 36
Width: 1024
GlyphClass: 2
Flags: W
LayerCount: 2
Fore
SplineSet
383 22 m 0,0,1
 397 23 397 23 407 35 c 2,2,-1
 933 781 l 2,3,4
 941 791 941 791 938.5 804.5 c 128,-1,5
 936 818 936 818 925 826 c 0,6,7
 914 833 914 833 901.5 831 c 128,-1,8
 889 829 889 829 881 818 c 2,9,-1
 376 103 l 1,10,-1
 157 323 l 2,11,12
 147 333 147 333 134 333 c 128,-1,13
 121 333 121 333 111 323 c 0,14,15
 102 314 102 314 102 300.5 c 128,-1,16
 102 287 102 287 111 278 c 2,17,-1
 358 31 l 2,18,19
 367 22 367 22 383 22 c 0,0,1
117 680 m 2,20,-1
 600 680 l 2,21,22
 613 680 613 680 622.5 689.5 c 128,-1,23
 632 699 632 699 632 712 c 128,-1,24
 632 725 632 725 622.5 734.5 c 128,-1,25
 613 744 613 744 600 744 c 2,26,-1
 117 744 l 2,27,28
 104 744 104 744 94.5 734.5 c 128,-1,29
 85 725 85 725 85 712 c 128,-1,30
 85 699 85 699 94.5 689.5 c 128,-1,31
 104 680 104 680 117 680 c 2,20,-1
117 504 m 2,32,-1
 424 504 l 2,33,34
 437 504 437 504 446.5 513.5 c 128,-1,35
 456 523 456 523 456 536 c 0,36,37
 456 550 456 550 447 559 c 128,-1,38
 438 568 438 568 424 568 c 2,39,-1
 117 568 l 2,40,41
 104 568 104 568 94.5 558.5 c 128,-1,42
 85 549 85 549 85 536 c 128,-1,43
 85 523 85 523 94.5 513.5 c 128,-1,44
 104 504 104 504 117 504 c 2,32,-1
EndSplineSet
EndChar

StartChar: uniF037
Encoding: 61495 61495 37
Width: 1024
GlyphClass: 2
Flags: W
LayerCount: 2
Fore
SplineSet
127 200 m 0,0,1
 111 200 111 200 102 213 c 0,2,3
 94 224 94 224 95.5 236.5 c 128,-1,4
 97 249 97 249 108 257 c 0,5,6
 112 260 112 260 119 267 c 128,-1,7
 126 274 126 274 141.5 296 c 128,-1,8
 157 318 157 318 168.5 345 c 128,-1,9
 180 372 180 372 189.5 417.5 c 128,-1,10
 199 463 199 463 198 515 c 0,11,12
 196 682 196 682 298 785 c 0,13,14
 389 876 389 876 522 878 c 0,15,16
 631 876 631 876 713 814 c 0,17,18
 724 806 724 806 726 792.5 c 128,-1,19
 728 779 728 779 720 769 c 0,20,21
 710 756 710 756 694 756 c 0,22,23
 682 756 682 756 675 763 c 0,24,25
 609 812 609 812 522 814 c 0,26,27
 415 812 415 812 344 740 c 0,28,29
 260 656 260 656 262 515 c 0,30,31
 263 454 263 454 251 399.5 c 128,-1,32
 239 345 239 345 224.5 313 c 128,-1,33
 210 281 210 281 189 253.5 c 128,-1,34
 168 226 168 226 160.5 219 c 128,-1,35
 153 212 153 212 146 206 c 0,36,37
 138 200 138 200 127 200 c 0,0,1
949 864 m 0,38,39
 958 854 958 854 958 841 c 128,-1,40
 958 828 958 828 949 818 c 2,41,-1
 153 22 l 2,42,43
 144 13 144 13 130 13 c 0,44,45
 117 13 117 13 108 22 c 0,46,47
 98 32 98 32 98 45 c 128,-1,48
 98 58 98 58 108 68 c 2,49,-1
 904 864 l 2,50,51
 913 873 913 873 926 873 c 128,-1,52
 939 873 939 873 949 864 c 0,38,39
846 515 m 0,53,54
 846 463 846 463 855 417.5 c 128,-1,55
 864 372 864 372 876 345 c 128,-1,56
 888 318 888 318 903 296 c 128,-1,57
 918 274 918 274 925 267 c 128,-1,58
 932 260 932 260 936 257 c 0,59,60
 954 244 954 244 947 222 c 128,-1,61
 940 200 940 200 917 200 c 2,62,-1
 707 200 l 1,63,64
 703 125 703 125 650 73.5 c 128,-1,65
 597 22 597 22 522 22 c 0,66,67
 473 22 473 22 431 46 c 128,-1,68
 389 70 389 70 364 111 c 0,69,70
 357 123 357 123 360 135.5 c 128,-1,71
 363 148 363 148 374 155 c 128,-1,72
 385 162 385 162 398 159 c 128,-1,73
 411 156 411 156 418 145 c 0,74,75
 453 86 453 86 522 86 c 0,76,77
 570 86 570 86 604.5 119 c 128,-1,78
 639 152 639 152 643 200 c 1,79,-1
 493 200 l 2,80,81
 480 200 480 200 470.5 209 c 128,-1,82
 461 218 461 218 461 232 c 0,83,84
 461 245 461 245 470.5 254.5 c 128,-1,85
 480 264 480 264 493 264 c 2,86,-1
 847 264 l 1,87,88
 781 367 781 367 782 515 c 0,89,90
 782 533 782 533 781 542 c 0,91,92
 781 555 781 555 790 565 c 128,-1,93
 799 575 799 575 812 576 c 128,-1,94
 825 577 825 577 834.5 568 c 128,-1,95
 844 559 844 559 845 546 c 0,96,97
 846 535 846 535 846 515 c 0,53,54
EndSplineSet
EndChar

StartChar: uniF038
Encoding: 61496 61496 38
Width: 1024
GlyphClass: 2
Flags: W
LayerCount: 2
Fore
SplineSet
821 875 m 128,-1,1
 834 875 834 875 843.5 865.5 c 128,-1,2
 853 856 853 856 853 843 c 2,3,-1
 853 53 l 2,4,5
 853 40 853 40 843.5 30.5 c 128,-1,6
 834 21 834 21 821 21 c 128,-1,7
 808 21 808 21 798.5 30.5 c 128,-1,8
 789 40 789 40 789 53 c 2,9,-1
 789 353 l 1,10,11
 745 374 745 374 695 374 c 0,12,13
 646 374 646 374 532 342 c 0,14,15
 411 307 411 307 350 307 c 0,16,17
 272 307 272 307 208 345 c 0,18,19
 192 355 192 355 192 373 c 2,20,-1
 192 789 l 2,21,22
 192 807 192 807 208 817 c 128,-1,23
 224 827 224 827 240 817 c 0,24,25
 289 788 289 788 350 788 c 0,26,27
 407 788 407 788 514 820 c 0,28,29
 633 855 633 855 695 855 c 0,30,31
 743 855 743 855 789 839 c 1,32,-1
 789 843 l 2,33,34
 789 856 789 856 798.5 865.5 c 128,-1,0
 808 875 808 875 821 875 c 128,-1,1
695 438 m 0,35,36
 746 438 746 438 789 423 c 1,37,-1
 789 770 l 1,38,39
 745 791 745 791 695 791 c 0,40,41
 646 791 646 791 532 759 c 0,42,43
 417 724 417 724 350 724 c 0,44,45
 301 724 301 724 256 739 c 1,46,-1
 256 392 l 1,47,48
 300 371 300 371 350 371 c 128,-1,49
 400 371 400 371 514 403 c 0,50,51
 633 438 633 438 695 438 c 0,35,36
EndSplineSet
EndChar

StartChar: uniF040
Encoding: 61504 61504 39
Width: 1024
GlyphClass: 2
Flags: W
LayerCount: 2
Fore
SplineSet
512 -11 m 128,-1,1
 636 -11 636 -11 742 50.5 c 128,-1,2
 848 112 848 112 909.5 218 c 128,-1,3
 971 324 971 324 971 448 c 128,-1,4
 971 572 971 572 909.5 678 c 128,-1,5
 848 784 848 784 742 845.5 c 128,-1,6
 636 907 636 907 512 907 c 128,-1,7
 388 907 388 907 282 845.5 c 128,-1,8
 176 784 176 784 114.5 678 c 128,-1,9
 53 572 53 572 53 448 c 128,-1,10
 53 324 53 324 114.5 218 c 128,-1,11
 176 112 176 112 282 50.5 c 128,-1,0
 388 -11 388 -11 512 -11 c 128,-1,1
512 843 m 128,-1,13
 676 843 676 843 791.5 727.5 c 128,-1,14
 907 612 907 612 907 448 c 128,-1,15
 907 284 907 284 791.5 168.5 c 128,-1,16
 676 53 676 53 512 53 c 128,-1,17
 348 53 348 53 232.5 168.5 c 128,-1,18
 117 284 117 284 117 448 c 128,-1,19
 117 612 117 612 232.5 727.5 c 128,-1,12
 348 843 348 843 512 843 c 128,-1,13
428 629 m 2,20,-1
 684 466 l 2,21,22
 694 459 694 459 694 448 c 128,-1,23
 694 437 694 437 684 430 c 2,24,-1
 428 267 l 2,25,26
 424 264 424 264 417 264 c 2,27,-1
 406 266 l 1,28,29
 395 273 395 273 395 285 c 2,30,-1
 395 611 l 2,31,32
 395 623 395 623 406 630 c 0,33,34
 418 635 418 635 428 629 c 2,20,-1
EndSplineSet
EndChar

StartChar: uniF042
Encoding: 61506 61506 40
Width: 1024
GlyphClass: 2
Flags: W
LayerCount: 2
Fore
SplineSet
512 -11 m 128,-1,1
 636 -11 636 -11 742 50.5 c 128,-1,2
 848 112 848 112 909.5 218 c 128,-1,3
 971 324 971 324 971 448 c 128,-1,4
 971 572 971 572 909.5 678 c 128,-1,5
 848 784 848 784 742 845.5 c 128,-1,6
 636 907 636 907 512 907 c 128,-1,7
 388 907 388 907 282 845.5 c 128,-1,8
 176 784 176 784 114.5 678 c 128,-1,9
 53 572 53 572 53 448 c 128,-1,10
 53 324 53 324 114.5 218 c 128,-1,11
 176 112 176 112 282 50.5 c 128,-1,0
 388 -11 388 -11 512 -11 c 128,-1,1
512 843 m 128,-1,13
 676 843 676 843 791.5 727.5 c 128,-1,14
 907 612 907 612 907 448 c 128,-1,15
 907 284 907 284 791.5 168.5 c 128,-1,16
 676 53 676 53 512 53 c 128,-1,17
 348 53 348 53 232.5 168.5 c 128,-1,18
 117 284 117 284 117 448 c 128,-1,19
 117 612 117 612 232.5 727.5 c 128,-1,12
 348 843 348 843 512 843 c 128,-1,13
614 653 m 0,20,21
 620 645 620 645 617 634 c 2,22,-1
 540 374 l 2,23,24
 535 359 535 359 519 359 c 2,25,-1
 507 359 l 2,26,27
 491 359 491 359 486 374 c 2,28,-1
 409 634 l 2,29,30
 406 645 406 645 412 653 c 0,31,32
 419 662 419 662 429 662 c 2,33,-1
 597 662 l 2,34,35
 607 662 607 662 614 653 c 0,20,21
513 313 m 128,-1,37
 490 313 490 313 474 297 c 128,-1,38
 458 281 458 281 458 259 c 0,39,40
 458 236 458 236 474 220 c 128,-1,41
 490 204 490 204 513 204 c 128,-1,42
 536 204 536 204 552 220 c 128,-1,43
 568 236 568 236 568 259 c 0,44,45
 568 281 568 281 552 297 c 128,-1,36
 536 313 536 313 513 313 c 128,-1,37
EndSplineSet
EndChar

StartChar: uniF043
Encoding: 61507 61507 41
Width: 1024
GlyphClass: 2
Flags: W
LayerCount: 2
Fore
SplineSet
512 -11 m 128,-1,1
 636 -11 636 -11 742 50.5 c 128,-1,2
 848 112 848 112 909.5 218 c 128,-1,3
 971 324 971 324 971 448 c 128,-1,4
 971 572 971 572 909.5 678 c 128,-1,5
 848 784 848 784 742 845.5 c 128,-1,6
 636 907 636 907 512 907 c 128,-1,7
 388 907 388 907 282 845.5 c 128,-1,8
 176 784 176 784 114.5 678 c 128,-1,9
 53 572 53 572 53 448 c 128,-1,10
 53 324 53 324 114.5 218 c 128,-1,11
 176 112 176 112 282 50.5 c 128,-1,0
 388 -11 388 -11 512 -11 c 128,-1,1
512 843 m 128,-1,13
 676 843 676 843 791.5 727.5 c 128,-1,14
 907 612 907 612 907 448 c 128,-1,15
 907 284 907 284 791.5 168.5 c 128,-1,16
 676 53 676 53 512 53 c 128,-1,17
 348 53 348 53 232.5 168.5 c 128,-1,18
 117 284 117 284 117 448 c 128,-1,19
 117 612 117 612 232.5 727.5 c 128,-1,12
 348 843 348 843 512 843 c 128,-1,13
677 622 m 0,20,21
 688 615 688 615 691 602 c 128,-1,22
 694 589 694 589 686 578 c 2,23,-1
 501 294 l 1,24,-1
 483 269 l 2,25,26
 474 259 474 259 461 259 c 0,27,28
 447 259 447 259 438 269 c 2,29,-1
 323 384 l 2,30,31
 313 393 313 393 313 406.5 c 128,-1,32
 313 420 313 420 323 429 c 0,33,34
 332 439 332 439 345.5 439 c 128,-1,35
 359 439 359 439 368 429 c 2,36,-1
 456 342 l 1,37,-1
 633 613 l 2,38,39
 640 624 640 624 653 627 c 128,-1,40
 666 630 666 630 677 622 c 0,20,21
EndSplineSet
EndChar

StartChar: uniF044
Encoding: 61508 61508 42
Width: 1024
GlyphClass: 2
Flags: W
LayerCount: 2
Fore
SplineSet
512 -11 m 128,-1,1
 636 -11 636 -11 742 50.5 c 128,-1,2
 848 112 848 112 909.5 218 c 128,-1,3
 971 324 971 324 971 448 c 128,-1,4
 971 572 971 572 909.5 678 c 128,-1,5
 848 784 848 784 742 845.5 c 128,-1,6
 636 907 636 907 512 907 c 128,-1,7
 388 907 388 907 282 845.5 c 128,-1,8
 176 784 176 784 114.5 678 c 128,-1,9
 53 572 53 572 53 448 c 128,-1,10
 53 324 53 324 114.5 218 c 128,-1,11
 176 112 176 112 282 50.5 c 128,-1,0
 388 -11 388 -11 512 -11 c 128,-1,1
512 843 m 128,-1,13
 676 843 676 843 791.5 727.5 c 128,-1,14
 907 612 907 612 907 448 c 128,-1,15
 907 284 907 284 791.5 168.5 c 128,-1,16
 676 53 676 53 512 53 c 128,-1,17
 348 53 348 53 232.5 168.5 c 128,-1,18
 117 284 117 284 117 448 c 128,-1,19
 117 612 117 612 232.5 727.5 c 128,-1,12
 348 843 348 843 512 843 c 128,-1,13
557 448 m 1,20,-1
 677 329 l 2,21,22
 686 319 686 319 686 306 c 128,-1,23
 686 293 686 293 677 283 c 0,24,25
 666 274 666 274 654 274 c 0,26,27
 640 274 640 274 631 283 c 2,28,-1
 512 403 l 1,29,-1
 393 283 l 2,30,31
 382 274 382 274 370 274 c 128,-1,32
 358 274 358 274 347 283 c 0,33,34
 338 293 338 293 338 306 c 128,-1,35
 338 319 338 319 347 329 c 2,36,-1
 467 448 l 1,37,-1
 348 567 l 2,38,39
 338 577 338 577 338 590 c 128,-1,40
 338 603 338 603 348 613 c 0,41,42
 357 622 357 622 370 622 c 128,-1,43
 383 622 383 622 393 613 c 2,44,-1
 512 493 l 1,45,-1
 631 612 l 2,46,47
 641 622 641 622 654 622 c 128,-1,48
 667 622 667 622 677 612 c 0,49,50
 686 603 686 603 686 590 c 128,-1,51
 686 577 686 577 677 567 c 2,52,-1
 557 448 l 1,20,-1
EndSplineSet
EndChar

StartChar: uniF045
Encoding: 61509 61509 43
Width: 1024
GlyphClass: 2
Flags: W
LayerCount: 2
Fore
SplineSet
572 448 m 1,0,-1
 819 201 l 2,1,2
 832 188 832 188 832 170.5 c 128,-1,3
 832 153 832 153 819 141 c 0,4,5
 807 128 807 128 789 128 c 0,6,7
 772 128 772 128 759 141 c 2,8,-1
 512 388 l 1,9,-1
 265 141 l 2,10,11
 253 128 253 128 235 128 c 128,-1,12
 217 128 217 128 205 141 c 0,13,14
 192 153 192 153 192 170.5 c 128,-1,15
 192 188 192 188 205 201 c 2,16,-1
 452 448 l 1,17,-1
 205 695 l 2,18,19
 192 708 192 708 192 725.5 c 128,-1,20
 192 743 192 743 205 755 c 0,21,22
 217 768 217 768 234.5 768 c 128,-1,23
 252 768 252 768 265 755 c 2,24,-1
 512 508 l 1,25,-1
 759 755 l 2,26,27
 772 768 772 768 789.5 768 c 128,-1,28
 807 768 807 768 819 755 c 0,29,30
 832 743 832 743 832 725.5 c 128,-1,31
 832 708 832 708 819 695 c 2,32,-1
 572 448 l 1,0,-1
EndSplineSet
EndChar

StartChar: uniF046
Encoding: 61510 61510 44
Width: 1024
GlyphClass: 2
Flags: W
LayerCount: 2
Fore
SplineSet
149 491 m 2,0,-1
 405 491 l 2,1,2
 432 491 432 491 450.5 509.5 c 128,-1,3
 469 528 469 528 469 555 c 2,4,-1
 469 811 l 2,5,6
 469 837 469 837 450.5 856 c 128,-1,7
 432 875 432 875 405 875 c 2,8,-1
 149 875 l 2,9,10
 123 875 123 875 104 856 c 128,-1,11
 85 837 85 837 85 811 c 2,12,-1
 85 555 l 2,13,14
 85 528 85 528 104 509.5 c 128,-1,15
 123 491 123 491 149 491 c 2,0,-1
619 491 m 2,16,-1
 875 491 l 2,17,18
 901 491 901 491 920 509.5 c 128,-1,19
 939 528 939 528 939 555 c 2,20,-1
 939 811 l 2,21,22
 939 837 939 837 920 856 c 128,-1,23
 901 875 901 875 875 875 c 2,24,-1
 619 875 l 2,25,26
 592 875 592 875 573.5 856 c 128,-1,27
 555 837 555 837 555 811 c 2,28,-1
 555 555 l 2,29,30
 555 528 555 528 573.5 509.5 c 128,-1,31
 592 491 592 491 619 491 c 2,16,-1
149 21 m 2,32,-1
 405 21 l 2,33,34
 432 21 432 21 450.5 40 c 128,-1,35
 469 59 469 59 469 85 c 2,36,-1
 469 341 l 2,37,38
 469 368 469 368 450.5 386.5 c 128,-1,39
 432 405 432 405 405 405 c 2,40,-1
 149 405 l 2,41,42
 123 405 123 405 104 386.5 c 128,-1,43
 85 368 85 368 85 341 c 2,44,-1
 85 85 l 2,45,46
 85 59 85 59 104 40 c 128,-1,47
 123 21 123 21 149 21 c 2,32,-1
619 21 m 2,48,-1
 875 21 l 2,49,50
 901 21 901 21 920 40 c 128,-1,51
 939 59 939 59 939 85 c 2,52,-1
 939 341 l 2,53,54
 939 368 939 368 920 386.5 c 128,-1,55
 901 405 901 405 875 405 c 2,56,-1
 619 405 l 2,57,58
 592 405 592 405 573.5 386.5 c 128,-1,59
 555 368 555 368 555 341 c 2,60,-1
 555 85 l 2,61,62
 555 59 555 59 573.5 40 c 128,-1,63
 592 21 592 21 619 21 c 2,48,-1
EndSplineSet
EndChar

StartChar: uniF047
Encoding: 61511 61511 45
Width: 1024
GlyphClass: 2
Flags: W
LayerCount: 2
Fore
SplineSet
512 907 m 128,-1,1
 636 907 636 907 742 845.5 c 128,-1,2
 848 784 848 784 909.5 678 c 128,-1,3
 971 572 971 572 971 448 c 128,-1,4
 971 324 971 324 909.5 218 c 128,-1,5
 848 112 848 112 742 50.5 c 128,-1,6
 636 -11 636 -11 512 -11 c 128,-1,7
 388 -11 388 -11 282 50.5 c 128,-1,8
 176 112 176 112 114.5 218 c 128,-1,9
 53 324 53 324 53 448 c 128,-1,10
 53 572 53 572 114.5 678 c 128,-1,11
 176 784 176 784 282 845.5 c 128,-1,0
 388 907 388 907 512 907 c 128,-1,1
395 620 m 128,-1,13
 369 620 369 620 350.5 601.5 c 128,-1,14
 332 583 332 583 332 557 c 128,-1,15
 332 531 332 531 350.5 512 c 128,-1,16
 369 493 369 493 395 493 c 128,-1,17
 421 493 421 493 439.5 512 c 128,-1,18
 458 531 458 531 458 557 c 128,-1,19
 458 583 458 583 439.5 601.5 c 128,-1,12
 421 620 421 620 395 620 c 128,-1,13
629 620 m 128,-1,21
 603 620 603 620 584.5 601.5 c 128,-1,22
 566 583 566 583 566 557 c 128,-1,23
 566 531 566 531 584.5 512 c 128,-1,24
 603 493 603 493 629 493 c 128,-1,25
 655 493 655 493 673.5 512 c 128,-1,26
 692 531 692 531 692 557 c 128,-1,27
 692 583 692 583 673.5 601.5 c 128,-1,20
 655 620 655 620 629 620 c 128,-1,21
711 338 m 0,28,29
 718 349 718 349 715 362 c 128,-1,30
 712 375 712 375 701 382 c 128,-1,31
 690 389 690 389 677.5 386.5 c 128,-1,32
 665 384 665 384 657 373 c 0,33,34
 606 294 606 294 512 294 c 128,-1,35
 418 294 418 294 367 373 c 0,36,37
 360 384 360 384 347 387 c 128,-1,38
 334 390 334 390 323 382 c 0,39,40
 312 375 312 375 309 362 c 128,-1,41
 306 349 306 349 313 338 c 0,42,43
 346 287 346 287 398.5 258.5 c 128,-1,44
 451 230 451 230 512 230 c 128,-1,45
 573 230 573 230 625.5 258.5 c 128,-1,46
 678 287 678 287 711 338 c 0,28,29
EndSplineSet
EndChar

StartChar: uniF048
Encoding: 61512 61512 46
Width: 1024
GlyphClass: 2
Flags: W
LayerCount: 2
Fore
SplineSet
149 505 m 1,0,-1
 863 505 l 2,1,2
 875 505 875 505 875 493 c 2,3,-1
 875 395 l 2,4,5
 875 383 875 383 863 383 c 2,6,-1
 149 383 l 1,7,-1
 149 319 l 1,8,-1
 600 319 l 2,9,10
 604 319 604 319 608 315.5 c 128,-1,11
 612 312 612 312 612 307 c 2,12,-1
 612 208 l 2,13,14
 612 204 612 204 608 200 c 128,-1,15
 604 196 604 196 600 196 c 2,16,-1
 149 196 l 1,17,-1
 149 71 l 2,18,19
 149 58 149 58 139.5 48.5 c 128,-1,20
 130 39 130 39 117 39 c 128,-1,21
 104 39 104 39 94.5 48.5 c 128,-1,22
 85 58 85 58 85 71 c 2,23,-1
 85 817 l 2,24,25
 85 830 85 830 94.5 839.5 c 128,-1,26
 104 849 104 849 117 849 c 128,-1,27
 130 849 130 849 139.5 839.5 c 128,-1,28
 149 830 149 830 149 817 c 2,29,-1
 149 691 l 1,30,-1
 731 691 l 2,31,32
 743 691 743 691 743 680 c 2,33,-1
 743 581 l 2,34,35
 743 569 743 569 731 569 c 2,36,-1
 149 569 l 1,37,-1
 149 505 l 1,0,-1
EndSplineSet
EndChar

StartChar: uniF052
Encoding: 61522 61522 47
Width: 1024
GlyphClass: 2
Flags: W
LayerCount: 2
Fore
SplineSet
728 647 m 1,0,-1
 896 647 l 2,1,2
 910 647 910 647 919 637.5 c 128,-1,3
 928 628 928 628 928 615 c 128,-1,4
 928 602 928 602 919 592.5 c 128,-1,5
 910 583 910 583 896 583 c 2,6,-1
 723 583 l 1,7,-1
 699 313 l 1,8,-1
 863 313 l 2,9,10
 876 313 876 313 885.5 303.5 c 128,-1,11
 895 294 895 294 895 281 c 128,-1,12
 895 268 895 268 885.5 258.5 c 128,-1,13
 876 249 876 249 863 249 c 2,14,-1
 694 249 l 1,15,-1
 677 61 l 2,16,17
 676 49 676 49 667 40.5 c 128,-1,18
 658 32 658 32 646 32 c 2,19,-1
 643 32 l 2,20,21
 629 34 629 34 621 44 c 128,-1,22
 613 54 613 54 614 67 c 2,23,-1
 630 249 l 1,24,-1
 360 249 l 1,25,-1
 344 61 l 2,26,27
 342 49 342 49 333 40.5 c 128,-1,28
 324 32 324 32 312 32 c 2,29,-1
 309 32 l 2,30,31
 295 34 295 34 287 44 c 128,-1,32
 279 54 279 54 280 67 c 2,33,-1
 296 249 l 1,34,-1
 128 249 l 2,35,36
 114 249 114 249 105 258.5 c 128,-1,37
 96 268 96 268 96 281 c 128,-1,38
 96 294 96 294 105 303.5 c 128,-1,39
 114 313 114 313 128 313 c 2,40,-1
 301 313 l 1,41,-1
 325 583 l 1,42,-1
 161 583 l 2,43,44
 148 583 148 583 138.5 592.5 c 128,-1,45
 129 602 129 602 129 615 c 128,-1,46
 129 628 129 628 138.5 637.5 c 128,-1,47
 148 647 148 647 161 647 c 2,48,-1
 330 647 l 1,49,-1
 347 835 l 2,50,51
 348 848 348 848 358 856.5 c 128,-1,52
 368 865 368 865 381 864 c 0,53,54
 395 862 395 862 403 852 c 128,-1,55
 411 842 411 842 410 829 c 2,56,-1
 394 647 l 1,57,-1
 664 647 l 1,58,-1
 680 835 l 2,59,60
 682 848 682 848 692 856.5 c 128,-1,61
 702 865 702 865 715 864 c 0,62,63
 729 862 729 862 737 852 c 128,-1,64
 745 842 745 842 744 829 c 2,65,-1
 728 647 l 1,0,-1
659 583 m 1,66,-1
 389 583 l 1,67,-1
 365 313 l 1,68,-1
 635 313 l 1,69,-1
 659 583 l 1,66,-1
EndSplineSet
EndChar

StartChar: uniF053
Encoding: 61523 61523 48
Width: 1024
GlyphClass: 2
Flags: W
LayerCount: 2
Fore
SplineSet
527 870 m 2,0,-1
 958 637 l 2,1,2
 970 631 970 631 974 618 c 128,-1,3
 978 605 978 605 971 594 c 0,4,5
 965 582 965 582 952 578 c 128,-1,6
 939 574 939 574 928 581 c 2,7,-1
 893 600 l 1,8,-1
 824 109 l 2,9,10
 816 69 816 69 784.5 44.5 c 128,-1,11
 753 20 753 20 710 20 c 2,12,-1
 314 20 l 2,13,14
 271 20 271 20 239.5 44.5 c 128,-1,15
 208 69 208 69 201 108 c 2,16,-1
 131 599 l 1,17,-1
 96 581 l 2,18,19
 89 577 89 577 81 577 c 0,20,21
 62 577 62 577 53 594 c 0,22,23
 47 605 47 605 50.5 618 c 128,-1,24
 54 631 54 631 66 637 c 2,25,-1
 497 870 l 2,26,27
 512 878 512 878 527 870 c 2,0,-1
833 632 m 1,28,-1
 512 805 l 1,29,-1
 191 632 l 1,30,-1
 264 118 l 2,31,32
 267 101 267 101 282 92.5 c 128,-1,33
 297 84 297 84 314 84 c 2,34,-1
 710 84 l 2,35,36
 727 84 727 84 742 93 c 128,-1,37
 757 102 757 102 760 119 c 2,38,-1
 833 632 l 1,28,-1
351 440 m 128,-1,40
 351 507 351 507 398 554 c 128,-1,41
 445 601 445 601 512 601 c 128,-1,42
 579 601 579 601 626 554 c 128,-1,43
 673 507 673 507 673 440 c 128,-1,44
 673 373 673 373 626 326 c 128,-1,45
 579 279 579 279 512 279 c 128,-1,46
 445 279 445 279 398 326 c 128,-1,39
 351 373 351 373 351 440 c 128,-1,40
609 440 m 128,-1,48
 609 480 609 480 580.5 508.5 c 128,-1,49
 552 537 552 537 512 537 c 128,-1,50
 472 537 472 537 443.5 508.5 c 128,-1,51
 415 480 415 480 415 440 c 128,-1,52
 415 400 415 400 443.5 371.5 c 128,-1,53
 472 343 472 343 512 343 c 128,-1,54
 552 343 552 343 580.5 371.5 c 128,-1,47
 609 400 609 400 609 440 c 128,-1,48
EndSplineSet
EndChar

StartChar: uniF054
Encoding: 61524 61524 49
Width: 1024
GlyphClass: 2
Flags: W
LayerCount: 2
Fore
SplineSet
203 831 m 2,0,-1
 821 831 l 2,1,2
 870 831 870 831 904.5 797 c 128,-1,3
 939 763 939 763 939 714 c 2,4,-1
 939 181 l 2,5,6
 939 132 939 132 904.5 97.5 c 128,-1,7
 870 63 870 63 821 63 c 2,8,-1
 203 63 l 2,9,10
 154 63 154 63 119.5 97.5 c 128,-1,11
 85 132 85 132 85 181 c 2,12,-1
 85 714 l 2,13,14
 85 763 85 763 119.5 797 c 128,-1,15
 154 831 154 831 203 831 c 2,0,-1
821 767 m 2,16,-1
 203 767 l 2,17,18
 181 767 181 767 165 751.5 c 128,-1,19
 149 736 149 736 149 714 c 2,20,-1
 149 683 l 1,21,-1
 493 455 l 2,22,23
 511 442 511 442 531 454 c 2,24,-1
 875 683 l 1,25,-1
 875 714 l 2,26,27
 875 736 875 736 859 751.5 c 128,-1,28
 843 767 843 767 821 767 c 2,16,-1
203 127 m 2,29,-1
 821 127 l 2,30,31
 844 127 844 127 859.5 142.5 c 128,-1,32
 875 158 875 158 875 181 c 2,33,-1
 875 608 l 1,34,-1
 566 402 l 2,35,36
 541 386 541 386 512 386 c 128,-1,37
 483 386 483 386 458 402 c 2,38,-1
 149 608 l 1,39,-1
 149 181 l 2,40,41
 149 158 149 158 164.5 142.5 c 128,-1,42
 180 127 180 127 203 127 c 2,29,-1
EndSplineSet
EndChar

StartChar: uniF055
Encoding: 61525 61525 50
Width: 1024
GlyphClass: 2
Flags: W
LayerCount: 2
Fore
SplineSet
926 257 m 0,0,1
 944 244 944 244 937 222 c 0,2,3
 931 200 931 200 907 200 c 2,4,-1
 697 200 l 1,5,6
 693 126 693 126 639.5 74 c 128,-1,7
 586 22 586 22 512 22 c 0,8,9
 437 22 437 22 384 73.5 c 128,-1,10
 331 125 331 125 327 200 c 1,11,-1
 117 200 l 2,12,13
 93 200 93 200 87 222 c 0,14,15
 80 244 80 244 98 257 c 0,16,17
 102 260 102 260 109 267 c 128,-1,18
 116 274 116 274 131 296 c 128,-1,19
 146 318 146 318 158 345 c 128,-1,20
 170 372 170 372 179 417.5 c 128,-1,21
 188 463 188 463 188 515 c 0,22,23
 186 682 186 682 288 785 c 0,24,25
 379 876 379 876 512 878 c 0,26,27
 645 876 645 876 736 785 c 0,28,29
 838 682 838 682 836 515 c 0,30,31
 835 464 835 464 844 419 c 128,-1,32
 853 374 853 374 864.5 347 c 128,-1,33
 876 320 876 320 891.5 297.5 c 128,-1,34
 907 275 907 275 913.5 268.5 c 128,-1,35
 920 262 920 262 926 257 c 0,0,1
187 264 m 1,36,-1
 837 264 l 1,37,38
 771 367 771 367 772 515 c 0,39,40
 774 656 774 656 690 740 c 0,41,42
 619 812 619 812 512 814 c 0,43,44
 405 812 405 812 334 740 c 0,45,46
 250 656 250 656 252 515 c 0,47,48
 253 367 253 367 187 264 c 1,36,-1
512 86 m 128,-1,50
 560 86 560 86 594.5 119 c 128,-1,51
 629 152 629 152 633 200 c 1,52,-1
 391 200 l 1,53,54
 395 152 395 152 429.5 119 c 128,-1,49
 464 86 464 86 512 86 c 128,-1,50
EndSplineSet
EndChar

StartChar: uniF056
Encoding: 61526 61526 51
Width: 1024
GlyphClass: 2
Flags: W
LayerCount: 2
Fore
SplineSet
512 456 m 128,-1,1
 394 456 394 456 348 509 c 0,2,3
 296 568 296 568 314 697 c 0,4,5
 326 787 326 787 378.5 838 c 128,-1,6
 431 889 431 889 512 889 c 128,-1,7
 593 889 593 889 645.5 838 c 128,-1,8
 698 787 698 787 710 697 c 0,9,10
 728 568 728 568 676 509 c 0,11,0
 630 456 630 456 512 456 c 128,-1,1
377 688 m 0,12,13
 364 589 364 589 396 552 c 0,14,15
 424 520 424 520 512 520 c 128,-1,16
 600 520 600 520 628 552 c 0,17,18
 660 589 660 589 647 688 c 0,19,20
 644 711 644 711 637 731.5 c 128,-1,21
 630 752 630 752 615.5 775 c 128,-1,22
 601 798 601 798 574.5 811.5 c 128,-1,23
 548 825 548 825 512 825 c 128,-1,24
 476 825 476 825 449.5 811.5 c 128,-1,25
 423 798 423 798 408.5 775 c 128,-1,26
 394 752 394 752 387 731.5 c 128,-1,27
 380 711 380 711 377 688 c 0,12,13
865 139 m 0,28,29
 878 93 878 93 848 57 c 0,30,31
 822 22 822 22 774 22 c 2,32,-1
 250 22 l 2,33,34
 202 22 202 22 176 57 c 0,35,36
 147 94 147 94 159 139 c 0,37,38
 187 252 187 252 285.5 323.5 c 128,-1,39
 384 395 384 395 512 395 c 128,-1,40
 640 395 640 395 738.5 323.5 c 128,-1,41
 837 252 837 252 865 139 c 0,28,29
798 96 m 0,42,43
 808 108 808 108 803 124 c 0,44,45
 781 215 781 215 699.5 273 c 128,-1,46
 618 331 618 331 512 331 c 128,-1,47
 406 331 406 331 324.5 273 c 128,-1,48
 243 215 243 215 221 124 c 0,49,50
 216 108 216 108 226 96 c 0,51,52
 234 85 234 85 250 85 c 2,53,-1
 774 85 l 2,54,55
 790 85 790 85 798 96 c 0,42,43
EndSplineSet
EndChar

StartChar: uniF058
Encoding: 61528 61528 52
Width: 1024
GlyphClass: 2
Flags: W
LayerCount: 2
Fore
SplineSet
762 243 m 1,0,-1
 919 87 l 2,1,2
 928 77 928 77 928 64 c 128,-1,3
 928 51 928 51 919 41 c 0,4,5
 908 32 908 32 896 32 c 128,-1,6
 884 32 884 32 873 41 c 2,7,-1
 717 198 l 1,8,9
 610 107 610 107 469 107 c 0,10,11
 310 107 310 107 197.5 219.5 c 128,-1,12
 85 332 85 332 85 491 c 128,-1,13
 85 650 85 650 197.5 762.5 c 128,-1,14
 310 875 310 875 469 875 c 128,-1,15
 628 875 628 875 740.5 762.5 c 128,-1,16
 853 650 853 650 853 491 c 0,17,18
 853 350 853 350 762 243 c 1,0,-1
149 491 m 0,19,20
 149 358 149 358 243 264.5 c 128,-1,21
 337 171 337 171 469 171 c 0,22,23
 602 171 602 171 695.5 264.5 c 128,-1,24
 789 358 789 358 789 491 c 0,25,26
 789 623 789 623 695.5 717 c 128,-1,27
 602 811 602 811 469 811 c 0,28,29
 337 811 337 811 243 717 c 128,-1,30
 149 623 149 623 149 491 c 0,19,20
EndSplineSet
EndChar

StartChar: uniF059
Encoding: 61529 61529 53
Width: 1024
GlyphClass: 2
Flags: W
LayerCount: 2
Fore
SplineSet
497 5 m 2,0,-1
 527 6 l 2,1,2
 565 6 565 6 592.5 30.5 c 128,-1,3
 620 55 620 55 624 93 c 2,4,-1
 625 100 l 2,5,6
 627 121 627 121 645 127 c 0,7,8
 663 135 663 135 679 122 c 2,9,-1
 684 118 l 2,10,11
 712 95 712 95 750 96.5 c 128,-1,12
 788 98 788 98 814 124 c 2,13,-1
 836 146 l 2,14,15
 863 173 863 173 864.5 210.5 c 128,-1,16
 866 248 866 248 842 276 c 1,17,-1
 838 282 l 2,18,19
 825 297 825 297 833 315 c 0,20,21
 839 333 839 333 860 335 c 2,22,-1
 867 336 l 2,23,24
 905 340 905 340 930 367.5 c 128,-1,25
 955 395 955 395 955 433 c 2,26,-1
 955 463 l 2,27,28
 955 501 955 501 929.5 528.5 c 128,-1,29
 904 556 904 556 866 560 c 2,30,-1
 860 561 l 2,31,32
 840 563 840 563 832 581 c 0,33,34
 825 599 825 599 838 615 c 2,35,-1
 842 620 l 2,36,37
 866 648 866 648 864.5 685.5 c 128,-1,38
 863 723 863 723 836 750 c 2,39,-1
 814 772 l 2,40,41
 788 798 788 798 750 799.5 c 128,-1,42
 712 801 712 801 684 778 c 2,43,-1
 679 774 l 2,44,45
 663 761 663 761 645 769 c 0,46,47
 628 775 628 775 624 796 c 1,48,-1
 624 803 l 1,49,50
 620 841 620 841 592.5 866 c 128,-1,51
 565 891 565 891 527 891 c 2,52,-1
 497 891 l 2,53,54
 459 891 459 891 431.5 866 c 128,-1,55
 404 841 404 841 400 803 c 2,56,-1
 399 796 l 2,57,58
 397 775 397 775 379 769 c 0,59,60
 361 761 361 761 345 774 c 2,61,-1
 340 778 l 2,62,63
 312 801 312 801 274 799.5 c 128,-1,64
 236 798 236 798 210 772 c 2,65,-1
 188 750 l 2,66,67
 161 723 161 723 159.5 685.5 c 128,-1,68
 158 648 158 648 182 620 c 2,69,-1
 186 615 l 2,70,71
 199 599 199 599 191 581 c 0,72,73
 185 563 185 563 164 561 c 2,74,-1
 157 560 l 2,75,76
 119 556 119 556 94 528.5 c 128,-1,77
 69 501 69 501 69 463 c 2,78,-1
 69 433 l 2,79,80
 69 395 69 395 94 367.5 c 128,-1,81
 119 340 119 340 157 336 c 2,82,-1
 164 335 l 2,83,84
 185 333 185 333 191 315 c 0,85,86
 199 297 199 297 186 281 c 2,87,-1
 182 276 l 2,88,89
 158 248 158 248 159.5 210.5 c 128,-1,90
 161 173 161 173 188 146 c 2,91,-1
 210 124 l 2,92,93
 236 98 236 98 274 96.5 c 128,-1,94
 312 95 312 95 340 118 c 2,95,-1
 345 122 l 2,96,97
 360 135 360 135 379 127 c 0,98,99
 397 119 397 119 399 100 c 2,100,-1
 400 93 l 2,101,102
 404 55 404 55 431.5 30 c 128,-1,103
 459 5 459 5 497 5 c 2,0,-1
366 194 m 0,104,105
 332 194 332 194 304 171 c 2,106,-1
 299 167 l 2,107,108
 291 160 291 160 278 160 c 0,109,110
 264 160 264 160 255 169 c 2,111,-1
 233 191 l 2,112,113
 212 212 212 212 231 235 c 2,114,-1
 236 240 l 1,115,116
 272 284 272 284 251 340 c 0,117,118
 228 394 228 394 170 399 c 2,119,-1
 163 400 l 2,120,121
 150 401 150 401 141.5 410 c 128,-1,122
 133 419 133 419 133 432 c 2,123,-1
 133 463 l 2,124,125
 133 476 133 476 141.5 485.5 c 128,-1,126
 150 495 150 495 163 496 c 2,127,-1
 170 497 l 2,128,129
 228 502 228 502 251 556 c 0,130,131
 273 610 273 610 236 656 c 1,132,-1
 231 661 l 2,133,134
 212 684 212 684 233 705 c 2,135,-1
 255 727 l 2,136,137
 264 736 264 736 278 736 c 0,138,139
 291 736 291 736 300 729 c 2,140,-1
 305 725 l 2,141,142
 349 687 349 687 404 710 c 0,143,144
 429 720 429 720 445 741.5 c 128,-1,145
 461 763 461 763 463 790 c 2,146,-1
 464 797 l 2,147,148
 466 810 466 810 475 818.5 c 128,-1,149
 484 827 484 827 497 827 c 2,150,-1
 528 827 l 2,151,152
 541 827 541 827 550 818.5 c 128,-1,153
 559 810 559 810 560 797 c 2,154,-1
 561 790 l 2,155,156
 566 732 566 732 621 709 c 0,157,158
 645 699 645 699 672.5 703.5 c 128,-1,159
 700 708 700 708 720 725 c 2,160,-1
 725 729 l 2,161,162
 733 736 733 736 746 736 c 0,163,164
 760 736 760 736 769 727 c 2,165,-1
 791 705 l 2,166,167
 812 684 812 684 793 661 c 2,168,-1
 789 656 l 2,169,170
 751 612 751 612 773 556 c 0,171,172
 796 502 796 502 854 497 c 2,173,-1
 861 496 l 2,174,175
 874 495 874 495 882.5 486 c 128,-1,176
 891 477 891 477 891 464 c 2,177,-1
 891 433 l 2,178,179
 891 420 891 420 882.5 410.5 c 128,-1,180
 874 401 874 401 861 400 c 2,181,-1
 854 399 l 2,182,183
 796 394 796 394 773 340 c 0,184,185
 751 283 751 283 789 241 c 1,186,-1
 793 235 l 2,187,188
 812 212 812 212 791 191 c 2,189,-1
 769 169 l 2,190,191
 760 160 760 160 746 160 c 0,192,193
 733 160 733 160 725 167 c 2,194,-1
 720 171 l 2,195,196
 676 209 676 209 620 186 c 0,197,198
 566 163 566 163 561 106 c 2,199,-1
 560 99 l 2,200,201
 559 86 559 86 550 77.5 c 128,-1,202
 541 69 541 69 528 69 c 2,203,-1
 497 69 l 2,204,205
 484 69 484 69 474.5 77.5 c 128,-1,206
 465 86 465 86 464 99 c 2,207,-1
 463 106 l 2,208,209
 458 163 458 163 403 186 c 0,210,211
 385 194 385 194 366 194 c 0,104,105
512 610 m 128,-1,213
 579 610 579 610 626.5 562.5 c 128,-1,214
 674 515 674 515 674 448 c 128,-1,215
 674 381 674 381 626.5 333.5 c 128,-1,216
 579 286 579 286 512 286 c 128,-1,217
 445 286 445 286 397.5 333.5 c 128,-1,218
 350 381 350 381 350 448 c 128,-1,219
 350 515 350 515 397.5 562.5 c 128,-1,212
 445 610 445 610 512 610 c 128,-1,213
512 350 m 128,-1,221
 552 350 552 350 581 379 c 128,-1,222
 610 408 610 408 610 448 c 128,-1,223
 610 488 610 488 581 517 c 128,-1,224
 552 546 552 546 512 546 c 128,-1,225
 472 546 472 546 443 517 c 128,-1,226
 414 488 414 488 414 448 c 128,-1,227
 414 408 414 408 443 379 c 128,-1,220
 472 350 472 350 512 350 c 128,-1,221
EndSplineSet
EndChar

StartChar: uniF063
Encoding: 61539 61539 54
Width: 1024
GlyphClass: 2
Flags: W
LayerCount: 2
Fore
SplineSet
632 21 m 2,0,-1
 635 21 l 2,1,2
 655 21 655 21 664 40 c 2,3,-1
 799 347 l 1,4,-1
 907 347 l 2,5,6
 920 347 920 347 929.5 356.5 c 128,-1,7
 939 366 939 366 939 379 c 128,-1,8
 939 392 939 392 929.5 401.5 c 128,-1,9
 920 411 920 411 907 411 c 2,10,-1
 779 411 l 2,11,12
 757 411 757 411 749 392 c 2,13,-1
 644 153 l 1,14,-1
 479 850 l 2,15,16
 474 872 474 872 451 875 c 0,17,18
 427 877 427 877 419 855 c 2,19,-1
 256 480 l 1,20,-1
 117 480 l 2,21,22
 104 480 104 480 94.5 470.5 c 128,-1,23
 85 461 85 461 85 448 c 128,-1,24
 85 435 85 435 94.5 425.5 c 128,-1,25
 104 416 104 416 117 416 c 2,26,-1
 277 416 l 2,27,28
 298 416 298 416 307 435 c 2,29,-1
 439 741 l 1,30,-1
 603 46 l 2,31,32
 610 24 610 24 632 21 c 2,0,-1
EndSplineSet
EndChar

StartChar: uniF064
Encoding: 61540 61540 55
Width: 1024
GlyphClass: 2
Flags: W
LayerCount: 2
Fore
SplineSet
684 650 m 0,0,1
 702 650 702 650 714.5 637.5 c 128,-1,2
 727 625 727 625 727 607 c 2,3,-1
 687 371 l 2,4,5
 682 343 682 343 690 323.5 c 128,-1,6
 698 304 698 304 714.5 296 c 128,-1,7
 731 288 731 288 744 285 c 128,-1,8
 757 282 757 282 769 282 c 0,9,10
 823 282 823 282 865 322.5 c 128,-1,11
 907 363 907 363 907 448 c 0,12,13
 907 612 907 612 791.5 727.5 c 128,-1,14
 676 843 676 843 512 843 c 128,-1,15
 348 843 348 843 232.5 727.5 c 128,-1,16
 117 612 117 612 117 448 c 128,-1,17
 117 284 117 284 232.5 168.5 c 128,-1,18
 348 53 348 53 512 53 c 0,19,20
 631 53 631 53 724 117 c 0,21,22
 735 124 735 124 748 122 c 128,-1,23
 761 120 761 120 768 109 c 0,24,25
 776 98 776 98 774 85 c 0,26,27
 771 73 771 73 760 65 c 0,28,29
 650 -10 650 -10 512 -10 c 0,30,31
 388 -10 388 -10 282.5 51.5 c 128,-1,32
 177 113 177 113 115.5 218.5 c 128,-1,33
 54 324 54 324 54 448 c 128,-1,34
 54 572 54 572 115.5 677.5 c 128,-1,35
 177 783 177 783 282.5 844.5 c 128,-1,36
 388 906 388 906 512 906 c 128,-1,37
 636 906 636 906 741.5 844.5 c 128,-1,38
 847 783 847 783 908.5 677.5 c 128,-1,39
 970 572 970 572 970 448 c 0,40,41
 970 390 970 390 950 346 c 128,-1,42
 930 302 930 302 904 280 c 128,-1,43
 878 258 878 258 845 245 c 128,-1,44
 812 232 812 232 794 229.5 c 128,-1,45
 776 227 776 227 764 227 c 0,46,47
 729 227 729 227 701 234.5 c 128,-1,48
 673 242 673 242 657.5 253 c 128,-1,49
 642 264 642 264 631.5 275.5 c 128,-1,50
 621 287 621 287 618 294 c 2,51,-1
 614 302 l 1,52,53
 608 295 608 295 596 284.5 c 128,-1,54
 584 274 584 274 544 256 c 128,-1,55
 504 238 504 238 460 238 c 0,56,57
 390 238 390 238 341.5 294.5 c 128,-1,58
 293 351 293 351 293 431 c 0,59,60
 293 537 293 537 352 606 c 128,-1,61
 411 675 411 675 503 675 c 0,62,63
 545 675 545 675 580 660 c 128,-1,64
 615 645 615 645 629 630 c 2,65,-1
 643 615 l 1,66,-1
 644 620 l 1,67,68
 655 650 655 650 684 650 c 0,0,1
589 370 m 0,69,70
 625 423 625 423 623 490 c 0,71,72
 621 541 621 541 592 572 c 128,-1,73
 563 603 563 603 517 603 c 2,74,-1
 513 603 l 2,75,76
 456 601 456 601 416 550 c 128,-1,77
 376 499 376 499 379 432 c 0,78,79
 381 379 381 379 411 346 c 128,-1,80
 441 313 441 313 489 313 c 1,81,-1
 493 314 l 1,82,83
 550 316 550 316 589 370 c 0,69,70
EndSplineSet
EndChar

StartChar: uniF065
Encoding: 61541 61541 56
Width: 1024
GlyphClass: 2
Flags: W
LayerCount: 2
Fore
SplineSet
784 604 m 0,0,1
 923 419 923 419 881 282 c 0,2,3
 840 149 840 149 605 65 c 0,4,5
 594 61 594 61 587 70 c 0,6,7
 580 78 580 78 585 88 c 0,8,9
 590 97 590 97 597 113 c 128,-1,10
 604 129 604 129 617 178.5 c 128,-1,11
 630 228 630 228 633.5 277 c 128,-1,12
 637 326 637 326 623 394 c 128,-1,13
 609 462 609 462 573 522 c 1,14,15
 565 455 565 455 481 359 c 0,16,17
 380 243 380 243 495 14 c 1,18,-1
 499 4 l 1,19,20
 499 -12 499 -12 483 -12 c 2,21,-1
 482 -12 l 1,22,-1
 476 -11 l 2,23,24
 464 -6 464 -6 441 5.5 c 128,-1,25
 418 17 418 17 369 47.5 c 128,-1,26
 320 78 320 78 278.5 112.5 c 128,-1,27
 237 147 237 147 198 198.5 c 128,-1,28
 159 250 159 250 145 303 c 0,29,30
 116 412 116 412 196 519 c 0,31,32
 246 585 246 585 279.5 639 c 128,-1,33
 313 693 313 693 322 714 c 2,34,-1
 330 735 l 2,35,36
 333 747 333 747 347 747 c 0,37,38
 360 745 360 745 362 732 c 0,39,40
 364 696 364 696 374.5 652.5 c 128,-1,41
 385 609 385 609 395 584 c 2,42,-1
 405 558 l 1,43,44
 460 627 460 627 493 713.5 c 128,-1,45
 526 800 526 800 532 838.5 c 128,-1,46
 538 877 538 877 538 892 c 0,47,48
 540 904 540 904 550 907 c 0,49,50
 563 909 563 909 568 899 c 2,51,-1
 598 858 l 2,52,53
 628 816 628 816 682 742 c 128,-1,54
 736 668 736 668 784 604 c 0,0,1
EndSplineSet
EndChar

StartChar: uniF066
Encoding: 61542 61542 57
Width: 1024
GlyphClass: 2
Flags: W
LayerCount: 2
Fore
SplineSet
512 906 m 128,-1,1
 524 906 524 906 533 914.5 c 128,-1,2
 542 923 542 923 542 936 c 2,3,-1
 542 994 l 2,4,5
 542 1007 542 1007 533 1015.5 c 128,-1,6
 524 1024 524 1024 512 1024 c 128,-1,7
 500 1024 500 1024 491 1015.5 c 128,-1,8
 482 1007 482 1007 482 994 c 2,9,-1
 482 936 l 2,10,11
 482 923 482 923 491 914.5 c 128,-1,0
 500 906 500 906 512 906 c 128,-1,1
234 790 m 0,12,13
 242 799 242 799 242 811.5 c 128,-1,14
 242 824 242 824 233 832 c 2,15,-1
 192 874 l 2,16,17
 170 894 170 894 150 874 c 0,18,19
 141 866 141 866 141.5 853.5 c 128,-1,20
 142 841 142 841 150 832 c 2,21,-1
 192 791 l 2,22,23
 200 782 200 782 212.5 782 c 128,-1,24
 225 782 225 782 234 790 c 0,12,13
874 874 m 0,25,26
 866 883 866 883 853.5 882.5 c 128,-1,27
 841 882 841 882 832 874 c 2,28,-1
 791 832 l 2,29,30
 782 824 782 824 782 811.5 c 128,-1,31
 782 799 782 799 790 790 c 0,32,33
 799 782 799 782 811.5 782 c 128,-1,34
 824 782 824 782 832 791 c 2,35,-1
 874 832 l 2,36,37
 894 854 894 854 874 874 c 0,25,26
512 847 m 128,-1,39
 651 847 651 847 749 749 c 128,-1,40
 847 651 847 651 847 512 c 0,41,42
 847 411 847 411 791 327 c 128,-1,43
 735 243 735 243 642 203 c 0,44,45
 634 201 634 201 630 201 c 0,46,47
 618 201 618 201 609 209.5 c 128,-1,48
 600 218 600 218 600 231 c 0,49,50
 600 249 600 249 619 258 c 0,51,52
 696 290 696 290 742 359.5 c 128,-1,53
 788 429 788 429 788 512 c 0,54,55
 788 626 788 626 707 707 c 128,-1,56
 626 788 626 788 512 788 c 128,-1,57
 398 788 398 788 317 707 c 128,-1,58
 236 626 236 626 236 512 c 0,59,60
 236 429 236 429 282 359.5 c 128,-1,61
 328 290 328 290 405 258 c 0,62,63
 423 250 423 250 423 231 c 0,64,65
 423 218 423 218 414.5 209.5 c 128,-1,66
 406 201 406 201 394 201 c 0,67,68
 386 201 386 201 382 204 c 0,69,70
 288 243 288 243 232.5 327 c 128,-1,71
 177 411 177 411 177 512 c 0,72,73
 177 651 177 651 275 749 c 128,-1,38
 373 847 373 847 512 847 c 128,-1,39
118 512 m 128,-1,75
 118 524 118 524 109.5 533 c 128,-1,76
 101 542 101 542 88 542 c 2,77,-1
 30 542 l 2,78,79
 17 542 17 542 8.5 533 c 128,-1,80
 0 524 0 524 0 512 c 128,-1,81
 0 500 0 500 8.5 491 c 128,-1,82
 17 482 17 482 30 482 c 2,83,-1
 88 482 l 2,84,85
 101 482 101 482 109.5 491 c 128,-1,74
 118 500 118 500 118 512 c 128,-1,75
1024 512 m 128,-1,87
 1024 524 1024 524 1015.5 533 c 128,-1,88
 1007 542 1007 542 994 542 c 2,89,-1
 936 542 l 2,90,91
 923 542 923 542 914.5 533 c 128,-1,92
 906 524 906 524 906 512 c 128,-1,93
 906 500 906 500 914.5 491 c 128,-1,94
 923 482 923 482 936 482 c 2,95,-1
 994 482 l 2,96,97
 1007 482 1007 482 1015.5 491 c 128,-1,86
 1024 500 1024 500 1024 512 c 128,-1,87
512 210 m 128,-1,99
 524 210 524 210 533 218.5 c 128,-1,100
 542 227 542 227 542 239 c 2,101,-1
 542 454 l 2,102,103
 542 467 542 467 533 475.5 c 128,-1,104
 524 484 524 484 512 484 c 128,-1,105
 500 484 500 484 491 475.5 c 128,-1,106
 482 467 482 467 482 454 c 2,107,-1
 482 239 l 2,108,109
 482 227 482 227 491 218.5 c 128,-1,98
 500 210 500 210 512 210 c 128,-1,99
670 128 m 128,-1,111
 670 140 670 140 661 149 c 128,-1,112
 652 158 652 158 640 158 c 2,113,-1
 384 158 l 2,114,115
 372 158 372 158 363 149 c 128,-1,116
 354 140 354 140 354 128 c 128,-1,117
 354 116 354 116 363 107 c 128,-1,118
 372 98 372 98 384 98 c 2,119,-1
 640 98 l 2,120,121
 652 98 652 98 661 107 c 128,-1,110
 670 116 670 116 670 128 c 128,-1,111
630 30 m 0,122,123
 630 42 630 42 621.5 50.5 c 128,-1,124
 613 59 613 59 600 59 c 2,125,-1
 424 59 l 2,126,127
 411 59 411 59 402.5 50.5 c 128,-1,128
 394 42 394 42 394 30 c 0,129,130
 394 17 394 17 402.5 8.5 c 128,-1,131
 411 0 411 0 424 0 c 2,132,-1
 600 0 l 2,133,134
 613 0 613 0 621.5 8.5 c 128,-1,135
 630 17 630 17 630 30 c 0,122,123
EndSplineSet
EndChar

StartChar: uniF070
Encoding: 61552 61552 58
Width: 1024
GlyphClass: 2
Flags: W
LayerCount: 2
Fore
SplineSet
907 875 m 128,-1,1
 920 875 920 875 929.5 865.5 c 128,-1,2
 939 856 939 856 939 843 c 2,3,-1
 939 53 l 2,4,5
 939 40 939 40 929.5 30.5 c 128,-1,6
 920 21 920 21 907 21 c 128,-1,7
 894 21 894 21 884.5 30.5 c 128,-1,8
 875 40 875 40 875 53 c 2,9,-1
 875 75 l 1,10,-1
 664 145 l 1,11,12
 645 90 645 90 597 55.5 c 128,-1,13
 549 21 549 21 490 21 c 0,14,15
 414 21 414 21 359.5 75.5 c 128,-1,16
 305 130 305 130 305 207 c 0,17,18
 305 233 305 233 313 262 c 1,19,-1
 149 316 l 1,20,21
 149 303 149 303 139.5 294 c 128,-1,22
 130 285 130 285 117 285 c 128,-1,23
 104 285 104 285 94.5 294.5 c 128,-1,24
 85 304 85 304 85 317 c 2,25,-1
 85 562 l 2,26,27
 85 575 85 575 94.5 584.5 c 128,-1,28
 104 594 104 594 117 594 c 0,29,30
 134 594 134 594 145 578 c 1,31,-1
 875 821 l 1,32,-1
 875 843 l 2,33,34
 875 856 875 856 884.5 865.5 c 128,-1,0
 894 875 894 875 907 875 c 128,-1,1
875 143 m 1,35,-1
 875 753 l 1,36,-1
 762 716 l 1,37,-1
 762 180 l 1,38,-1
 875 143 l 1,35,-1
699 201 m 1,39,-1
 699 695 l 1,40,-1
 149 512 l 1,41,-1
 149 384 l 1,42,-1
 699 201 l 1,39,-1
490 85 m 0,43,44
 528 85 528 85 559.5 107.5 c 128,-1,45
 591 130 591 130 604 165 c 1,46,-1
 374 242 l 1,47,48
 369 222 369 222 369 207 c 0,49,50
 369 157 369 157 404.5 121 c 128,-1,51
 440 85 440 85 490 85 c 0,43,44
EndSplineSet
EndChar

StartChar: uniF084
Encoding: 61572 61572 59
Width: 1024
GlyphClass: 2
Flags: W
LayerCount: 2
Fore
SplineSet
939 241 m 1,0,-1
 960 241 l 2,1,2
 973 241 973 241 982.5 231.5 c 128,-1,3
 992 222 992 222 992 209 c 2,4,-1
 992 122 l 2,5,6
 992 80 992 80 963 50.5 c 128,-1,7
 934 21 934 21 893 21 c 2,8,-1
 131 21 l 2,9,10
 90 21 90 21 61 50.5 c 128,-1,11
 32 80 32 80 32 122 c 2,12,-1
 32 209 l 2,13,14
 32 222 32 222 41.5 231.5 c 128,-1,15
 51 241 51 241 64 241 c 2,16,-1
 88 241 l 1,17,-1
 88 774 l 2,18,19
 88 816 88 816 117 845.5 c 128,-1,20
 146 875 146 875 187 875 c 2,21,-1
 839 875 l 2,22,23
 880 875 880 875 909.5 845.5 c 128,-1,24
 939 816 939 816 939 774 c 2,25,-1
 939 241 l 1,0,-1
152 241 m 1,26,-1
 875 241 l 1,27,-1
 875 774 l 2,28,29
 875 789 875 789 864.5 800 c 128,-1,30
 854 811 854 811 839 811 c 2,31,-1
 187 811 l 2,32,33
 173 811 173 811 162.5 800 c 128,-1,34
 152 789 152 789 152 774 c 2,35,-1
 152 241 l 1,26,-1
131 85 m 2,36,-1
 893 85 l 2,37,38
 907 85 907 85 917.5 96 c 128,-1,39
 928 107 928 107 928 122 c 2,40,-1
 928 177 l 1,41,-1
 96 177 l 1,42,-1
 96 122 l 2,43,44
 96 107 96 107 106.5 96 c 128,-1,45
 117 85 117 85 131 85 c 2,36,-1
EndSplineSet
EndChar

StartChar: uniF085
Encoding: 61573 61573 60
Width: 1024
GlyphClass: 2
Flags: W
LayerCount: 2
Fore
SplineSet
320 875 m 2,0,-1
 704 875 l 2,1,2
 744 875 744 875 772 847 c 128,-1,3
 800 819 800 819 800 779 c 2,4,-1
 800 117 l 2,5,6
 800 77 800 77 772 49 c 128,-1,7
 744 21 744 21 704 21 c 2,8,-1
 320 21 l 2,9,10
 280 21 280 21 252 49 c 128,-1,11
 224 77 224 77 224 117 c 2,12,-1
 224 779 l 2,13,14
 224 819 224 819 252 847 c 128,-1,15
 280 875 280 875 320 875 c 2,0,-1
704 811 m 2,16,-1
 320 811 l 2,17,18
 307 811 307 811 297.5 801.5 c 128,-1,19
 288 792 288 792 288 779 c 2,20,-1
 288 272 l 1,21,-1
 736 272 l 1,22,-1
 736 779 l 2,23,24
 736 792 736 792 726.5 801.5 c 128,-1,25
 717 811 717 811 704 811 c 2,16,-1
320 85 m 2,26,-1
 704 85 l 2,27,28
 717 85 717 85 726.5 94.5 c 128,-1,29
 736 104 736 104 736 117 c 2,30,-1
 736 208 l 1,31,-1
 288 208 l 1,32,-1
 288 117 l 2,33,34
 288 104 288 104 297.5 94.5 c 128,-1,35
 307 85 307 85 320 85 c 2,26,-1
487 178 m 2,36,-1
 537 178 l 2,37,38
 550 178 550 178 559.5 169 c 128,-1,39
 569 160 569 160 569 146 c 0,40,41
 569 133 569 133 559.5 123.5 c 128,-1,42
 550 114 550 114 537 114 c 2,43,-1
 487 114 l 2,44,45
 474 114 474 114 464.5 123.5 c 128,-1,46
 455 133 455 133 455 146 c 0,47,48
 455 160 455 160 464.5 169 c 128,-1,49
 474 178 474 178 487 178 c 2,36,-1
EndSplineSet
EndChar

StartChar: uniF086
Encoding: 61574 61574 61
Width: 1024
GlyphClass: 2
Flags: W
LayerCount: 2
Fore
SplineSet
234 875 m 2,0,-1
 789 875 l 2,1,2
 829 875 829 875 857 847 c 128,-1,3
 885 819 885 819 885 779 c 2,4,-1
 885 117 l 2,5,6
 885 77 885 77 857 49 c 128,-1,7
 829 21 829 21 789 21 c 2,8,-1
 234 21 l 2,9,10
 194 21 194 21 166 49 c 128,-1,11
 138 77 138 77 138 117 c 2,12,-1
 138 779 l 2,13,14
 138 819 138 819 166 847 c 128,-1,15
 194 875 194 875 234 875 c 2,0,-1
789 811 m 2,16,-1
 234 811 l 2,17,18
 221 811 221 811 211.5 801.5 c 128,-1,19
 202 792 202 792 202 779 c 2,20,-1
 202 272 l 1,21,-1
 821 272 l 1,22,-1
 821 779 l 2,23,24
 821 792 821 792 811.5 801.5 c 128,-1,25
 802 811 802 811 789 811 c 2,16,-1
234 85 m 2,26,-1
 789 85 l 2,27,28
 802 85 802 85 811.5 94.5 c 128,-1,29
 821 104 821 104 821 117 c 2,30,-1
 821 208 l 1,31,-1
 202 208 l 1,32,-1
 202 117 l 2,33,34
 202 104 202 104 211.5 94.5 c 128,-1,35
 221 85 221 85 234 85 c 2,26,-1
487 178 m 2,36,-1
 536 178 l 2,37,38
 550 178 550 178 559 169 c 128,-1,39
 568 160 568 160 568 146 c 0,40,41
 568 133 568 133 558.5 123.5 c 128,-1,42
 549 114 549 114 536 114 c 2,43,-1
 487 114 l 2,44,45
 474 114 474 114 464.5 123.5 c 128,-1,46
 455 133 455 133 455 146 c 0,47,48
 455 160 455 160 464.5 169 c 128,-1,49
 474 178 474 178 487 178 c 2,36,-1
EndSplineSet
EndChar

StartChar: uniF087
Encoding: 61575 61575 62
Width: 1024
GlyphClass: 2
Flags: W
LayerCount: 2
Fore
SplineSet
181 875 m 2,0,-1
 843 875 l 2,1,2
 883 875 883 875 911 847 c 128,-1,3
 939 819 939 819 939 779 c 2,4,-1
 939 117 l 2,5,6
 939 77 939 77 911 49 c 128,-1,7
 883 21 883 21 843 21 c 2,8,-1
 181 21 l 2,9,10
 141 21 141 21 113 49 c 128,-1,11
 85 77 85 77 85 117 c 2,12,-1
 85 779 l 2,13,14
 85 819 85 819 113 847 c 128,-1,15
 141 875 141 875 181 875 c 2,0,-1
875 117 m 2,16,-1
 875 779 l 2,17,18
 875 792 875 792 865.5 801.5 c 128,-1,19
 856 811 856 811 843 811 c 2,20,-1
 181 811 l 2,21,22
 168 811 168 811 158.5 801.5 c 128,-1,23
 149 792 149 792 149 779 c 2,24,-1
 149 117 l 2,25,26
 149 104 149 104 158.5 94.5 c 128,-1,27
 168 85 168 85 181 85 c 2,28,-1
 843 85 l 2,29,30
 856 85 856 85 865.5 94.5 c 128,-1,31
 875 104 875 104 875 117 c 2,16,-1
510 695 m 128,-1,33
 578 695 578 695 627 646.5 c 128,-1,34
 676 598 676 598 676 529 c 0,35,36
 676 470 676 470 638 424 c 128,-1,37
 600 378 600 378 542 367 c 1,38,-1
 542 352 l 2,39,40
 542 338 542 338 533 329 c 128,-1,41
 524 320 524 320 510 320 c 0,42,43
 497 320 497 320 487.5 329.5 c 128,-1,44
 478 339 478 339 478 352 c 2,45,-1
 478 396 l 2,46,47
 478 409 478 409 487.5 418.5 c 128,-1,48
 497 428 497 428 510 428 c 0,49,50
 552 428 552 428 582 457.5 c 128,-1,51
 612 487 612 487 612 529 c 128,-1,52
 612 571 612 571 582 601 c 128,-1,53
 552 631 552 631 510 631 c 128,-1,54
 468 631 468 631 438.5 601 c 128,-1,55
 409 571 409 571 409 529 c 0,56,57
 409 516 409 516 399.5 506.5 c 128,-1,58
 390 497 390 497 377 497 c 128,-1,59
 364 497 364 497 354.5 506.5 c 128,-1,60
 345 516 345 516 345 529 c 0,61,62
 345 598 345 598 393.5 646.5 c 128,-1,32
 442 695 442 695 510 695 c 128,-1,33
510 281 m 128,-1,64
 492 281 492 281 479.5 268.5 c 128,-1,65
 467 256 467 256 467 238 c 128,-1,66
 467 220 467 220 479.5 207.5 c 128,-1,67
 492 195 492 195 510 195 c 128,-1,68
 528 195 528 195 540.5 207.5 c 128,-1,69
 553 220 553 220 553 238 c 128,-1,70
 553 256 553 256 540.5 268.5 c 128,-1,63
 528 281 528 281 510 281 c 128,-1,64
EndSplineSet
EndChar

StartChar: uniF088
Encoding: 61576 61576 63
Width: 1024
GlyphClass: 2
Flags: W
LayerCount: 2
Fore
SplineSet
172 69 m 0,0,1
 90 133 90 133 78 237 c 128,-1,2
 66 341 66 341 131 422 c 2,3,-1
 387 745 l 2,4,5
 396 757 396 757 412 757 c 0,6,7
 424 757 424 757 432 750 c 0,8,9
 442 742 442 742 443.5 728.5 c 128,-1,10
 445 715 445 715 437 705 c 2,11,-1
 181 382 l 2,12,13
 133 321 133 321 142 245 c 0,14,15
 151 168 151 168 212 119 c 0,16,17
 273 71 273 71 349 80 c 0,18,19
 428 89 428 89 475 150 c 2,20,-1
 857 631 l 2,21,22
 886 668 886 668 880.5 715 c 128,-1,23
 875 762 875 762 838 792 c 0,24,25
 801 821 801 821 754 815.5 c 128,-1,26
 707 810 707 810 678 773 c 2,27,-1
 350 360 l 2,28,29
 339 347 339 347 342 330 c 0,30,31
 344 312 344 312 357 303 c 0,32,33
 370 292 370 292 387.5 294 c 128,-1,34
 405 296 405 296 415 309 c 2,35,-1
 625 574 l 2,36,37
 635 587 635 587 650 587 c 0,38,39
 660 587 660 587 670 580 c 0,40,41
 680 572 680 572 681.5 558.5 c 128,-1,42
 683 545 683 545 675 535 c 2,43,-1
 465 270 l 2,44,45
 438 236 438 236 394.5 230.5 c 128,-1,46
 351 225 351 225 317 252 c 0,47,48
 283 280 283 280 278 323 c 128,-1,49
 273 366 273 366 300 400 c 2,50,-1
 627 813 l 2,51,52
 682 880 682 880 767 880 c 0,53,54
 828 880 828 880 878 842 c 0,55,56
 936 796 936 796 944.5 722.5 c 128,-1,57
 953 649 953 649 907 591 c 2,58,-1
 525 110 l 2,59,60
 460 29 460 29 357 16 c 0,61,62
 251 5 251 5 172 69 c 0,0,1
EndSplineSet
EndChar

StartChar: uniF089
Encoding: 61577 61577 64
Width: 1024
GlyphClass: 2
Flags: W
LayerCount: 2
Fore
SplineSet
512 896 m 128,-1,1
 697 896 697 896 828.5 764.5 c 128,-1,2
 960 633 960 633 960 448 c 128,-1,3
 960 263 960 263 828.5 131.5 c 128,-1,4
 697 0 697 0 512 0 c 128,-1,5
 327 0 327 0 195.5 131.5 c 128,-1,6
 64 263 64 263 64 448 c 128,-1,7
 64 633 64 633 195.5 764.5 c 128,-1,0
 327 896 327 896 512 896 c 128,-1,1
386 708 m 0,8,9
 401 716 401 716 434 730.5 c 128,-1,10
 467 745 467 745 491 756 c 128,-1,11
 515 767 515 767 518 771 c 0,12,13
 522 781 522 781 520.5 799 c 128,-1,14
 519 817 519 817 514 829 c 0,15,16
 513 832 513 832 511 833 c 128,-1,17
 509 834 509 834 508 834 c 2,18,-1
 506 834 l 2,19,20
 379 833 379 833 279 757 c 128,-1,21
 179 681 179 681 142 562 c 1,22,23
 167 554 167 554 184 548 c 0,24,25
 205 541 205 541 249 522.5 c 128,-1,26
 293 504 293 504 296 498 c 0,27,28
 299 493 299 493 289.5 471 c 128,-1,29
 280 449 280 449 280 446 c 0,30,31
 279 439 279 439 288 411.5 c 128,-1,32
 297 384 297 384 302 377 c 0,33,34
 305 373 305 373 329 356 c 128,-1,35
 353 339 353 339 357 333 c 128,-1,36
 361 327 361 327 370.5 241.5 c 128,-1,37
 380 156 380 156 382 151 c 0,38,39
 386 141 386 141 396.5 128 c 128,-1,40
 407 115 407 115 413 115 c 0,41,42
 417 115 417 115 437 155.5 c 128,-1,43
 457 196 457 196 478 240 c 128,-1,44
 499 284 499 284 502 289 c 0,45,46
 506 295 506 295 518.5 307.5 c 128,-1,47
 531 320 531 320 545.5 333.5 c 128,-1,48
 560 347 560 347 562 349 c 0,49,50
 569 355 569 355 569.5 386.5 c 128,-1,51
 570 418 570 418 563 431 c 0,52,53
 557 444 557 444 516 481 c 128,-1,54
 475 518 475 518 464 520 c 0,55,56
 459 521 459 521 411 515.5 c 128,-1,57
 363 510 363 510 346 514 c 0,58,59
 333 517 333 517 302.5 536.5 c 128,-1,60
 272 556 272 556 248 574 c 2,61,-1
 224 592 l 1,62,63
 279 594 279 594 287 599 c 0,64,65
 290 601 290 601 303.5 633.5 c 128,-1,66
 317 666 317 666 323 672 c 0,67,68
 328 677 328 677 334.5 681 c 128,-1,69
 341 685 341 685 357 693 c 128,-1,70
 373 701 373 701 386 708 c 0,8,9
861 357 m 0,71,72
 866 348 866 348 875 348 c 128,-1,73
 884 348 884 348 887 355 c 0,74,75
 899 388 899 388 899 448 c 0,76,77
 899 622 899 622 764 741 c 0,78,79
 751 752 751 752 688.5 760 c 128,-1,80
 626 768 626 768 612 757 c 0,81,82
 597 742 597 742 599 722 c 0,83,84
 599 719 599 719 640 682.5 c 128,-1,85
 681 646 681 646 680 635 c 0,86,87
 679 628 679 628 655 601 c 128,-1,88
 631 574 631 574 631 569 c 0,89,90
 631 563 631 563 652 543.5 c 128,-1,91
 673 524 673 524 685 518 c 0,92,93
 690 515 690 515 739 495.5 c 128,-1,94
 788 476 788 476 794 471 c 0,95,96
 813 453 813 453 861 357 c 0,71,72
EndSplineSet
EndChar

StartChar: uniF090
Encoding: 61584 61584 65
Width: 1024
GlyphClass: 2
Flags: W
LayerCount: 2
Fore
SplineSet
851 404 m 2,0,-1
 851 256 l 1,1,2
 889 245 889 245 914 213.5 c 128,-1,3
 939 182 939 182 939 141 c 0,4,5
 939 92 939 92 903.5 56.5 c 128,-1,6
 868 21 868 21 819 21 c 2,7,-1
 205 21 l 2,8,9
 156 21 156 21 120.5 56.5 c 128,-1,10
 85 92 85 92 85 141 c 0,11,12
 85 182 85 182 110 213.5 c 128,-1,13
 135 245 135 245 173 256 c 1,14,-1
 173 404 l 2,15,16
 173 535 173 535 261.5 632 c 128,-1,17
 350 729 350 729 480 742 c 1,18,-1
 480 768 l 1,19,-1
 424 768 l 2,20,21
 411 768 411 768 401.5 777.5 c 128,-1,22
 392 787 392 787 392 800 c 128,-1,23
 392 813 392 813 401.5 822.5 c 128,-1,24
 411 832 411 832 424 832 c 2,25,-1
 600 832 l 2,26,27
 613 832 613 832 622.5 822.5 c 128,-1,28
 632 813 632 813 632 800 c 128,-1,29
 632 787 632 787 622.5 777.5 c 128,-1,30
 613 768 613 768 600 768 c 2,31,-1
 544 768 l 1,32,-1
 544 741 l 1,33,34
 674 729 674 729 762.5 632 c 128,-1,35
 851 535 851 535 851 404 c 2,0,-1
512 679 m 128,-1,37
 398 679 398 679 317.5 598.5 c 128,-1,38
 237 518 237 518 237 404 c 2,39,-1
 237 261 l 1,40,-1
 787 261 l 1,41,-1
 787 404 l 2,42,43
 787 518 787 518 706.5 598.5 c 128,-1,36
 626 679 626 679 512 679 c 128,-1,37
205 85 m 2,44,-1
 819 85 l 2,45,46
 842 85 842 85 858.5 101.5 c 128,-1,47
 875 118 875 118 875 141 c 128,-1,48
 875 164 875 164 858.5 180.5 c 128,-1,49
 842 197 842 197 819 197 c 2,50,-1
 205 197 l 2,51,52
 182 197 182 197 165.5 180.5 c 128,-1,53
 149 164 149 164 149 141 c 128,-1,54
 149 118 149 118 165.5 101.5 c 128,-1,55
 182 85 182 85 205 85 c 2,44,-1
EndSplineSet
EndChar

StartChar: uniF092
Encoding: 61586 61586 66
Width: 1024
GlyphClass: 2
Flags: W
LayerCount: 2
Fore
SplineSet
885 519 m 0,0,1
 885 373 885 373 792 263.5 c 128,-1,2
 699 154 699 154 561 135 c 1,3,-1
 633 57 l 2,4,5
 643 47 643 47 637 34 c 0,6,7
 632 21 632 21 618 21 c 2,8,-1
 406 21 l 2,9,10
 392 21 392 21 387 34 c 0,11,12
 381 47 381 47 391 57 c 2,13,-1
 463 135 l 1,14,15
 325 154 325 154 232 263.5 c 128,-1,16
 139 373 139 373 139 519 c 0,17,18
 139 680 139 680 248.5 793.5 c 128,-1,19
 358 907 358 907 512 907 c 128,-1,20
 666 907 666 907 775.5 793.5 c 128,-1,21
 885 680 885 680 885 519 c 0,0,1
512 196 m 128,-1,23
 640 196 640 196 730.5 290.5 c 128,-1,24
 821 385 821 385 821 519 c 128,-1,25
 821 653 821 653 730.5 748 c 128,-1,26
 640 843 640 843 512 843 c 128,-1,27
 384 843 384 843 293.5 748 c 128,-1,28
 203 653 203 653 203 519 c 128,-1,29
 203 385 203 385 293.5 290.5 c 128,-1,22
 384 196 384 196 512 196 c 128,-1,23
331 487 m 128,-1,31
 344 487 344 487 353.5 496.5 c 128,-1,32
 363 506 363 506 363 519 c 0,33,34
 363 587 363 587 407 635 c 128,-1,35
 451 683 451 683 512 683 c 0,36,37
 526 683 526 683 535 692.5 c 128,-1,38
 544 702 544 702 544 715 c 128,-1,39
 544 728 544 728 534.5 737.5 c 128,-1,40
 525 747 525 747 512 747 c 0,41,42
 424 747 424 747 361.5 680.5 c 128,-1,43
 299 614 299 614 299 519 c 0,44,45
 299 506 299 506 308.5 496.5 c 128,-1,30
 318 487 318 487 331 487 c 128,-1,31
EndSplineSet
EndChar

StartChar: uniF093
Encoding: 61587 61587 67
Width: 1024
GlyphClass: 2
Flags: W
LayerCount: 2
Fore
SplineSet
917 861 m 128,-1,1
 939 845 939 845 939 817 c 2,2,-1
 939 204 l 2,3,4
 939 186 939 186 929 172 c 128,-1,5
 919 158 919 158 902 153 c 2,6,-1
 522 26 l 1,7,-1
 512 25 l 1,8,-1
 502 26 l 1,9,-1
 122 153 l 2,10,11
 106 158 106 158 95.5 172.5 c 128,-1,12
 85 187 85 187 85 204 c 2,13,-1
 85 817 l 2,14,15
 85 845 85 845 108 861 c 0,16,17
 130 877 130 877 157 869 c 2,18,-1
 512 750 l 1,19,-1
 868 869 l 2,20,0
 895 877 895 877 917 861 c 128,-1,1
151 213 m 1,21,-1
 479 103 l 1,22,-1
 479 692 l 1,23,-1
 151 801 l 1,24,-1
 151 213 l 1,21,-1
874 801 m 1,25,-1
 545 691 l 1,26,-1
 545 103 l 1,27,-1
 874 213 l 1,28,-1
 874 801 l 1,25,-1
EndSplineSet
EndChar

StartChar: uniF094
Encoding: 61588 61588 68
Width: 1024
GlyphClass: 2
Flags: W
LayerCount: 2
Fore
SplineSet
181 21 m 2,0,-1
 843 21 l 2,1,2
 883 21 883 21 911 49 c 128,-1,3
 939 77 939 77 939 117 c 2,4,-1
 939 779 l 2,5,6
 939 819 939 819 911 847 c 128,-1,7
 883 875 883 875 843 875 c 2,8,-1
 181 875 l 2,9,10
 141 875 141 875 113 847 c 128,-1,11
 85 819 85 819 85 779 c 2,12,-1
 85 117 l 2,13,14
 85 77 85 77 113 49 c 128,-1,15
 141 21 141 21 181 21 c 2,0,-1
181 811 m 2,16,-1
 843 811 l 2,17,18
 856 811 856 811 865.5 801.5 c 128,-1,19
 875 792 875 792 875 779 c 2,20,-1
 875 117 l 2,21,22
 875 104 875 104 865.5 94.5 c 128,-1,23
 856 85 856 85 843 85 c 2,24,-1
 181 85 l 2,25,26
 168 85 168 85 158.5 94.5 c 128,-1,27
 149 104 149 104 149 117 c 2,28,-1
 149 779 l 2,29,30
 149 792 149 792 158.5 801.5 c 128,-1,31
 168 811 168 811 181 811 c 2,16,-1
299 591 m 2,32,-1
 725 591 l 2,33,34
 738 591 738 591 747.5 600.5 c 128,-1,35
 757 610 757 610 757 623 c 128,-1,36
 757 636 757 636 747.5 645.5 c 128,-1,37
 738 655 738 655 725 655 c 2,38,-1
 299 655 l 2,39,40
 286 655 286 655 276.5 645.5 c 128,-1,41
 267 636 267 636 267 623 c 128,-1,42
 267 610 267 610 276.5 600.5 c 128,-1,43
 286 591 286 591 299 591 c 2,32,-1
299 416 m 2,44,-1
 725 416 l 2,45,46
 738 416 738 416 747.5 425 c 128,-1,47
 757 434 757 434 757 448 c 128,-1,48
 757 462 757 462 747.5 471 c 128,-1,49
 738 480 738 480 725 480 c 2,50,-1
 299 480 l 2,51,52
 286 480 286 480 276.5 471 c 128,-1,53
 267 462 267 462 267 448 c 128,-1,54
 267 434 267 434 276.5 425 c 128,-1,55
 286 416 286 416 299 416 c 2,44,-1
299 241 m 2,56,-1
 512 241 l 2,57,58
 526 241 526 241 535 250.5 c 128,-1,59
 544 260 544 260 544 273 c 128,-1,60
 544 286 544 286 534.5 295.5 c 128,-1,61
 525 305 525 305 512 305 c 2,62,-1
 299 305 l 2,63,64
 286 305 286 305 276.5 295.5 c 128,-1,65
 267 286 267 286 267 273 c 128,-1,66
 267 260 267 260 276.5 250.5 c 128,-1,67
 286 241 286 241 299 241 c 2,56,-1
EndSplineSet
EndChar

StartChar: uniF095
Encoding: 61589 61589 69
Width: 1024
GlyphClass: 2
Flags: W
LayerCount: 2
Fore
SplineSet
764 275 m 0,0,1
 817 275 817 275 854.5 237.5 c 128,-1,2
 892 200 892 200 892 147 c 128,-1,3
 892 94 892 94 854.5 56.5 c 128,-1,4
 817 19 817 19 764 19 c 0,5,6
 712 19 712 19 674 56.5 c 128,-1,7
 636 94 636 94 636 147 c 1,8,-1
 637 154 l 1,9,-1
 511 154 l 1,10,-1
 512 147 l 1,11,12
 512 94 512 94 474.5 56.5 c 128,-1,13
 437 19 437 19 384 19 c 128,-1,14
 331 19 331 19 293.5 56.5 c 128,-1,15
 256 94 256 94 256 147 c 0,16,17
 256 181 256 181 274 212 c 1,18,-1
 179 809 l 1,19,-1
 86 809 l 2,20,21
 73 809 73 809 63.5 818.5 c 128,-1,22
 54 828 54 828 54 841 c 128,-1,23
 54 854 54 854 63.5 863.5 c 128,-1,24
 73 873 73 873 86 873 c 2,25,-1
 206 873 l 2,26,27
 218 873 218 873 227 865 c 128,-1,28
 236 857 236 857 238 846 c 2,29,-1
 260 707 l 1,30,-1
 906 707 l 2,31,32
 920 707 920 707 930 695 c 0,33,34
 940 685 940 685 938 670 c 2,35,-1
 886 349 l 2,36,37
 884 338 884 338 875.5 330 c 128,-1,38
 867 322 867 322 855 322 c 2,39,-1
 321 322 l 1,40,-1
 331 263 l 1,41,42
 355 275 355 275 384 275 c 0,43,44
 453 275 453 275 490 218 c 1,45,-1
 658 218 l 1,46,47
 695 275 695 275 764 275 c 0,0,1
311 386 m 1,48,-1
 828 386 l 1,49,-1
 869 643 l 1,50,-1
 270 643 l 1,51,-1
 311 386 l 1,48,-1
384 83 m 128,-1,53
 410 83 410 83 429 102 c 128,-1,54
 448 121 448 121 448 147 c 128,-1,55
 448 173 448 173 429 192 c 128,-1,56
 410 211 410 211 384 211 c 128,-1,57
 358 211 358 211 339 192 c 128,-1,58
 320 173 320 173 320 147 c 128,-1,59
 320 121 320 121 339 102 c 128,-1,52
 358 83 358 83 384 83 c 128,-1,53
764 83 m 0,60,61
 791 83 791 83 809.5 102 c 128,-1,62
 828 121 828 121 828 147 c 128,-1,63
 828 173 828 173 809.5 192 c 128,-1,64
 791 211 791 211 764 211 c 0,65,66
 738 211 738 211 719 192 c 128,-1,67
 700 173 700 173 700 147 c 128,-1,68
 700 121 700 121 719 102 c 128,-1,69
 738 83 738 83 764 83 c 0,60,61
EndSplineSet
EndChar

StartChar: uniF096
Encoding: 61590 61590 70
Width: 1024
GlyphClass: 2
Flags: W
LayerCount: 2
Fore
SplineSet
762 648 m 1,0,-1
 843 648 l 2,1,2
 883 648 883 648 911 620 c 128,-1,3
 939 592 939 592 939 552 c 2,4,-1
 939 116 l 2,5,6
 939 76 939 76 911 48 c 128,-1,7
 883 20 883 20 843 20 c 2,8,-1
 181 20 l 2,9,10
 141 20 141 20 113 48 c 128,-1,11
 85 76 85 76 85 116 c 2,12,-1
 85 552 l 2,13,14
 85 592 85 592 113 620 c 128,-1,15
 141 648 141 648 181 648 c 2,16,-1
 262 648 l 1,17,18
 268 747 268 747 340.5 815.5 c 128,-1,19
 413 884 413 884 512 884 c 0,20,21
 612 884 612 884 684 815.5 c 128,-1,22
 756 747 756 747 762 648 c 1,0,-1
326 648 m 1,23,-1
 698 648 l 1,24,25
 692 720 692 720 638.5 770 c 128,-1,26
 585 820 585 820 512 820 c 128,-1,27
 439 820 439 820 385.5 770 c 128,-1,28
 332 720 332 720 326 648 c 1,23,-1
544 231 m 2,29,-1
 544 291 l 1,30,31
 569 301 569 301 584.5 323 c 128,-1,32
 600 345 600 345 600 372 c 0,33,34
 600 409 600 409 574 434.5 c 128,-1,35
 548 460 548 460 512 460 c 0,36,37
 475 460 475 460 449.5 434.5 c 128,-1,38
 424 409 424 409 424 372 c 0,39,40
 424 344 424 344 439.5 322 c 128,-1,41
 455 300 455 300 480 291 c 1,42,-1
 480 231 l 2,43,44
 480 218 480 218 489 208.5 c 128,-1,45
 498 199 498 199 512 199 c 128,-1,46
 526 199 526 199 535 208.5 c 128,-1,47
 544 218 544 218 544 231 c 2,29,-1
EndSplineSet
EndChar

StartChar: uniF097
Encoding: 61591 61591 71
Width: 1024
GlyphClass: 2
Flags: W
LayerCount: 2
Fore
SplineSet
858 697 m 1,0,-1
 758 598 l 2,1,2
 749 588 749 588 736 588 c 128,-1,3
 723 588 723 588 713 598 c 0,4,5
 704 607 704 607 704 620 c 0,6,7
 704 634 704 634 713 643 c 2,8,-1
 812 742 l 1,9,-1
 713 841 l 2,10,11
 704 850 704 850 704 864 c 0,12,13
 704 877 704 877 713 886 c 0,14,15
 723 896 723 896 736 896 c 128,-1,16
 749 896 749 896 758 886 c 2,17,-1
 858 787 l 1,18,-1
 957 886 l 2,19,20
 966 896 966 896 979.5 896 c 128,-1,21
 993 896 993 896 1002 886 c 0,22,23
 1012 877 1012 877 1012 864 c 128,-1,24
 1012 851 1012 851 1002 841 c 2,25,-1
 903 742 l 1,26,-1
 1002 643 l 2,27,28
 1011 633 1011 633 1011 620 c 128,-1,29
 1011 607 1011 607 1002 597 c 0,30,31
 992 588 992 588 979 588 c 128,-1,32
 966 588 966 588 957 597 c 2,33,-1
 858 697 l 1,0,-1
360 456 m 0,34,35
 242 456 242 456 196 509 c 0,36,37
 144 568 144 568 162 697 c 0,38,39
 174 787 174 787 226.5 838 c 128,-1,40
 279 889 279 889 360 889 c 128,-1,41
 441 889 441 889 493.5 838 c 128,-1,42
 546 787 546 787 558 697 c 0,43,44
 576 570 576 570 524 509 c 0,45,46
 477 456 477 456 360 456 c 0,34,35
225 688 m 0,47,48
 212 589 212 589 244 552 c 0,49,50
 272 520 272 520 360 520 c 0,51,52
 449 520 449 520 475 552 c 0,53,54
 509 589 509 589 495 688 c 0,55,56
 492 711 492 711 485 731.5 c 128,-1,57
 478 752 478 752 463.5 775 c 128,-1,58
 449 798 449 798 422.5 811.5 c 128,-1,59
 396 825 396 825 360 825 c 128,-1,60
 324 825 324 825 297.5 811.5 c 128,-1,61
 271 798 271 798 256.5 775 c 128,-1,62
 242 752 242 752 235 731.5 c 128,-1,63
 228 711 228 711 225 688 c 0,47,48
713 139 m 0,64,65
 724 92 724 92 696 56 c 0,66,67
 669 21 669 21 622 21 c 2,68,-1
 97 21 l 2,69,70
 51 21 51 21 23 57 c 0,71,72
 -6 93 -6 93 7 139 c 0,73,74
 35 252 35 252 133.5 323.5 c 128,-1,75
 232 395 232 395 360 395 c 128,-1,76
 488 395 488 395 586.5 323.5 c 128,-1,77
 685 252 685 252 713 139 c 0,64,65
646 96 m 0,78,79
 656 108 656 108 651 124 c 0,80,81
 629 215 629 215 547.5 273 c 128,-1,82
 466 331 466 331 360 331 c 128,-1,83
 254 331 254 331 172.5 273 c 128,-1,84
 91 215 91 215 69 124 c 0,85,86
 64 108 64 108 74 96 c 0,87,88
 82 85 82 85 97 85 c 2,89,-1
 622 85 l 2,90,91
 637 85 637 85 646 96 c 0,78,79
EndSplineSet
EndChar

StartChar: uniF098
Encoding: 61592 61592 72
Width: 1024
GlyphClass: 2
Flags: W
LayerCount: 2
Fore
SplineSet
894 781 m 0,0,1
 949 706 949 706 935 615 c 0,2,3
 921 523 921 523 847 469 c 2,4,-1
 736 387 l 1,5,6
 733 421 733 421 719 454 c 1,7,-1
 809 520 l 2,8,9
 861 560 861 560 872 625 c 0,10,11
 881 690 881 690 842 743 c 0,12,13
 794 808 794 808 714 808 c 0,14,15
 662 808 662 808 619 776 c 2,16,-1
 469 665 l 2,17,18
 417 627 417 627 406 561 c 0,19,20
 397 495 397 495 436 443 c 0,21,22
 484 378 484 378 564 378 c 2,23,-1
 565 378 l 1,24,25
 570 357 570 357 567 337 c 0,26,27
 567 333 567 333 566 329.5 c 128,-1,28
 565 326 565 326 563.5 321.5 c 128,-1,29
 562 317 562 317 561 314 c 0,30,31
 509 315 509 315 462 339 c 128,-1,32
 415 363 415 363 384 405 c 0,33,34
 329 480 329 480 343 570 c 0,35,36
 357 661 357 661 431 717 c 2,37,-1
 581 828 l 2,38,39
 640 872 640 872 714 872 c 0,40,41
 767 872 767 872 814.5 848 c 128,-1,42
 862 824 862 824 894 781 c 0,0,1
642 485 m 0,43,44
 697 410 697 410 683 320 c 0,45,46
 669 229 669 229 595 173 c 2,47,-1
 445 62 l 2,48,49
 386 18 386 18 312 18 c 0,50,51
 259 18 259 18 211.5 42 c 128,-1,52
 164 66 164 66 132 109 c 0,53,54
 77 184 77 184 91 275 c 0,55,56
 105 367 105 367 179 421 c 2,57,-1
 290 503 l 1,58,59
 293 469 293 469 307 436 c 1,60,-1
 217 370 l 2,61,62
 165 330 165 330 154 265 c 0,63,64
 145 199 145 199 184 147 c 0,65,66
 232 82 232 82 312 82 c 0,67,68
 365 82 365 82 406 114 c 2,69,-1
 557 225 l 2,70,71
 609 263 609 263 620 329 c 0,72,73
 629 395 629 395 590 447 c 0,74,75
 542 512 542 512 462 512 c 2,76,-1
 461 512 l 1,77,78
 456 533 456 533 459 553 c 0,79,80
 460 558 460 558 462.5 566 c 128,-1,81
 465 574 465 574 465 576 c 1,82,83
 575 574 575 574 642 485 c 0,43,44
EndSplineSet
EndChar

StartChar: uniF099
Encoding: 61593 61593 73
Width: 1024
GlyphClass: 2
Flags: W
LayerCount: 2
Fore
SplineSet
960 427 m 0,0,1
 960 380 960 380 937.5 340 c 128,-1,2
 915 300 915 300 877 278 c 1,3,4
 878 271 878 271 878 256 c 0,5,6
 878 185 878 185 830.5 135 c 128,-1,7
 783 85 783 85 716 85 c 0,8,9
 686 85 686 85 659 96 c 1,10,11
 638 53 638 53 598.5 26.5 c 128,-1,12
 559 0 559 0 512 0 c 0,13,14
 464 0 464 0 425 26 c 128,-1,15
 386 52 386 52 365 96 c 1,16,17
 338 85 338 85 308 85 c 0,18,19
 241 85 241 85 193 135 c 128,-1,20
 145 185 145 185 145 256 c 0,21,22
 145 264 145 264 147 278 c 1,23,24
 109 300 109 300 86.5 340 c 128,-1,25
 64 380 64 380 64 427 c 0,26,27
 64 477 64 477 89 518.5 c 128,-1,28
 114 560 114 560 156 580 c 1,29,30
 145 610 145 610 145 640 c 0,31,32
 145 711 145 711 193 761 c 128,-1,33
 241 811 241 811 308 811 c 0,34,35
 338 811 338 811 365 800 c 1,36,37
 386 843 386 843 425.5 869.5 c 128,-1,38
 465 896 465 896 512 896 c 128,-1,39
 559 896 559 896 598.5 869.5 c 128,-1,40
 638 843 638 843 659 800 c 1,41,42
 686 811 686 811 716 811 c 0,43,44
 783 811 783 811 830.5 761 c 128,-1,45
 878 711 878 711 878 640 c 0,46,47
 878 607 878 607 868 580 c 1,48,49
 910 560 910 560 935 518.5 c 128,-1,50
 960 477 960 477 960 427 c 0,0,1
493 292 m 2,51,-1
 678 569 l 2,52,53
 685 580 685 580 682.5 593 c 128,-1,54
 680 606 680 606 669 613 c 128,-1,55
 658 620 658 620 645 618 c 128,-1,56
 632 616 632 616 624 605 c 2,57,-1
 461 360 l 1,58,-1
 386 435 l 2,59,60
 376 445 376 445 363 444.5 c 128,-1,61
 350 444 350 444 340 435 c 0,62,63
 331 426 331 426 331 412.5 c 128,-1,64
 331 399 331 399 340 390 c 2,65,-1
 443 287 l 1,66,-1
 448 283 l 2,67,68
 457 277 457 277 466 277 c 0,69,70
 484 277 484 277 493 292 c 2,51,-1
EndSplineSet
EndChar

StartChar: uniF101
Encoding: 61697 61697 74
Width: 1024
GlyphClass: 2
Flags: W
LayerCount: 2
Fore
SplineSet
148 244 m 0,0,1
 165 244 165 244 175 259 c 0,2,3
 182 270 182 270 179 283 c 128,-1,4
 176 296 176 296 165 303 c 0,5,6
 149 313 149 313 149 331 c 2,7,-1
 149 565 l 2,8,9
 149 578 149 578 158.5 587.5 c 128,-1,10
 168 597 168 597 181 597 c 2,11,-1
 299 597 l 2,12,13
 308 597 308 597 319 604 c 2,14,-1
 576 808 l 1,15,-1
 576 735 l 2,16,17
 576 722 576 722 585 712.5 c 128,-1,18
 594 703 594 703 608 703 c 128,-1,19
 622 703 622 703 631 712.5 c 128,-1,20
 640 722 640 722 640 735 c 2,21,-1
 640 875 l 2,22,23
 640 895 640 895 622 903 c 0,24,25
 605 912 605 912 588 900 c 2,26,-1
 288 661 l 1,27,-1
 182 661 l 2,28,29
 142 661 142 661 114 633 c 128,-1,30
 86 605 86 605 86 565 c 2,31,-1
 86 331 l 2,32,33
 86 276 86 276 131 249 c 0,34,35
 139 244 139 244 148 244 c 0,0,1
75 6 m 0,36,37
 88 6 88 6 97 16 c 2,38,-1
 915 834 l 2,39,40
 925 843 925 843 925 856 c 128,-1,41
 925 869 925 869 915 879 c 0,42,43
 906 889 906 889 893 889 c 128,-1,44
 880 889 880 889 870 879 c 2,45,-1
 52 61 l 2,46,47
 43 51 43 51 43 38 c 128,-1,48
 43 25 43 25 52 16 c 0,49,50
 61 6 61 6 75 6 c 0,36,37
608 -11 m 0,51,52
 617 -11 617 -11 622 -7 c 0,53,54
 640 1 640 1 640 21 c 2,55,-1
 640 387 l 2,56,57
 640 400 640 400 630.5 409.5 c 128,-1,58
 621 419 621 419 608 419 c 128,-1,59
 595 419 595 419 585.5 409.5 c 128,-1,60
 576 400 576 400 576 387 c 2,61,-1
 576 87 l 1,62,-1
 423 209 l 2,63,64
 413 217 413 217 399.5 215.5 c 128,-1,65
 386 214 386 214 378 203 c 0,66,67
 370 193 370 193 371.5 180 c 128,-1,68
 373 167 373 167 384 158 c 2,69,-1
 588 -4 l 2,70,71
 598 -11 598 -11 608 -11 c 0,51,52
EndSplineSet
EndChar

StartChar: uniF102
Encoding: 61698 61698 75
Width: 1024
GlyphClass: 2
Flags: W
LayerCount: 2
Fore
SplineSet
512 875 m 128,-1,1
 688 875 688 875 813.5 749.5 c 128,-1,2
 939 624 939 624 939 448 c 128,-1,3
 939 272 939 272 813.5 146.5 c 128,-1,4
 688 21 688 21 512 21 c 128,-1,5
 336 21 336 21 210.5 146.5 c 128,-1,6
 85 272 85 272 85 448 c 128,-1,7
 85 624 85 624 210.5 749.5 c 128,-1,0
 336 875 336 875 512 875 c 128,-1,1
512 85 m 0,8,9
 646 85 646 85 747 172 c 128,-1,10
 848 259 848 259 869 389 c 1,11,12
 863 386 863 386 862 385 c 0,13,14
 850 380 850 380 837 380 c 0,15,16
 812 380 812 380 801 401 c 2,17,-1
 794 413 l 2,18,19
 766 468 766 468 751 487 c 0,20,21
 747 490 747 490 737 493 c 0,22,23
 654 523 654 523 633 558 c 0,24,25
 613 594 613 594 642 651 c 1,26,-1
 642 653 l 2,27,28
 640 656 640 656 634.5 662 c 128,-1,29
 629 668 629 668 629 669 c 0,30,31
 584 716 584 716 600 751 c 0,32,33
 609 770 609 770 647 784 c 1,34,35
 587 809 587 809 521 810 c 1,36,37
 534 762 534 762 523 744 c 0,38,39
 515 731 515 731 452 698 c 0,40,41
 446 695 446 695 435.5 689.5 c 128,-1,42
 425 684 425 684 422 682 c 2,43,-1
 394 667 l 2,44,45
 378 659 378 659 377 657 c 0,46,47
 373 652 373 652 346 598 c 1,48,49
 365 591 365 591 372 589 c 0,50,51
 380 588 380 588 438 585 c 0,52,53
 471 585 471 585 478 583 c 0,54,55
 498 579 498 579 536.5 547 c 128,-1,56
 575 515 575 515 585 490 c 0,57,58
 596 462 596 462 590.5 425.5 c 128,-1,59
 585 389 585 389 568 375 c 0,60,61
 544 357 544 357 530 340 c 0,62,63
 528 334 528 334 509 295 c 0,64,65
 469 213 469 213 458 196.5 c 128,-1,66
 447 180 447 180 429 180 c 0,67,68
 421 180 421 180 413 183.5 c 128,-1,69
 405 187 405 187 399.5 193 c 128,-1,70
 394 199 394 199 388.5 205.5 c 128,-1,71
 383 212 383 212 380 217.5 c 128,-1,72
 377 223 377 223 375 227 c 2,73,-1
 373 231 l 2,74,75
 369 244 369 244 363 301 c 0,76,77
 354 376 354 376 353 379 c 0,78,79
 333 396 333 396 318 405 c 1,80,-1
 309 414 l 1,81,82
 284 463 284 463 285 491 c 0,83,84
 286 516 286 516 297 548 c 1,85,86
 225 574 225 574 179 592 c 1,87,88
 149 523 149 523 149 448 c 0,89,90
 149 298 149 298 255.5 191.5 c 128,-1,91
 362 85 362 85 512 85 c 0,8,9
464 777 m 1,92,-1
 456 806 l 1,93,94
 380 794 380 794 316 752.5 c 128,-1,95
 252 711 252 711 210 649 c 1,96,-1
 286 621 l 1,97,98
 320 691 320 691 330 701 c 0,99,100
 338 710 338 710 366 725 c 0,101,102
 386 735 386 735 391 738 c 0,103,104
 409 748 409 748 423 755 c 0,105,106
 431 759 431 759 464 777 c 1,92,-1
847 451 m 1,107,-1
 873 472 l 1,108,109
 868 553 868 553 829 623 c 128,-1,110
 790 693 790 693 727 739 c 1,111,112
 691 731 691 731 667 723 c 1,113,-1
 676 712 l 2,114,115
 713 671 713 671 707 644 c 0,116,117
 706 635 706 635 699 623 c 0,118,119
 686 596 686 596 689 589 c 0,120,121
 698 572 698 572 760 553 c 0,122,123
 788 542 788 542 793 537 c 0,124,125
 808 523 808 523 847 451 c 1,107,-1
349 489 m 0,126,127
 349 474 349 474 360 454 c 1,128,129
 403 424 403 424 409 412 c 0,130,131
 416 401 416 401 427 308 c 2,132,-1
 430 279 l 1,133,134
 435 288 435 288 442 303.5 c 128,-1,135
 449 319 449 319 451 322 c 0,136,137
 473 370 473 370 478 376 c 0,138,139
 490 394 490 394 525 422 c 1,140,141
 534 448 534 448 526 466 c 0,142,143
 522 475 522 475 498 495.5 c 128,-1,144
 474 516 474 516 463 521 c 1,145,-1
 436 521 l 2,146,147
 376 523 376 523 358 527 c 1,148,-1
 357 527 l 1,149,150
 350 501 350 501 349 489 c 0,126,127
EndSplineSet
EndChar

StartChar: uniF103
Encoding: 61699 61699 76
Width: 1024
GlyphClass: 2
Flags: W
LayerCount: 2
Fore
SplineSet
752 811 m 1,0,-1
 991 811 l 2,1,2
 1004 811 1004 811 1013.5 802 c 128,-1,3
 1023 793 1023 793 1023 780 c 0,4,5
 1023 766 1023 766 1013.5 757 c 128,-1,6
 1004 748 1004 748 991 748 c 2,7,-1
 752 748 l 1,8,-1
 822 678 l 2,9,10
 832 667 832 667 832 653.5 c 128,-1,11
 832 640 832 640 822 629 c 0,12,13
 812 619 812 619 797 619 c 0,14,15
 783 619 783 619 773 629 c 2,16,-1
 647 755 l 2,17,18
 637 765 637 765 637 779 c 0,19,20
 637 794 637 794 647 804 c 2,21,-1
 773 930 l 2,22,23
 784 940 784 940 797.5 940 c 128,-1,24
 811 940 811 940 822 930 c 0,25,26
 832 919 832 919 832 905.5 c 128,-1,27
 832 892 832 892 822 881 c 2,28,-1
 752 811 l 1,0,-1
360 456 m 128,-1,30
 243 456 243 456 197 509 c 0,31,32
 146 568 146 568 162 696 c 0,33,34
 174 787 174 787 226.5 838 c 128,-1,35
 279 889 279 889 360 889 c 128,-1,36
 441 889 441 889 493.5 838 c 128,-1,37
 546 787 546 787 558 696 c 0,38,39
 576 570 576 570 524 509 c 0,40,29
 477 456 477 456 360 456 c 128,-1,30
226 688 m 0,41,42
 212 588 212 588 245 551 c 0,43,44
 272 520 272 520 360 520 c 128,-1,45
 448 520 448 520 476 551 c 0,46,47
 508 590 508 590 495 688 c 0,48,49
 492 711 492 711 485 731.5 c 128,-1,50
 478 752 478 752 463.5 775 c 128,-1,51
 449 798 449 798 422.5 811.5 c 128,-1,52
 396 825 396 825 360 825 c 0,53,54
 313 825 313 825 282 800 c 128,-1,55
 251 775 251 775 240.5 747.5 c 128,-1,56
 230 720 230 720 226 688 c 0,41,42
713 140 m 0,57,58
 724 93 724 93 696 57 c 0,59,60
 667 22 667 22 622 22 c 2,61,-1
 98 22 l 2,62,63
 53 22 53 22 24 57 c 0,64,65
 -4 93 -4 93 8 140 c 0,66,67
 36 252 36 252 134 323.5 c 128,-1,68
 232 395 232 395 360 395 c 0,69,70
 487 395 487 395 585.5 324 c 128,-1,71
 684 253 684 253 713 140 c 0,57,58
646 97 m 0,72,73
 654 108 654 108 651 124 c 0,74,75
 628 216 628 216 547 273.5 c 128,-1,76
 466 331 466 331 360 331 c 128,-1,77
 254 331 254 331 173.5 273.5 c 128,-1,78
 93 216 93 216 70 124 c 0,79,80
 65 108 65 108 75 97 c 0,81,82
 83 86 83 86 98 86 c 2,83,-1
 622 86 l 2,84,85
 637 86 637 86 646 97 c 0,72,73
EndSplineSet
EndChar

StartChar: uniF104
Encoding: 61700 61700 77
Width: 1024
GlyphClass: 2
Flags: W
LayerCount: 2
Fore
SplineSet
705 844 m 2,0,-1
 876 673 l 2,1,2
 885 664 885 664 885 651 c 128,-1,3
 885 638 885 638 876 628 c 2,4,-1
 705 457 l 2,5,6
 696 448 696 448 683 448 c 0,7,8
 669 448 669 448 660 457 c 0,9,10
 651 467 651 467 651 480 c 128,-1,11
 651 493 651 493 660 503 c 2,12,-1
 776 619 l 1,13,-1
 171 619 l 2,14,15
 158 619 158 619 148.5 628.5 c 128,-1,16
 139 638 139 638 139 651 c 128,-1,17
 139 664 139 664 148.5 673.5 c 128,-1,18
 158 683 158 683 171 683 c 2,19,-1
 776 683 l 1,20,-1
 660 799 l 2,21,22
 651 808 651 808 651 821 c 128,-1,23
 651 834 651 834 660 844 c 0,24,25
 669 853 669 853 682.5 853 c 128,-1,26
 696 853 696 853 705 844 c 2,0,-1
248 277 m 1,27,-1
 853 277 l 2,28,29
 866 277 866 277 875.5 267.5 c 128,-1,30
 885 258 885 258 885 245 c 128,-1,31
 885 232 885 232 875.5 222.5 c 128,-1,32
 866 213 866 213 853 213 c 2,33,-1
 248 213 l 1,34,-1
 364 97 l 2,35,36
 373 88 373 88 373 75 c 128,-1,37
 373 62 373 62 364 52 c 0,38,39
 355 43 355 43 341 43 c 0,40,41
 328 43 328 43 319 52 c 2,42,-1
 148 223 l 2,43,44
 139 232 139 232 139 245 c 128,-1,45
 139 258 139 258 148 268 c 2,46,-1
 319 439 l 2,47,48
 328 448 328 448 341 448 c 128,-1,49
 354 448 354 448 364 439 c 0,50,51
 374 429 374 429 374 416 c 128,-1,52
 374 403 374 403 364 393 c 2,53,-1
 248 277 l 1,27,-1
EndSplineSet
EndChar

StartChar: uniF105
Encoding: 61701 61701 78
Width: 1024
GlyphClass: 2
Flags: W
LayerCount: 2
Fore
SplineSet
824 564 m 0,0,1
 841 566 841 566 848 581 c 2,2,-1
 1003 894 l 2,3,4
 1009 906 1009 906 1005 918.5 c 128,-1,5
 1001 931 1001 931 989 937 c 128,-1,6
 977 943 977 943 964.5 938.5 c 128,-1,7
 952 934 952 934 946 923 c 2,8,-1
 811 651 l 1,9,-1
 729 738 l 2,10,11
 720 747 720 747 707 747.5 c 128,-1,12
 694 748 694 748 684 739 c 128,-1,13
 674 730 674 730 674 717 c 128,-1,14
 674 704 674 704 683 694 c 2,15,-1
 796 573 l 2,16,17
 806 563 806 563 824 564 c 0,0,1
360 456 m 0,18,19
 242 456 242 456 196 509 c 0,20,21
 144 568 144 568 162 697 c 0,22,23
 174 787 174 787 226.5 838 c 128,-1,24
 279 889 279 889 360 889 c 128,-1,25
 441 889 441 889 493.5 838 c 128,-1,26
 546 787 546 787 558 697 c 0,27,28
 576 570 576 570 524 509 c 0,29,30
 477 456 477 456 360 456 c 0,18,19
225 688 m 0,31,32
 212 589 212 589 244 552 c 0,33,34
 272 520 272 520 360 520 c 0,35,36
 449 520 449 520 475 552 c 0,37,38
 509 589 509 589 495 688 c 0,39,40
 492 711 492 711 485 731.5 c 128,-1,41
 478 752 478 752 463.5 775 c 128,-1,42
 449 798 449 798 422.5 811.5 c 128,-1,43
 396 825 396 825 360 825 c 128,-1,44
 324 825 324 825 297.5 811.5 c 128,-1,45
 271 798 271 798 256.5 775 c 128,-1,46
 242 752 242 752 235 731.5 c 128,-1,47
 228 711 228 711 225 688 c 0,31,32
713 139 m 0,48,49
 724 92 724 92 696 56 c 0,50,51
 669 21 669 21 622 21 c 2,52,-1
 97 21 l 2,53,54
 51 21 51 21 23 57 c 0,55,56
 -6 93 -6 93 7 139 c 0,57,58
 35 252 35 252 133.5 323.5 c 128,-1,59
 232 395 232 395 360 395 c 128,-1,60
 488 395 488 395 586.5 323.5 c 128,-1,61
 685 252 685 252 713 139 c 0,48,49
646 96 m 0,62,63
 656 108 656 108 651 124 c 0,64,65
 629 215 629 215 547.5 273 c 128,-1,66
 466 331 466 331 360 331 c 128,-1,67
 254 331 254 331 172.5 273 c 128,-1,68
 91 215 91 215 69 124 c 0,69,70
 64 108 64 108 74 96 c 0,71,72
 82 85 82 85 97 85 c 2,73,-1
 622 85 l 2,74,75
 637 85 637 85 646 96 c 0,62,63
EndSplineSet
EndChar

StartChar: uniF106
Encoding: 61702 61702 79
Width: 1024
GlyphClass: 2
Flags: W
LayerCount: 2
Fore
SplineSet
762 648 m 1,0,-1
 843 648 l 2,1,2
 883 648 883 648 911 620 c 128,-1,3
 939 592 939 592 939 552 c 2,4,-1
 939 116 l 2,5,6
 939 76 939 76 911 48 c 128,-1,7
 883 20 883 20 843 20 c 2,8,-1
 181 20 l 2,9,10
 141 20 141 20 113 48 c 128,-1,11
 85 76 85 76 85 116 c 2,12,-1
 85 552 l 2,13,14
 85 592 85 592 113 620 c 128,-1,15
 141 648 141 648 181 648 c 2,16,-1
 262 648 l 1,17,18
 268 747 268 747 340.5 815.5 c 128,-1,19
 413 884 413 884 512 884 c 0,20,21
 612 884 612 884 684 815.5 c 128,-1,22
 756 747 756 747 762 648 c 1,0,-1
512 820 m 128,-1,24
 439 820 439 820 385.5 770 c 128,-1,25
 332 720 332 720 326 648 c 1,26,-1
 698 648 l 1,27,28
 692 720 692 720 638.5 770 c 128,-1,23
 585 820 585 820 512 820 c 128,-1,24
875 116 m 2,29,-1
 875 552 l 2,30,31
 875 565 875 565 865.5 574.5 c 128,-1,32
 856 584 856 584 843 584 c 2,33,-1
 181 584 l 2,34,35
 168 584 168 584 158.5 574.5 c 128,-1,36
 149 565 149 565 149 552 c 2,37,-1
 149 116 l 2,38,39
 149 103 149 103 158.5 93.5 c 128,-1,40
 168 84 168 84 181 84 c 2,41,-1
 843 84 l 2,42,43
 856 84 856 84 865.5 93.5 c 128,-1,44
 875 103 875 103 875 116 c 2,29,-1
512 460 m 128,-1,46
 548 460 548 460 574 434.5 c 128,-1,47
 600 409 600 409 600 372 c 0,48,49
 600 344 600 344 584.5 322 c 128,-1,50
 569 300 569 300 544 291 c 1,51,-1
 544 231 l 2,52,53
 544 218 544 218 535 208.5 c 128,-1,54
 526 199 526 199 512 199 c 128,-1,55
 498 199 498 199 489 208.5 c 128,-1,56
 480 218 480 218 480 231 c 2,57,-1
 480 291 l 1,58,59
 455 301 455 301 439.5 323 c 128,-1,60
 424 345 424 345 424 372 c 0,61,62
 424 409 424 409 450 434.5 c 128,-1,45
 476 460 476 460 512 460 c 128,-1,46
EndSplineSet
EndChar

StartChar: uniF107
Encoding: 61703 61703 80
Width: 1024
GlyphClass: 2
Flags: W
LayerCount: 2
Fore
SplineSet
375 456 m 0,0,1
 492 456 492 456 539 509 c 0,2,3
 591 570 591 570 573 697 c 0,4,5
 561 787 561 787 508.5 838 c 128,-1,6
 456 889 456 889 375 889 c 128,-1,7
 294 889 294 889 241.5 838 c 128,-1,8
 189 787 189 787 177 697 c 0,9,10
 159 568 159 568 211 509 c 0,11,12
 257 456 257 456 375 456 c 0,0,1
375 825 m 128,-1,14
 411 825 411 825 437.5 811.5 c 128,-1,15
 464 798 464 798 478.5 775 c 128,-1,16
 493 752 493 752 500 731.5 c 128,-1,17
 507 711 507 711 510 688 c 0,18,19
 522 587 522 587 490 552 c 0,20,21
 464 520 464 520 375 520 c 0,22,23
 285 520 285 520 259 552 c 0,24,25
 226 588 226 588 240 688 c 0,26,27
 243 711 243 711 250 731.5 c 128,-1,28
 257 752 257 752 271.5 775 c 128,-1,29
 286 798 286 798 312.5 811.5 c 128,-1,13
 339 825 339 825 375 825 c 128,-1,14
1004 524 m 0,30,31
 1013 514 1013 514 1013 501 c 128,-1,32
 1013 488 1013 488 1004 479 c 2,33,-1
 855 329 l 2,34,35
 844 320 844 320 832 320 c 128,-1,36
 820 320 820 320 809 329 c 2,37,-1
 660 479 l 2,38,39
 650 488 650 488 650.5 501 c 128,-1,40
 651 514 651 514 660 524 c 0,41,42
 669 533 669 533 682.5 533 c 128,-1,43
 696 533 696 533 705 524 c 2,44,-1
 832 397 l 1,45,-1
 959 524 l 2,46,47
 968 533 968 533 981 533 c 128,-1,48
 994 533 994 533 1004 524 c 0,30,31
112 21 m 2,49,-1
 637 21 l 2,50,51
 684 21 684 21 711 57 c 0,52,53
 739 93 739 93 728 139 c 0,54,55
 700 252 700 252 601.5 323.5 c 128,-1,56
 503 395 503 395 375 395 c 128,-1,57
 247 395 247 395 148.5 323.5 c 128,-1,58
 50 252 50 252 21 139 c 0,59,60
 10 93 10 93 38 57 c 128,-1,61
 66 21 66 21 112 21 c 2,49,-1
375 331 m 128,-1,63
 481 331 481 331 562.5 273 c 128,-1,64
 644 215 644 215 666 124 c 0,65,66
 670 106 670 106 661 96 c 0,67,68
 652 85 652 85 637 85 c 2,69,-1
 112 85 l 2,70,71
 97 85 97 85 89 96 c 0,72,73
 79 108 79 108 84 124 c 0,74,75
 106 215 106 215 187.5 273 c 128,-1,62
 269 331 269 331 375 331 c 128,-1,63
EndSplineSet
EndChar

StartChar: uniF109
Encoding: 61705 61705 81
Width: 1024
GlyphClass: 2
Flags: W
LayerCount: 2
Fore
SplineSet
181 875 m 2,0,-1
 843 875 l 2,1,2
 883 875 883 875 911 847 c 128,-1,3
 939 819 939 819 939 779 c 2,4,-1
 939 117 l 2,5,6
 939 77 939 77 911 49 c 128,-1,7
 883 21 883 21 843 21 c 2,8,-1
 181 21 l 2,9,10
 141 21 141 21 113 49 c 128,-1,11
 85 77 85 77 85 117 c 2,12,-1
 85 779 l 2,13,14
 85 819 85 819 113 847 c 128,-1,15
 141 875 141 875 181 875 c 2,0,-1
843 811 m 2,16,-1
 181 811 l 2,17,18
 168 811 168 811 158.5 801.5 c 128,-1,19
 149 792 149 792 149 779 c 2,20,-1
 149 207 l 1,21,-1
 358 420 l 2,22,23
 369 431 369 431 380 430 c 0,24,25
 393 430 393 430 403 420 c 2,26,-1
 480 343 l 1,27,-1
 665 530 l 2,28,29
 675 540 675 540 687 540 c 0,30,31
 700 540 700 540 710 530 c 2,32,-1
 875 366 l 1,33,-1
 875 779 l 2,34,35
 875 792 875 792 865.5 801.5 c 128,-1,36
 856 811 856 811 843 811 c 2,16,-1
378 671 m 0,37,38
 351 671 351 671 332 652 c 128,-1,39
 313 633 313 633 313 605 c 0,40,41
 313 578 313 578 332 559 c 128,-1,42
 351 540 351 540 378 540 c 0,43,44
 406 540 406 540 425 559 c 128,-1,45
 444 578 444 578 444 605 c 0,46,47
 444 633 444 633 425 652 c 128,-1,48
 406 671 406 671 378 671 c 0,37,38
739 85 m 1,49,-1
 843 85 l 2,50,51
 856 85 856 85 865.5 94.5 c 128,-1,52
 875 104 875 104 875 117 c 2,53,-1
 875 275 l 1,54,-1
 688 462 l 1,55,-1
 526 298 l 1,56,-1
 739 85 l 1,49,-1
381 352 m 1,57,-1
 150 116 l 1,58,59
 150 103 150 103 159 94 c 128,-1,60
 168 85 168 85 181 85 c 2,61,-1
 649 85 l 1,62,-1
 381 352 l 1,57,-1
EndSplineSet
EndChar

StartChar: uniF110
Encoding: 61712 61712 82
Width: 1024
GlyphClass: 2
Flags: W
LayerCount: 2
Fore
SplineSet
181 21 m 2,0,-1
 843 21 l 2,1,2
 883 21 883 21 911 49 c 128,-1,3
 939 77 939 77 939 117 c 2,4,-1
 939 647 l 2,5,6
 939 687 939 687 911 715 c 128,-1,7
 883 743 883 743 843 743 c 2,8,-1
 749 743 l 1,9,10
 711 805 711 805 648 840 c 128,-1,11
 585 875 585 875 512 875 c 128,-1,12
 439 875 439 875 376 840 c 128,-1,13
 313 805 313 805 275 743 c 1,14,-1
 181 743 l 2,15,16
 141 743 141 743 113 715 c 128,-1,17
 85 687 85 687 85 647 c 2,18,-1
 85 117 l 2,19,20
 85 77 85 77 113 49 c 128,-1,21
 141 21 141 21 181 21 c 2,0,-1
181 679 m 2,22,-1
 285 679 l 1,23,24
 310 674 310 674 321 695 c 0,25,26
 350 748 350 748 401 779.5 c 128,-1,27
 452 811 452 811 512 811 c 128,-1,28
 572 811 572 811 623 779.5 c 128,-1,29
 674 748 674 748 703 695 c 0,30,31
 713 675 713 675 736 679 c 1,32,-1
 843 679 l 2,33,34
 856 679 856 679 865.5 669.5 c 128,-1,35
 875 660 875 660 875 647 c 2,36,-1
 875 117 l 2,37,38
 875 104 875 104 865.5 94.5 c 128,-1,39
 856 85 856 85 843 85 c 2,40,-1
 181 85 l 2,41,42
 168 85 168 85 158.5 94.5 c 128,-1,43
 149 104 149 104 149 117 c 2,44,-1
 149 647 l 2,45,46
 149 660 149 660 158.5 669.5 c 128,-1,47
 168 679 168 679 181 679 c 2,22,-1
512 197 m 128,-1,49
 598 197 598 197 658.5 257.5 c 128,-1,50
 719 318 719 318 719 404 c 128,-1,51
 719 490 719 490 658.5 550.5 c 128,-1,52
 598 611 598 611 512 611 c 128,-1,53
 426 611 426 611 365.5 550.5 c 128,-1,54
 305 490 305 490 305 404 c 128,-1,55
 305 318 305 318 365.5 257.5 c 128,-1,48
 426 197 426 197 512 197 c 128,-1,49
512 548 m 128,-1,57
 571 548 571 548 613 505.5 c 128,-1,58
 655 463 655 463 655 404 c 128,-1,59
 655 345 655 345 613 303 c 128,-1,60
 571 261 571 261 512 261 c 128,-1,61
 453 261 453 261 411 303 c 128,-1,62
 369 345 369 345 369 404 c 128,-1,63
 369 463 369 463 411 505.5 c 128,-1,56
 453 548 453 548 512 548 c 128,-1,57
EndSplineSet
EndChar

StartChar: uniF111
Encoding: 61713 61713 83
Width: 1024
GlyphClass: 2
Flags: W
LayerCount: 2
Fore
SplineSet
183 21 m 2,0,-1
 841 21 l 2,1,2
 882 21 882 21 910.5 49.5 c 128,-1,3
 939 78 939 78 939 119 c 2,4,-1
 939 645 l 2,5,6
 939 686 939 686 910.5 714.5 c 128,-1,7
 882 743 882 743 841 743 c 2,8,-1
 749 743 l 1,9,10
 711 805 711 805 648 840 c 128,-1,11
 585 875 585 875 512 875 c 128,-1,12
 439 875 439 875 376 840 c 128,-1,13
 313 805 313 805 275 743 c 1,14,-1
 183 743 l 2,15,16
 142 743 142 743 113.5 714.5 c 128,-1,17
 85 686 85 686 85 645 c 2,18,-1
 85 119 l 2,19,20
 85 78 85 78 113.5 49.5 c 128,-1,21
 142 21 142 21 183 21 c 2,0,-1
183 679 m 2,22,-1
 285 679 l 1,23,24
 310 674 310 674 321 695 c 0,25,26
 349 748 349 748 400.5 779.5 c 128,-1,27
 452 811 452 811 512 811 c 128,-1,28
 572 811 572 811 623 779.5 c 128,-1,29
 674 748 674 748 703 695 c 0,30,31
 713 675 713 675 736 679 c 1,32,-1
 841 679 l 2,33,34
 855 679 855 679 865 669 c 128,-1,35
 875 659 875 659 875 645 c 2,36,-1
 875 119 l 2,37,38
 875 106 875 106 864.5 95.5 c 128,-1,39
 854 85 854 85 841 85 c 2,40,-1
 183 85 l 2,41,42
 169 85 169 85 159 95 c 128,-1,43
 149 105 149 105 149 119 c 2,44,-1
 149 645 l 2,45,46
 149 659 149 659 159 669 c 128,-1,47
 169 679 169 679 183 679 c 2,22,-1
512 612 m 128,-1,49
 598 612 598 612 658.5 551 c 128,-1,50
 719 490 719 490 719 404 c 128,-1,51
 719 318 719 318 658.5 257.5 c 128,-1,52
 598 197 598 197 512 197 c 128,-1,53
 426 197 426 197 365.5 257.5 c 128,-1,54
 305 318 305 318 305 404 c 128,-1,55
 305 490 305 490 365.5 551 c 128,-1,48
 426 612 426 612 512 612 c 128,-1,49
544 373 m 1,56,-1
 597 373 l 2,57,58
 610 373 610 373 619.5 382.5 c 128,-1,59
 629 392 629 392 629 405 c 128,-1,60
 629 418 629 418 619.5 427.5 c 128,-1,61
 610 437 610 437 597 437 c 2,62,-1
 544 437 l 1,63,-1
 544 491 l 2,64,65
 544 504 544 504 534.5 513.5 c 128,-1,66
 525 523 525 523 512 523 c 128,-1,67
 499 523 499 523 489.5 513.5 c 128,-1,68
 480 504 480 504 480 491 c 2,69,-1
 480 437 l 1,70,-1
 427 437 l 2,71,72
 414 437 414 437 404.5 427.5 c 128,-1,73
 395 418 395 418 395 405 c 128,-1,74
 395 392 395 392 404.5 382.5 c 128,-1,75
 414 373 414 373 427 373 c 2,76,-1
 480 373 l 1,77,-1
 480 320 l 2,78,79
 480 306 480 306 489 297 c 128,-1,80
 498 288 498 288 512 288 c 128,-1,81
 526 288 526 288 535 297 c 128,-1,82
 544 306 544 306 544 320 c 2,83,-1
 544 373 l 1,56,-1
EndSplineSet
EndChar

StartChar: uniF112
Encoding: 61714 61714 84
Width: 1024
GlyphClass: 2
Flags: W
LayerCount: 2
Fore
SplineSet
765 852 m 2,0,-1
 916 701 l 2,1,2
 944 673 944 673 944 633 c 0,3,4
 944 594 944 594 916 566 c 2,5,-1
 432 82 l 2,6,7
 413 62 413 62 382 55 c 1,8,-1
 131 32 l 1,9,-1
 128 32 l 2,10,11
 114 32 114 32 105 41 c 0,12,13
 95 53 95 53 96 67 c 2,14,-1
 119 315 l 2,15,16
 125 349 125 349 146 368 c 2,17,-1
 630 852 l 2,18,19
 657 879 657 879 697.5 879 c 128,-1,20
 738 879 738 879 765 852 c 2,0,-1
822 562 m 1,21,-1
 871 611 l 2,22,23
 880 620 880 620 880 633 c 0,24,25
 880 647 880 647 871 656 c 2,26,-1
 720 807 l 2,27,28
 711 816 711 816 698 816 c 0,29,30
 684 816 684 816 675 807 c 2,31,-1
 626 758 l 1,32,-1
 822 562 l 1,21,-1
777 517 m 1,33,-1
 581 713 l 1,34,-1
 222 354 l 2,35,36
 213 345 213 345 213 332 c 128,-1,37
 213 319 213 319 222 309 c 2,38,-1
 373 158 l 2,39,40
 382 149 382 149 395.5 149 c 128,-1,41
 409 149 409 149 418 158 c 2,42,-1
 777 517 l 1,33,-1
327 114 m 1,43,-1
 178 263 l 1,44,-1
 163 99 l 1,45,-1
 327 114 l 1,43,-1
EndSplineSet
EndChar

StartChar: uniF113
Encoding: 61715 61715 85
Width: 1024
GlyphClass: 2
Flags: W
LayerCount: 2
Fore
SplineSet
162 873 m 2,0,-1
 378 873 l 2,1,2
 419 873 419 873 448.5 843.5 c 128,-1,3
 478 814 478 814 478 773 c 2,4,-1
 478 391 l 2,5,6
 478 271 478 271 415.5 175.5 c 128,-1,7
 353 80 353 80 266 26 c 0,8,9
 258 21 258 21 249 21 c 0,10,11
 239 21 239 21 230 27 c 0,12,13
 213 40 213 40 218 61 c 0,14,15
 261 231 261 231 244 359 c 1,16,-1
 162 359 l 2,17,18
 121 359 121 359 91.5 388.5 c 128,-1,19
 62 418 62 418 62 459 c 2,20,-1
 62 773 l 2,21,22
 62 814 62 814 91.5 843.5 c 128,-1,23
 121 873 121 873 162 873 c 2,0,-1
649 873 m 2,24,-1
 865 873 l 2,25,26
 907 873 907 873 936 843.5 c 128,-1,27
 965 814 965 814 965 773 c 2,28,-1
 965 391 l 2,29,30
 965 271 965 271 903 175.5 c 128,-1,31
 841 80 841 80 753 26 c 0,32,33
 745 21 745 21 737 21 c 0,34,35
 725 21 725 21 718 27 c 0,36,37
 700 40 700 40 706 61 c 0,38,39
 746 226 746 226 732 359 c 1,40,-1
 649 359 l 2,41,42
 608 359 608 359 578.5 388.5 c 128,-1,43
 549 418 549 418 549 459 c 2,44,-1
 549 773 l 2,45,46
 549 814 549 814 578.5 843.5 c 128,-1,47
 608 873 608 873 649 873 c 2,24,-1
298 132 m 1,48,49
 414 244 414 244 414 391 c 2,50,-1
 414 773 l 2,51,52
 414 788 414 788 403.5 798.5 c 128,-1,53
 393 809 393 809 378 809 c 2,54,-1
 162 809 l 2,55,56
 147 809 147 809 136.5 798.5 c 128,-1,57
 126 788 126 788 126 773 c 2,58,-1
 126 459 l 2,59,60
 126 444 126 444 136.5 433.5 c 128,-1,61
 147 423 147 423 162 423 c 2,62,-1
 272 423 l 2,63,64
 298 423 298 423 303 398 c 0,65,66
 325 289 325 289 298 132 c 1,48,49
786 132 m 1,67,68
 901 243 901 243 901 391 c 2,69,-1
 901 773 l 2,70,71
 901 788 901 788 890.5 798.5 c 128,-1,72
 880 809 880 809 865 809 c 2,73,-1
 649 809 l 2,74,75
 634 809 634 809 623.5 798.5 c 128,-1,76
 613 788 613 788 613 773 c 2,77,-1
 613 459 l 2,78,79
 613 444 613 444 623.5 433.5 c 128,-1,80
 634 423 634 423 649 423 c 2,81,-1
 759 423 l 2,82,83
 785 423 785 423 790 398 c 0,84,85
 793 391 793 391 796.5 364 c 128,-1,86
 800 337 800 337 799.5 271 c 128,-1,87
 799 205 799 205 786 132 c 1,67,68
EndSplineSet
EndChar

StartChar: uniF114
Encoding: 61716 61716 86
Width: 1024
GlyphClass: 2
Flags: W
LayerCount: 2
Fore
SplineSet
585 734 m 2,0,-1
 841 478 l 2,1,2
 853 465 853 465 853 447.5 c 128,-1,3
 853 430 853 430 841 418 c 2,4,-1
 585 162 l 2,5,6
 570 149 570 149 555 149 c 0,7,8
 538 149 538 149 525 162 c 0,9,10
 512 174 512 174 512 192 c 128,-1,11
 512 210 512 210 525 222 c 2,12,-1
 708 405 l 1,13,-1
 171 405 l 2,14,15
 153 405 153 405 140.5 417.5 c 128,-1,16
 128 430 128 430 128 448 c 128,-1,17
 128 466 128 466 140.5 478.5 c 128,-1,18
 153 491 153 491 171 491 c 2,19,-1
 708 491 l 1,20,-1
 525 674 l 2,21,22
 512 687 512 687 512 704.5 c 128,-1,23
 512 722 512 722 525 734 c 0,24,25
 537 747 537 747 554.5 747 c 128,-1,26
 572 747 572 747 585 734 c 2,0,-1
EndSplineSet
EndChar

StartChar: uniF120
Encoding: 61728 61728 87
Width: 1024
GlyphClass: 2
Flags: W
LayerCount: 2
Fore
SplineSet
763 699 m 1,0,-1
 843 699 l 2,1,2
 883 699 883 699 911 671 c 128,-1,3
 939 643 939 643 939 603 c 2,4,-1
 939 117 l 2,5,6
 939 77 939 77 911 49 c 128,-1,7
 883 21 883 21 843 21 c 2,8,-1
 357 21 l 2,9,10
 317 21 317 21 289 49 c 128,-1,11
 261 77 261 77 261 117 c 2,12,-1
 261 197 l 1,13,-1
 181 197 l 2,14,15
 141 197 141 197 113 225 c 128,-1,16
 85 253 85 253 85 293 c 2,17,-1
 85 779 l 2,18,19
 85 819 85 819 113 847 c 128,-1,20
 141 875 141 875 181 875 c 2,21,-1
 667 875 l 2,22,23
 707 875 707 875 735 847 c 128,-1,24
 763 819 763 819 763 779 c 2,25,-1
 763 699 l 1,0,-1
149 779 m 2,26,-1
 149 293 l 2,27,28
 149 280 149 280 158.5 270.5 c 128,-1,29
 168 261 168 261 181 261 c 2,30,-1
 667 261 l 2,31,32
 680 261 680 261 689.5 270.5 c 128,-1,33
 699 280 699 280 699 293 c 2,34,-1
 699 779 l 2,35,36
 699 792 699 792 689.5 801.5 c 128,-1,37
 680 811 680 811 667 811 c 2,38,-1
 181 811 l 2,39,40
 168 811 168 811 158.5 801.5 c 128,-1,41
 149 792 149 792 149 779 c 2,26,-1
875 117 m 2,42,-1
 875 603 l 2,43,44
 875 616 875 616 865.5 625.5 c 128,-1,45
 856 635 856 635 843 635 c 2,46,-1
 763 635 l 1,47,-1
 763 293 l 2,48,49
 763 253 763 253 735 225 c 128,-1,50
 707 197 707 197 667 197 c 2,51,-1
 325 197 l 1,52,-1
 325 117 l 2,53,54
 325 104 325 104 334.5 94.5 c 128,-1,55
 344 85 344 85 357 85 c 2,56,-1
 843 85 l 2,57,58
 856 85 856 85 865.5 94.5 c 128,-1,59
 875 104 875 104 875 117 c 2,42,-1
EndSplineSet
EndChar

StartChar: uniF124
Encoding: 61732 61732 88
Width: 1025
GlyphClass: 2
Flags: W
LayerCount: 2
Fore
SplineSet
322 117 m 2,0,-1
 344 117 l 2,1,2
 375 117 375 117 397.5 137.5 c 128,-1,3
 420 158 420 158 423 189 c 2,4,-1
 424 194 l 2,5,6
 424 202 424 202 433 207 c 0,7,8
 443 210 443 210 449 204 c 2,9,-1
 452 201 l 2,10,11
 476 181 476 181 506.5 182.5 c 128,-1,12
 537 184 537 184 559 206 c 2,13,-1
 575 222 l 2,14,15
 597 244 597 244 598.5 274.5 c 128,-1,16
 600 305 600 305 580 329 c 2,17,-1
 577 332 l 2,18,19
 571 340 571 340 574 348 c 0,20,21
 579 357 579 357 587 357 c 2,22,-1
 592 358 l 2,23,24
 623 361 623 361 643.5 383.5 c 128,-1,25
 664 406 664 406 664 437 c 2,26,-1
 664 459 l 2,27,28
 664 490 664 490 643.5 512.5 c 128,-1,29
 623 535 623 535 592 538 c 2,30,-1
 587 538 l 2,31,32
 578 540 578 540 574 548 c 0,33,34
 571 557 571 557 577 563 c 2,35,-1
 580 567 l 2,36,37
 600 591 600 591 598.5 621.5 c 128,-1,38
 597 652 597 652 575 674 c 2,39,-1
 559 690 l 2,40,41
 537 712 537 712 506.5 713.5 c 128,-1,42
 476 715 476 715 453 695 c 2,43,-1
 449 691 l 2,44,45
 442 686 442 686 434 689 c 2,46,-1
 433 689 l 1,47,48
 424 693 424 693 424 702 c 2,49,-1
 423 707 l 2,50,51
 420 738 420 738 397.5 758.5 c 128,-1,52
 375 779 375 779 344 779 c 2,53,-1
 322 779 l 2,54,55
 291 779 291 779 268.5 758 c 128,-1,56
 246 737 246 737 243 706 c 2,57,-1
 243 702 l 2,58,59
 241 692 241 692 233 689 c 128,-1,60
 225 686 225 686 218 691 c 2,61,-1
 214 695 l 2,62,63
 190 715 190 715 159.5 713.5 c 128,-1,64
 129 712 129 712 107 690 c 2,65,-1
 91 674 l 2,66,67
 69 652 69 652 68 621.5 c 128,-1,68
 67 591 67 591 87 567 c 2,69,-1
 90 564 l 2,70,71
 95 556 95 556 92 548 c 2,72,-1
 92 547 l 2,73,74
 89 539 89 539 80 539 c 2,75,-1
 75 538 l 2,76,77
 44 535 44 535 23.5 512.5 c 128,-1,78
 3 490 3 490 3 459 c 2,79,-1
 3 437 l 2,80,81
 3 406 3 406 23.5 383.5 c 128,-1,82
 44 361 44 361 75 358 c 1,83,-1
 79 357 l 2,84,85
 88 357 88 357 92 348 c 0,86,87
 95 340 95 340 90 333 c 2,88,-1
 87 329 l 2,89,90
 67 305 67 305 68 274.5 c 128,-1,91
 69 244 69 244 91 222 c 2,92,-1
 107 206 l 2,93,94
 129 184 129 184 159.5 182.5 c 128,-1,95
 190 181 190 181 214 201 c 2,96,-1
 218 204 l 2,97,98
 224 210 224 210 233 207 c 0,99,100
 242 203 242 203 243 194 c 2,101,-1
 243 189 l 2,102,103
 246 158 246 158 268.5 137.5 c 128,-1,104
 291 117 291 117 322 117 c 2,0,-1
227 272 m 0,105,106
 198 272 198 272 177 254 c 2,107,-1
 173 251 l 2,108,109
 162 242 162 242 153 251 c 2,110,-1
 137 267 l 2,111,112
 127 277 127 277 136 288 c 2,113,-1
 139 292 l 2,114,115
 170 328 170 328 151 373 c 0,116,117
 133 418 133 418 85 421 c 1,118,-1
 80 422 l 2,119,120
 67 422 67 422 67 437 c 2,121,-1
 67 459 l 2,122,123
 67 474 67 474 80 474 c 2,124,-1
 85 475 l 2,125,126
 107 476 107 476 125 489.5 c 128,-1,127
 143 503 143 503 151 523 c 2,128,-1
 152 525 l 1,129,130
 168 569 168 569 139 605 c 1,131,-1
 136 608 l 2,132,133
 127 619 127 619 137 629 c 2,134,-1
 153 645 l 2,135,136
 163 655 163 655 173 646 c 2,137,-1
 177 642 l 1,138,139
 213 612 213 612 258 630 c 0,140,141
 303 650 303 650 306 696 c 1,142,-1
 307 701 l 2,143,144
 309 715 309 715 322 715 c 2,145,-1
 344 715 l 2,146,147
 358 715 358 715 360 701 c 2,148,-1
 360 696 l 1,149,150
 365 649 365 649 407 631 c 2,151,-1
 409 630 l 2,152,153
 452 612 452 612 490 642 c 1,154,-1
 493 645 l 2,155,156
 503 655 503 655 514 645 c 2,157,-1
 530 629 l 2,158,159
 539 618 539 618 531 608 c 2,160,-1
 528 605 l 1,161,162
 497 568 497 568 515 523 c 0,163,164
 534 480 534 480 581 475 c 1,165,-1
 586 474 l 2,166,167
 600 474 600 474 600 459 c 2,168,-1
 600 437 l 2,169,170
 600 422 600 422 586 422 c 2,171,-1
 581 421 l 1,172,173
 535 418 535 418 515 373 c 0,174,175
 497 328 497 328 528 291 c 1,176,-1
 531 288 l 2,177,178
 539 278 539 278 530 267 c 2,179,-1
 514 252 l 2,180,181
 505 243 505 243 493 251 c 2,182,-1
 490 254 l 1,183,184
 454 284 454 284 409 266 c 0,185,186
 365 247 365 247 360 200 c 1,187,-1
 360 195 l 2,188,189
 358 181 358 181 344 181 c 2,190,-1
 322 181 l 2,191,192
 309 181 309 181 307 195 c 2,193,-1
 306 200 l 1,194,195
 303 246 303 246 258 266 c 0,196,197
 243 272 243 272 227 272 c 0,105,106
1015 637 m 0,198,199
 1025 627 1025 627 1025 614 c 128,-1,200
 1025 601 1025 601 1015 591 c 2,201,-1
 862 439 l 2,202,203
 853 429 853 429 840 429 c 0,204,205
 826 429 826 429 817 439 c 2,206,-1
 665 591 l 2,207,208
 655 601 655 601 655 614 c 128,-1,209
 655 627 655 627 665 637 c 0,210,211
 674 646 674 646 687 646 c 128,-1,212
 700 646 700 646 710 637 c 2,213,-1
 840 507 l 1,214,-1
 970 637 l 2,215,216
 979 646 979 646 992.5 646 c 128,-1,217
 1006 646 1006 646 1015 637 c 0,198,199
333 322 m 0,218,219
 386 322 386 322 423 359 c 128,-1,220
 460 396 460 396 460 448 c 128,-1,221
 460 500 460 500 423 537 c 128,-1,222
 386 574 386 574 333 574 c 0,223,224
 281 574 281 574 244 537 c 128,-1,225
 207 500 207 500 207 448 c 128,-1,226
 207 396 207 396 244 359 c 128,-1,227
 281 322 281 322 333 322 c 0,218,219
333 510 m 0,228,229
 359 510 359 510 377.5 492 c 128,-1,230
 396 474 396 474 396 448 c 128,-1,231
 396 422 396 422 377.5 404 c 128,-1,232
 359 386 359 386 333 386 c 0,233,234
 308 386 308 386 289.5 404 c 128,-1,235
 271 422 271 422 271 448 c 128,-1,236
 271 474 271 474 289.5 492 c 128,-1,237
 308 510 308 510 333 510 c 0,228,229
EndSplineSet
EndChar

StartChar: uniF138
Encoding: 61752 61752 89
Width: 1024
GlyphClass: 2
Flags: W
LayerCount: 2
Fore
SplineSet
483 629 m 1,0,-1
 85 629 l 2,1,2
 72 629 72 629 62.5 638.5 c 128,-1,3
 53 648 53 648 53 661 c 128,-1,4
 53 674 53 674 62.5 683.5 c 128,-1,5
 72 693 72 693 85 693 c 2,6,-1
 483 693 l 1,7,8
 494 757 494 757 544.5 800 c 128,-1,9
 595 843 595 843 661 843 c 128,-1,10
 727 843 727 843 777.5 800 c 128,-1,11
 828 757 828 757 839 693 c 1,12,-1
 939 693 l 2,13,14
 952 693 952 693 961.5 683.5 c 128,-1,15
 971 674 971 674 971 661 c 128,-1,16
 971 648 971 648 961.5 638.5 c 128,-1,17
 952 629 952 629 939 629 c 2,18,-1
 839 629 l 1,19,20
 828 565 828 565 777.5 522.5 c 128,-1,21
 727 480 727 480 661 480 c 128,-1,22
 595 480 595 480 544.5 522.5 c 128,-1,23
 494 565 494 565 483 629 c 1,0,-1
661 779 m 0,24,25
 613 779 613 779 578.5 744.5 c 128,-1,26
 544 710 544 710 544 661 c 0,27,28
 544 613 544 613 578.5 578.5 c 128,-1,29
 613 544 613 544 661 544 c 0,30,31
 710 544 710 544 744.5 578.5 c 128,-1,32
 779 613 779 613 779 661 c 0,33,34
 779 710 779 710 744.5 744.5 c 128,-1,35
 710 779 710 779 661 779 c 0,24,25
541 267 m 1,36,-1
 939 267 l 2,37,38
 952 267 952 267 961.5 257.5 c 128,-1,39
 971 248 971 248 971 235 c 128,-1,40
 971 222 971 222 961.5 212.5 c 128,-1,41
 952 203 952 203 939 203 c 2,42,-1
 541 203 l 1,43,44
 530 139 530 139 479.5 96 c 128,-1,45
 429 53 429 53 363 53 c 128,-1,46
 297 53 297 53 246.5 96 c 128,-1,47
 196 139 196 139 185 203 c 1,48,-1
 85 203 l 2,49,50
 72 203 72 203 62.5 212.5 c 128,-1,51
 53 222 53 222 53 235 c 128,-1,52
 53 248 53 248 62.5 257.5 c 128,-1,53
 72 267 72 267 85 267 c 2,54,-1
 185 267 l 1,55,56
 196 331 196 331 246.5 373.5 c 128,-1,57
 297 416 297 416 363 416 c 128,-1,58
 429 416 429 416 479.5 373.5 c 128,-1,59
 530 331 530 331 541 267 c 1,36,-1
363 117 m 0,60,61
 411 117 411 117 445.5 151.5 c 128,-1,62
 480 186 480 186 480 235 c 0,63,64
 480 283 480 283 445.5 317.5 c 128,-1,65
 411 352 411 352 363 352 c 0,66,67
 314 352 314 352 279.5 317.5 c 128,-1,68
 245 283 245 283 245 235 c 0,69,70
 245 186 245 186 279.5 151.5 c 128,-1,71
 314 117 314 117 363 117 c 0,60,61
EndSplineSet
EndChar

StartChar: uniF148
Encoding: 61768 61768 90
Width: 1024
GlyphClass: 2
Flags: W
LayerCount: 2
Fore
SplineSet
511 37 m 2,0,-1
 512 37 l 2,1,2
 554 38 554 38 626 88.5 c 128,-1,3
 698 139 698 139 768 215.5 c 128,-1,4
 838 292 838 292 889.5 397 c 128,-1,5
 941 502 941 502 941 598 c 0,6,7
 941 696 941 696 871.5 770 c 128,-1,8
 802 844 802 844 710 844 c 0,9,10
 596 844 596 844 512 727 c 1,11,12
 428 844 428 844 314 844 c 0,13,14
 222 844 222 844 152.5 770 c 128,-1,15
 83 696 83 696 83 598 c 0,16,17
 83 502 83 502 134.5 397 c 128,-1,18
 186 292 186 292 256 215.5 c 128,-1,19
 326 139 326 139 397.5 88.5 c 128,-1,20
 469 38 469 38 511 37 c 2,0,-1
314 780 m 0,21,22
 349 780 349 780 381 763.5 c 128,-1,23
 413 747 413 747 434.5 721.5 c 128,-1,24
 456 696 456 696 466 681.5 c 128,-1,25
 476 667 476 667 482 655 c 2,26,-1
 483 653 l 2,27,28
 490 635 490 635 512 635 c 128,-1,29
 534 635 534 635 542 653 c 0,30,31
 542 654 542 654 549 666.5 c 128,-1,32
 556 679 556 679 570.5 698 c 128,-1,33
 585 717 585 717 604 735.5 c 128,-1,34
 623 754 623 754 651.5 767 c 128,-1,35
 680 780 680 780 710 780 c 0,36,37
 777 780 777 780 827 725.5 c 128,-1,38
 877 671 877 671 877 598 c 0,39,40
 877 529 877 529 845.5 453 c 128,-1,41
 814 377 814 377 767 317 c 128,-1,42
 720 257 720 257 668.5 207 c 128,-1,43
 617 157 617 157 574.5 129.5 c 128,-1,44
 532 102 532 102 512 101 c 0,45,46
 492 102 492 102 449.5 129.5 c 128,-1,47
 407 157 407 157 355.5 207 c 128,-1,48
 304 257 304 257 257 317 c 128,-1,49
 210 377 210 377 178.5 453 c 128,-1,50
 147 529 147 529 147 598 c 0,51,52
 147 671 147 671 197 725.5 c 128,-1,53
 247 780 247 780 314 780 c 0,21,22
EndSplineSet
EndChar

StartChar: uniF149
Encoding: 61769 61769 91
Width: 1024
GlyphClass: 2
Flags: W
LayerCount: 2
Fore
SplineSet
634 762 m 0,0,1
 634 813 634 813 598 848.5 c 128,-1,2
 562 884 562 884 512 884 c 128,-1,3
 462 884 462 884 426 848.5 c 128,-1,4
 390 813 390 813 390 762 c 0,5,6
 390 712 390 712 426 676 c 128,-1,7
 462 640 462 640 512 640 c 128,-1,8
 562 640 562 640 598 676 c 128,-1,9
 634 712 634 712 634 762 c 0,0,1
454 762 m 128,-1,11
 454 786 454 786 471 803 c 128,-1,12
 488 820 488 820 512 820 c 128,-1,13
 536 820 536 820 553 803 c 128,-1,14
 570 786 570 786 570 762 c 128,-1,15
 570 738 570 738 553 721 c 128,-1,16
 536 704 536 704 512 704 c 128,-1,17
 488 704 488 704 471 721 c 128,-1,10
 454 738 454 738 454 762 c 128,-1,11
634 447 m 0,18,19
 634 498 634 498 598 533.5 c 128,-1,20
 562 569 562 569 512 569 c 128,-1,21
 462 569 462 569 426 533 c 128,-1,22
 390 497 390 497 390 447 c 128,-1,23
 390 397 390 397 426 361 c 128,-1,24
 462 325 462 325 512 325 c 128,-1,25
 562 325 562 325 598 361 c 128,-1,26
 634 397 634 397 634 447 c 0,18,19
454 447 m 128,-1,28
 454 471 454 471 471 488 c 128,-1,29
 488 505 488 505 512 505 c 128,-1,30
 536 505 536 505 553 488 c 128,-1,31
 570 471 570 471 570 447 c 128,-1,32
 570 423 570 423 553 406 c 128,-1,33
 536 389 536 389 512 389 c 128,-1,34
 488 389 488 389 471 406 c 128,-1,27
 454 423 454 423 454 447 c 128,-1,28
634 132 m 128,-1,36
 634 182 634 182 598 218 c 128,-1,37
 562 254 562 254 512 254 c 128,-1,38
 462 254 462 254 426 218 c 128,-1,39
 390 182 390 182 390 132 c 128,-1,40
 390 82 390 82 426 46 c 128,-1,41
 462 10 462 10 512 10 c 128,-1,42
 562 10 562 10 598 46 c 128,-1,35
 634 82 634 82 634 132 c 128,-1,36
454 132 m 128,-1,44
 454 156 454 156 471 173 c 128,-1,45
 488 190 488 190 512 190 c 128,-1,46
 536 190 536 190 553 173 c 128,-1,47
 570 156 570 156 570 132 c 128,-1,48
 570 108 570 108 553 91 c 128,-1,49
 536 74 536 74 512 74 c 128,-1,50
 488 74 488 74 471 91 c 128,-1,43
 454 108 454 108 454 132 c 128,-1,44
EndSplineSet
EndChar

StartChar: uniF150
Encoding: 61776 61776 92
Width: 1024
GlyphClass: 2
Flags: W
LayerCount: 2
Fore
SplineSet
197 325 m 0,0,1
 247 325 247 325 283 361 c 128,-1,2
 319 397 319 397 319 447 c 128,-1,3
 319 497 319 497 283 533 c 128,-1,4
 247 569 247 569 197 569 c 0,5,6
 146 569 146 569 110.5 533 c 128,-1,7
 75 497 75 497 75 447 c 128,-1,8
 75 397 75 397 110.5 361 c 128,-1,9
 146 325 146 325 197 325 c 0,0,1
512 325 m 128,-1,11
 562 325 562 325 598 361 c 128,-1,12
 634 397 634 397 634 447 c 0,13,14
 634 498 634 498 598 533.5 c 128,-1,15
 562 569 562 569 512 569 c 128,-1,16
 462 569 462 569 426 533 c 128,-1,17
 390 497 390 497 390 447 c 128,-1,18
 390 397 390 397 426 361 c 128,-1,10
 462 325 462 325 512 325 c 128,-1,11
827 325 m 0,19,20
 878 325 878 325 913.5 361 c 128,-1,21
 949 397 949 397 949 447 c 128,-1,22
 949 497 949 497 913 533 c 128,-1,23
 877 569 877 569 827 569 c 128,-1,24
 777 569 777 569 741 533 c 128,-1,25
 705 497 705 497 705 447 c 128,-1,26
 705 397 705 397 741 361 c 128,-1,27
 777 325 777 325 827 325 c 0,19,20
197 505 m 128,-1,29
 221 505 221 505 238 488 c 128,-1,30
 255 471 255 471 255 447 c 128,-1,31
 255 423 255 423 238 406 c 128,-1,32
 221 389 221 389 197 389 c 128,-1,33
 173 389 173 389 156 406 c 128,-1,34
 139 423 139 423 139 447 c 128,-1,35
 139 471 139 471 156 488 c 128,-1,28
 173 505 173 505 197 505 c 128,-1,29
512 505 m 128,-1,37
 536 505 536 505 553 488 c 128,-1,38
 570 471 570 471 570 447 c 128,-1,39
 570 423 570 423 553 406 c 128,-1,40
 536 389 536 389 512 389 c 128,-1,41
 488 389 488 389 471 406 c 128,-1,42
 454 423 454 423 454 447 c 128,-1,43
 454 471 454 471 471 488 c 128,-1,36
 488 505 488 505 512 505 c 128,-1,37
827 505 m 128,-1,45
 851 505 851 505 868 488 c 128,-1,46
 885 471 885 471 885 447 c 128,-1,47
 885 423 885 423 868 406 c 128,-1,48
 851 389 851 389 827 389 c 128,-1,49
 803 389 803 389 786 406 c 128,-1,50
 769 423 769 423 769 447 c 128,-1,51
 769 471 769 471 786 488 c 128,-1,44
 803 505 803 505 827 505 c 128,-1,45
EndSplineSet
EndChar

StartChar: uniF151
Encoding: 61777 61777 93
Width: 1024
GlyphClass: 2
Flags: W
LayerCount: 2
Fore
SplineSet
422 865 m 2,0,-1
 599 864 l 2,1,2
 739 864 739 864 835.5 768 c 128,-1,3
 932 672 932 672 932 532 c 2,4,-1
 932 531 l 2,5,6
 932 456 932 456 897.5 385 c 128,-1,7
 863 314 863 314 802 262 c 0,8,9
 726 198 726 198 457 27 c 0,10,11
 449 22 449 22 440 22 c 0,12,13
 422 22 422 22 413 37 c 0,14,15
 408 45 408 45 408 54 c 2,16,-1
 408 217 l 1,17,18
 271 222 271 222 180 311.5 c 128,-1,19
 89 401 89 401 89 532 c 0,20,21
 89 672 89 672 185.5 768.5 c 128,-1,22
 282 865 282 865 422 865 c 2,0,-1
761 311 m 0,23,24
 811 354 811 354 839.5 412.5 c 128,-1,25
 868 471 868 471 868 532 c 0,26,27
 868 645 868 645 790 722.5 c 128,-1,28
 712 800 712 800 599 800 c 2,29,-1
 422 801 l 2,30,31
 309 801 309 801 231 723 c 128,-1,32
 153 645 153 645 153 532 c 0,33,34
 153 423 153 423 229.5 352 c 128,-1,35
 306 281 306 281 423 281 c 2,36,-1
 440 281 l 2,37,38
 453 281 453 281 462.5 271.5 c 128,-1,39
 472 262 472 262 472 249 c 2,40,-1
 472 113 l 1,41,42
 712 270 712 270 761 311 c 0,23,24
EndSplineSet
EndChar

StartChar: uniF152
Encoding: 61778 61778 94
Width: 1024
GlyphClass: 2
Flags: W
LayerCount: 2
Fore
SplineSet
1014 291 m 0,0,1
 1024 282 1024 282 1024 269 c 128,-1,2
 1024 256 1024 256 1014 246 c 2,3,-1
 865 97 l 2,4,5
 855 87 855 87 842 87 c 0,6,7
 830 87 830 87 820 97 c 2,8,-1
 670 246 l 2,9,10
 661 256 661 256 661 269 c 128,-1,11
 661 282 661 282 670 291 c 0,12,13
 680 301 680 301 693 301 c 128,-1,14
 706 301 706 301 715 291 c 2,15,-1
 810 197 l 1,16,-1
 810 634 l 2,17,18
 810 673 810 673 782 701.5 c 128,-1,19
 754 730 754 730 714 730 c 2,20,-1
 465 730 l 2,21,22
 452 730 452 730 442.5 739 c 128,-1,23
 433 748 433 748 433 762 c 0,24,25
 433 775 433 775 442.5 784.5 c 128,-1,26
 452 794 452 794 465 794 c 2,27,-1
 714 794 l 2,28,29
 780 794 780 794 827 747 c 128,-1,30
 874 700 874 700 874 634 c 2,31,-1
 874 197 l 1,32,-1
 969 291 l 2,33,34
 978 301 978 301 991.5 301 c 128,-1,35
 1005 301 1005 301 1014 291 c 0,0,1
310 151 m 2,36,-1
 559 151 l 2,37,38
 572 151 572 151 581.5 141.5 c 128,-1,39
 591 132 591 132 591 119 c 128,-1,40
 591 106 591 106 581.5 96.5 c 128,-1,41
 572 87 572 87 559 87 c 2,42,-1
 310 87 l 2,43,44
 244 87 244 87 197 134 c 128,-1,45
 150 181 150 181 150 247 c 2,46,-1
 150 684 l 1,47,-1
 55 590 l 2,48,49
 46 580 46 580 32.5 580 c 128,-1,50
 19 580 19 580 10 590 c 0,51,52
 0 599 0 599 0 612 c 128,-1,53
 0 625 0 625 10 635 c 2,54,-1
 159 784 l 2,55,56
 169 794 169 794 182 794 c 128,-1,57
 195 794 195 794 204 784 c 2,58,-1
 354 635 l 2,59,60
 363 625 363 625 363 612 c 128,-1,61
 363 599 363 599 354 590 c 0,62,63
 345 580 345 580 331 580 c 0,64,65
 318 580 318 580 308 590 c 2,66,-1
 214 684 l 1,67,-1
 214 247 l 2,68,69
 214 208 214 208 242 179.5 c 128,-1,70
 270 151 270 151 310 151 c 2,36,-1
EndSplineSet
EndChar

StartChar: uniF154
Encoding: 61780 61780 95
Width: 1024
GlyphClass: 2
Flags: W
LayerCount: 2
Fore
SplineSet
725 737 m 1,0,-1
 885 737 l 2,1,2
 898 737 898 737 907.5 727.5 c 128,-1,3
 917 718 917 718 917 705 c 128,-1,4
 917 692 917 692 907.5 682.5 c 128,-1,5
 898 673 898 673 885 673 c 2,6,-1
 869 673 l 1,7,-1
 802 109 l 2,8,9
 795 69 795 69 763.5 44.5 c 128,-1,10
 732 20 732 20 688 20 c 2,11,-1
 335 20 l 2,12,13
 292 20 292 20 260.5 44.5 c 128,-1,14
 229 69 229 69 222 107 c 2,15,-1
 154 673 l 1,16,-1
 138 673 l 2,17,18
 125 673 125 673 115.5 682.5 c 128,-1,19
 106 692 106 692 106 705 c 128,-1,20
 106 718 106 718 115.5 727.5 c 128,-1,21
 125 737 125 737 138 737 c 2,22,-1
 298 737 l 1,23,-1
 298 779 l 2,24,25
 298 819 298 819 326.5 847 c 128,-1,26
 355 875 355 875 394 875 c 2,27,-1
 629 875 l 2,28,29
 669 875 669 875 697 847 c 128,-1,30
 725 819 725 819 725 779 c 2,31,-1
 725 737 l 1,0,-1
362 737 m 1,32,-1
 661 737 l 1,33,-1
 661 779 l 2,34,35
 661 792 661 792 651.5 801.5 c 128,-1,36
 642 811 642 811 629 811 c 2,37,-1
 394 811 l 2,38,39
 381 811 381 811 371.5 801.5 c 128,-1,40
 362 792 362 792 362 779 c 2,41,-1
 362 737 l 1,32,-1
805 673 m 1,42,-1
 219 673 l 1,43,-1
 285 116 l 2,44,45
 288 101 288 101 302.5 92.5 c 128,-1,46
 317 84 317 84 335 84 c 2,47,-1
 689 84 l 2,48,49
 707 84 707 84 721.5 93 c 128,-1,50
 736 102 736 102 739 118 c 2,51,-1
 805 673 l 1,42,-1
427 203 m 128,-1,53
 414 203 414 203 404.5 212.5 c 128,-1,54
 395 222 395 222 395 235 c 2,55,-1
 395 533 l 2,56,57
 395 546 395 546 404.5 555.5 c 128,-1,58
 414 565 414 565 427 565 c 128,-1,59
 440 565 440 565 449.5 555.5 c 128,-1,60
 459 546 459 546 459 533 c 2,61,-1
 459 235 l 2,62,63
 459 222 459 222 449.5 212.5 c 128,-1,52
 440 203 440 203 427 203 c 128,-1,53
597 203 m 128,-1,65
 584 203 584 203 574.5 212.5 c 128,-1,66
 565 222 565 222 565 235 c 2,67,-1
 565 533 l 2,68,69
 565 546 565 546 574.5 555.5 c 128,-1,70
 584 565 584 565 597 565 c 128,-1,71
 610 565 610 565 619.5 555.5 c 128,-1,72
 629 546 629 546 629 533 c 2,73,-1
 629 235 l 2,74,75
 629 222 629 222 619.5 212.5 c 128,-1,64
 610 203 610 203 597 203 c 128,-1,65
EndSplineSet
EndChar

StartChar: uniF155
Encoding: 61781 61781 96
Width: 1024
GlyphClass: 2
Flags: W
LayerCount: 2
Fore
SplineSet
849 -43 m 0,0,1
 854 -43 854 -43 864 -39 c 0,2,3
 881 -30 881 -30 881 -11 c 2,4,-1
 881 721 l 2,5,6
 881 761 881 761 853 789 c 128,-1,7
 825 817 825 817 785 817 c 2,8,-1
 239 817 l 2,9,10
 199 817 199 817 171 789 c 128,-1,11
 143 761 143 761 143 721 c 2,12,-1
 143 -11 l 2,13,14
 143 -30 143 -30 160 -39 c 0,15,16
 178 -49 178 -49 194 -37 c 2,17,-1
 512 195 l 1,18,-1
 830 -37 l 2,19,20
 839 -43 839 -43 849 -43 c 0,0,1
512 267 m 128,-1,22
 502 267 502 267 493 261 c 2,23,-1
 207 52 l 1,24,-1
 207 721 l 2,25,26
 207 734 207 734 216.5 743.5 c 128,-1,27
 226 753 226 753 239 753 c 2,28,-1
 785 753 l 2,29,30
 798 753 798 753 807.5 743.5 c 128,-1,31
 817 734 817 734 817 721 c 2,32,-1
 817 52 l 1,33,-1
 531 261 l 2,34,21
 522 267 522 267 512 267 c 128,-1,22
EndSplineSet
EndChar

StartChar: uniF156
Encoding: 61782 61782 97
Width: 1024
GlyphClass: 2
Flags: W
LayerCount: 2
Fore
SplineSet
742 865 m 2,0,-1
 929 678 l 2,1,2
 939 668 939 668 939 655 c 2,3,-1
 939 117 l 2,4,5
 939 77 939 77 911 49 c 128,-1,6
 883 21 883 21 843 21 c 2,7,-1
 181 21 l 2,8,9
 141 21 141 21 113 49 c 128,-1,10
 85 77 85 77 85 117 c 2,11,-1
 85 779 l 2,12,13
 85 819 85 819 113 847 c 128,-1,14
 141 875 141 875 181 875 c 2,15,-1
 719 875 l 2,16,17
 732 875 732 875 742 865 c 2,0,-1
181 85 m 2,18,-1
 843 85 l 2,19,20
 856 85 856 85 865.5 94.5 c 128,-1,21
 875 104 875 104 875 117 c 2,22,-1
 875 591 l 1,23,-1
 687 591 l 2,24,25
 674 591 674 591 664.5 600.5 c 128,-1,26
 655 610 655 610 655 623 c 2,27,-1
 655 811 l 1,28,-1
 181 811 l 2,29,30
 168 811 168 811 158.5 801.5 c 128,-1,31
 149 792 149 792 149 779 c 2,32,-1
 149 117 l 2,33,34
 149 104 149 104 158.5 94.5 c 128,-1,35
 168 85 168 85 181 85 c 2,18,-1
719 797 m 1,36,-1
 719 655 l 1,37,-1
 861 655 l 1,38,-1
 719 797 l 1,36,-1
337 591 m 2,39,-1
 512 591 l 2,40,41
 525 591 525 591 534.5 600.5 c 128,-1,42
 544 610 544 610 544 623 c 128,-1,43
 544 636 544 636 535 645.5 c 128,-1,44
 526 655 526 655 512 655 c 2,45,-1
 337 655 l 2,46,47
 324 655 324 655 314.5 645.5 c 128,-1,48
 305 636 305 636 305 623 c 128,-1,49
 305 610 305 610 314.5 600.5 c 128,-1,50
 324 591 324 591 337 591 c 2,39,-1
337 416 m 2,51,-1
 687 416 l 2,52,53
 700 416 700 416 709.5 425 c 128,-1,54
 719 434 719 434 719 448 c 128,-1,55
 719 462 719 462 709.5 471 c 128,-1,56
 700 480 700 480 687 480 c 2,57,-1
 337 480 l 2,58,59
 324 480 324 480 314.5 471 c 128,-1,60
 305 462 305 462 305 448 c 128,-1,61
 305 434 305 434 314.5 425 c 128,-1,62
 324 416 324 416 337 416 c 2,51,-1
337 241 m 2,63,-1
 600 241 l 2,64,65
 613 241 613 241 622.5 250.5 c 128,-1,66
 632 260 632 260 632 273 c 128,-1,67
 632 286 632 286 622.5 295.5 c 128,-1,68
 613 305 613 305 600 305 c 2,69,-1
 337 305 l 2,70,71
 324 305 324 305 314.5 295.5 c 128,-1,72
 305 286 305 286 305 273 c 128,-1,73
 305 260 305 260 314.5 250.5 c 128,-1,74
 324 241 324 241 337 241 c 2,63,-1
EndSplineSet
EndChar

StartChar: uniF157
Encoding: 61783 61783 98
Width: 1024
GlyphClass: 2
Flags: W
LayerCount: 2
Fore
SplineSet
422 865 m 2,0,-1
 599 864 l 2,1,2
 739 864 739 864 835.5 768 c 128,-1,3
 932 672 932 672 932 532 c 2,4,-1
 932 531 l 2,5,6
 932 456 932 456 897.5 385 c 128,-1,7
 863 314 863 314 802 262 c 0,8,9
 726 198 726 198 457 27 c 0,10,11
 449 22 449 22 440 22 c 0,12,13
 422 22 422 22 413 37 c 0,14,15
 408 45 408 45 408 54 c 2,16,-1
 408 217 l 1,17,18
 271 222 271 222 180 311.5 c 128,-1,19
 89 401 89 401 89 532 c 0,20,21
 89 672 89 672 185.5 768.5 c 128,-1,22
 282 865 282 865 422 865 c 2,0,-1
761 311 m 0,23,24
 811 354 811 354 839.5 412.5 c 128,-1,25
 868 471 868 471 868 532 c 0,26,27
 868 645 868 645 790 722.5 c 128,-1,28
 712 800 712 800 599 800 c 2,29,-1
 422 801 l 2,30,31
 309 801 309 801 231 723 c 128,-1,32
 153 645 153 645 153 532 c 0,33,34
 153 423 153 423 229.5 352 c 128,-1,35
 306 281 306 281 423 281 c 2,36,-1
 440 281 l 2,37,38
 453 281 453 281 462.5 271.5 c 128,-1,39
 472 262 472 262 472 249 c 2,40,-1
 472 113 l 1,41,42
 712 270 712 270 761 311 c 0,23,24
EndSplineSet
EndChar

StartChar: uniF158
Encoding: 61784 61784 99
Width: 1024
GlyphClass: 2
Flags: W
LayerCount: 2
Fore
SplineSet
181 109 m 2,0,-1
 843 109 l 2,1,2
 883 109 883 109 911 137 c 128,-1,3
 939 165 939 165 939 205 c 2,4,-1
 939 691 l 2,5,6
 939 731 939 731 911 759 c 128,-1,7
 883 787 883 787 843 787 c 2,8,-1
 181 787 l 2,9,10
 141 787 141 787 113 759 c 128,-1,11
 85 731 85 731 85 691 c 2,12,-1
 85 205 l 2,13,14
 85 165 85 165 113 137 c 128,-1,15
 141 109 141 109 181 109 c 2,0,-1
181 723 m 2,16,-1
 843 723 l 2,17,18
 856 723 856 723 865.5 713.5 c 128,-1,19
 875 704 875 704 875 691 c 2,20,-1
 875 205 l 2,21,22
 875 192 875 192 865.5 182.5 c 128,-1,23
 856 173 856 173 843 173 c 2,24,-1
 181 173 l 2,25,26
 168 173 168 173 158.5 182.5 c 128,-1,27
 149 192 149 192 149 205 c 2,28,-1
 149 691 l 2,29,30
 149 704 149 704 158.5 713.5 c 128,-1,31
 168 723 168 723 181 723 c 2,16,-1
EndSplineSet
EndChar

StartChar: uniF159
Encoding: 61785 61785 100
Width: 1024
GlyphClass: 2
Flags: W
LayerCount: 2
Fore
SplineSet
942 790 m 2,0,-1
 670 482 l 1,1,2
 655 523 655 523 632 546 c 0,3,4
 616 562 616 562 599 572 c 128,-1,5
 582 582 582 582 573 584 c 2,6,-1
 564 586 l 1,7,-1
 872 859 l 2,8,9
 887 873 887 873 907.5 873 c 128,-1,10
 928 873 928 873 942 859 c 128,-1,11
 956 845 956 845 956 824.5 c 128,-1,12
 956 804 956 804 942 790 c 2,0,-1
157 9 m 2,13,-1
 745 9 l 2,14,15
 782 9 782 9 807.5 35.5 c 128,-1,16
 833 62 833 62 833 99 c 2,17,-1
 833 367 l 2,18,19
 833 380 833 380 823.5 389.5 c 128,-1,20
 814 399 814 399 801 399 c 128,-1,21
 788 399 788 399 778.5 389.5 c 128,-1,22
 769 380 769 380 769 367 c 2,23,-1
 769 99 l 2,24,25
 769 88 769 88 762 80.5 c 128,-1,26
 755 73 755 73 745 73 c 2,27,-1
 157 73 l 2,28,29
 147 73 147 73 139.5 80.5 c 128,-1,30
 132 88 132 88 132 99 c 2,31,-1
 132 622 l 2,32,33
 132 633 132 633 139.5 640.5 c 128,-1,34
 147 648 147 648 157 648 c 2,35,-1
 406 648 l 2,36,37
 419 648 419 648 428.5 657.5 c 128,-1,38
 438 667 438 667 438 680 c 128,-1,39
 438 693 438 693 428.5 702.5 c 128,-1,40
 419 712 419 712 406 712 c 2,41,-1
 157 712 l 2,42,43
 120 712 120 712 94 685.5 c 128,-1,44
 68 659 68 659 68 622 c 2,45,-1
 68 99 l 2,46,47
 68 62 68 62 94 35.5 c 128,-1,48
 120 9 120 9 157 9 c 2,13,-1
349 235 m 0,49,50
 381 261 381 261 415 267.5 c 128,-1,51
 449 274 449 274 473.5 269.5 c 128,-1,52
 498 265 498 265 530 274.5 c 128,-1,53
 562 284 562 284 592 315 c 0,54,55
 612 337 612 337 620.5 370.5 c 128,-1,56
 629 404 629 404 620 442 c 128,-1,57
 611 480 611 480 582 506 c 0,58,59
 532 545 532 545 477.5 539 c 128,-1,60
 423 533 423 533 391 498 c 0,61,62
 311 409 311 409 327 244 c 0,63,64
 329 236 329 236 336 233.5 c 128,-1,65
 343 231 343 231 349 235 c 0,49,50
EndSplineSet
EndChar

StartChar: uniF160
Encoding: 61792 61792 101
Width: 1024
GlyphClass: 2
Flags: W
LayerCount: 2
Fore
SplineSet
383 -8 m 0,0,1
 399 -8 399 -8 408 3 c 2,2,-1
 835 529 l 2,3,4
 848 545 848 545 840 563 c 0,5,6
 830 581 830 581 811 581 c 2,7,-1
 611 581 l 1,8,-1
 673 841 l 2,9,10
 676 856 676 856 667 868 c 128,-1,11
 658 880 658 880 642 880 c 2,12,-1
 351 880 l 2,13,14
 339 880 339 880 330 872.5 c 128,-1,15
 321 865 321 865 320 853 c 2,16,-1
 248 429 l 2,17,18
 245 416 245 416 255 403 c 0,19,20
 264 392 264 392 279 392 c 2,21,-1
 404 392 l 1,22,-1
 351 28 l 2,23,24
 348 4 348 4 370 -6 c 0,25,26
 374 -8 374 -8 383 -8 c 0,0,1
378 816 m 1,27,-1
 601 816 l 1,28,-1
 539 557 l 2,29,30
 536 541 536 541 545 530 c 0,31,32
 556 517 556 517 571 517 c 2,33,-1
 743 517 l 1,34,-1
 431 134 l 1,35,-1
 473 419 l 2,36,37
 474 434 474 434 465 445 c 128,-1,38
 456 456 456 456 441 456 c 2,39,-1
 317 456 l 1,40,-1
 378 816 l 1,27,-1
EndSplineSet
EndChar

StartChar: uniF161
Encoding: 61793 61793 102
Width: 1024
GlyphClass: 2
Flags: W
LayerCount: 2
Fore
SplineSet
512 907 m 128,-1,1
 636 907 636 907 742 845.5 c 128,-1,2
 848 784 848 784 909.5 678 c 128,-1,3
 971 572 971 572 971 448 c 128,-1,4
 971 324 971 324 909.5 218 c 128,-1,5
 848 112 848 112 742 50.5 c 128,-1,6
 636 -11 636 -11 512 -11 c 128,-1,7
 388 -11 388 -11 282 50.5 c 128,-1,8
 176 112 176 112 114.5 218 c 128,-1,9
 53 324 53 324 53 448 c 128,-1,10
 53 572 53 572 114.5 678 c 128,-1,11
 176 784 176 784 282 845.5 c 128,-1,0
 388 907 388 907 512 907 c 128,-1,1
451 186 m 1,12,-1
 694 486 l 2,13,14
 699 491 699 491 696 498 c 0,15,16
 693 504 693 504 685 504 c 2,17,-1
 560 504 l 1,18,-1
 598 661 l 1,19,-1
 596 670 l 1,20,-1
 587 675 l 1,21,-1
 420 675 l 2,22,23
 411 675 411 675 409 665 c 2,24,-1
 368 423 l 1,25,-1
 370 414 l 1,26,-1
 379 410 l 1,27,-1
 462 410 l 1,28,-1
 431 195 l 2,29,30
 429 186 429 186 437 183 c 2,31,-1
 442 182 l 1,32,-1
 451 186 l 1,12,-1
EndSplineSet
EndChar

StartChar: uniF162
Encoding: 61794 61794 103
Width: 1024
GlyphClass: 2
Flags: W
LayerCount: 2
Fore
SplineSet
889 821 m 1,0,-1
 992 821 l 2,1,2
 1006 821 1006 821 1015 811.5 c 128,-1,3
 1024 802 1024 802 1024 789 c 128,-1,4
 1024 776 1024 776 1014.5 766.5 c 128,-1,5
 1005 757 1005 757 992 757 c 2,6,-1
 889 757 l 1,7,-1
 889 654 l 2,8,9
 889 641 889 641 879.5 631.5 c 128,-1,10
 870 622 870 622 857 622 c 128,-1,11
 844 622 844 622 834.5 631 c 128,-1,12
 825 640 825 640 825 654 c 2,13,-1
 825 757 l 1,14,-1
 721 757 l 2,15,16
 708 757 708 757 698.5 766.5 c 128,-1,17
 689 776 689 776 689 789 c 128,-1,18
 689 802 689 802 698.5 811.5 c 128,-1,19
 708 821 708 821 721 821 c 2,20,-1
 825 821 l 1,21,-1
 825 925 l 2,22,23
 825 938 825 938 834.5 947.5 c 128,-1,24
 844 957 844 957 857 957 c 128,-1,25
 870 957 870 957 879.5 947.5 c 128,-1,26
 889 938 889 938 889 925 c 2,27,-1
 889 821 l 1,0,-1
519 583 m 1,28,-1
 705 584 l 2,29,30
 725 584 725 584 734 565 c 0,31,32
 742 547 742 547 730 531 c 2,33,-1
 327 35 l 2,34,35
 315 23 315 23 302 23 c 0,36,37
 295 23 295 23 289 26 c 0,38,39
 267 36 267 36 270 60 c 2,40,-1
 319 401 l 1,41,-1
 204 401 l 2,42,43
 188 401 188 401 179 413 c 0,44,45
 169 425 169 425 172 439 c 2,46,-1
 240 838 l 2,47,48
 245 865 245 865 271 865 c 2,49,-1
 546 865 l 2,50,51
 562 865 562 865 571 853 c 128,-1,52
 580 841 580 841 577 826 c 2,53,-1
 519 583 l 1,28,-1
638 519 m 1,54,-1
 479 519 l 2,55,56
 464 519 464 519 453 532 c 0,57,58
 444 543 444 543 447 559 c 2,59,-1
 505 801 l 1,60,-1
 299 801 l 1,61,-1
 241 465 l 1,62,-1
 356 465 l 2,63,64
 371 465 371 465 380 454 c 0,65,66
 390 443 390 443 388 429 c 2,67,-1
 350 166 l 1,68,-1
 638 519 l 1,54,-1
EndSplineSet
EndChar

StartChar: uniF163
Encoding: 61795 61795 104
Width: 1024
GlyphClass: 2
Flags: W
LayerCount: 2
Fore
SplineSet
352 875 m 2,0,-1
 672 875 l 2,1,2
 712 875 712 875 740 847 c 128,-1,3
 768 819 768 819 768 779 c 2,4,-1
 768 117 l 2,5,6
 768 77 768 77 740 49 c 128,-1,7
 712 21 712 21 672 21 c 2,8,-1
 352 21 l 2,9,10
 312 21 312 21 284 49 c 128,-1,11
 256 77 256 77 256 117 c 2,12,-1
 256 779 l 2,13,14
 256 819 256 819 284 847 c 128,-1,15
 312 875 312 875 352 875 c 2,0,-1
672 811 m 2,16,-1
 352 811 l 2,17,18
 339 811 339 811 329.5 801.5 c 128,-1,19
 320 792 320 792 320 779 c 2,20,-1
 320 304 l 1,21,-1
 445 430 l 2,22,23
 455 440 455 440 467 440 c 0,24,25
 480 440 480 440 490 430 c 2,26,-1
 567 353 l 1,27,-1
 704 492 l 1,28,-1
 704 779 l 2,29,30
 704 792 704 792 694.5 801.5 c 128,-1,31
 685 811 685 811 672 811 c 2,16,-1
467 666 m 128,-1,33
 442 666 442 666 424.5 648 c 128,-1,34
 407 630 407 630 407 605 c 128,-1,35
 407 580 407 580 424.5 562.5 c 128,-1,36
 442 545 442 545 467 545 c 128,-1,37
 492 545 492 545 510 562.5 c 128,-1,38
 528 580 528 580 528 605 c 128,-1,39
 528 630 528 630 510 648 c 128,-1,32
 492 666 492 666 467 666 c 128,-1,33
704 401 m 1,40,-1
 613 308 l 1,41,-1
 704 217 l 1,42,-1
 704 401 l 1,40,-1
352 85 m 2,43,-1
 672 85 l 2,44,45
 685 85 685 85 694.5 94.5 c 128,-1,46
 704 104 704 104 704 117 c 2,47,-1
 704 127 l 1,48,-1
 468 362 l 1,49,-1
 320 213 l 1,50,-1
 320 117 l 2,51,52
 320 104 320 104 329.5 94.5 c 128,-1,53
 339 85 339 85 352 85 c 2,43,-1
EndSplineSet
EndChar

StartChar: uniF170
Encoding: 61808 61808 105
Width: 1026
GlyphClass: 2
Flags: W
LayerCount: 2
Fore
SplineSet
388 107 m 0,0,1
 409 109 409 109 419 125 c 2,2,-1
 841 723 l 2,3,4
 851 737 851 737 848 754.5 c 128,-1,5
 845 772 845 772 831 782 c 0,6,7
 816 792 816 792 799 789 c 128,-1,8
 782 786 782 786 771 772 c 2,9,-1
 378 215 l 1,10,-1
 210 384 l 2,11,12
 197 396 197 396 179.5 396 c 128,-1,13
 162 396 162 396 150 384 c 0,14,15
 137 371 137 371 137 353.5 c 128,-1,16
 137 336 137 336 150 323 c 2,17,-1
 354 119 l 2,18,19
 366 107 366 107 388 107 c 0,0,1
EndSplineSet
EndChar

StartChar: uniF172
Encoding: 61810 61810 106
Width: 1024
GlyphClass: 2
Flags: W
LayerCount: 2
Fore
SplineSet
380 448 m 1,0,-1
 670 158 l 2,1,2
 683 146 683 146 683 128 c 128,-1,3
 683 110 683 110 670 98 c 0,4,5
 657 85 657 85 640 85 c 128,-1,6
 623 85 623 85 610 98 c 2,7,-1
 290 418 l 2,8,9
 277 431 277 431 277 448.5 c 128,-1,10
 277 466 277 466 290 478 c 2,11,-1
 610 798 l 2,12,13
 623 811 623 811 640.5 811 c 128,-1,14
 658 811 658 811 670 798 c 0,15,16
 683 785 683 785 683 767.5 c 128,-1,17
 683 750 683 750 670 738 c 2,18,-1
 380 448 l 1,0,-1
EndSplineSet
EndChar

StartChar: uniF173
Encoding: 61811 61811 107
Width: 1024
GlyphClass: 2
Flags: W
LayerCount: 2
Fore
SplineSet
414 798 m 2,0,-1
 734 478 l 2,1,2
 747 465 747 465 747 447.5 c 128,-1,3
 747 430 747 430 734 418 c 2,4,-1
 414 98 l 2,5,6
 401 85 401 85 384 85 c 128,-1,7
 367 85 367 85 354 98 c 0,8,9
 341 110 341 110 341 128 c 128,-1,10
 341 146 341 146 354 158 c 2,11,-1
 644 448 l 1,12,-1
 354 738 l 2,13,14
 341 751 341 751 341 768.5 c 128,-1,15
 341 786 341 786 354 798 c 0,16,17
 367 811 367 811 384.5 811 c 128,-1,18
 402 811 402 811 414 798 c 2,0,-1
EndSplineSet
EndChar

StartChar: uniF174
Encoding: 61812 61812 108
Width: 1024
GlyphClass: 2
Flags: W
LayerCount: 2
Fore
SplineSet
798 393 m 0,0,1
 811 380 811 380 811 362.5 c 128,-1,2
 811 345 811 345 798 333 c 2,3,-1
 542 77 l 2,4,5
 530 64 530 64 512 64 c 128,-1,6
 494 64 494 64 482 77 c 2,7,-1
 226 333 l 2,8,9
 213 345 213 345 213 362.5 c 128,-1,10
 213 380 213 380 226 393 c 0,11,12
 239 405 239 405 256.5 405 c 128,-1,13
 274 405 274 405 286 393 c 2,14,-1
 469 210 l 1,15,-1
 469 747 l 2,16,17
 469 764 469 764 481.5 776.5 c 128,-1,18
 494 789 494 789 512 789 c 128,-1,19
 530 789 530 789 542.5 776.5 c 128,-1,20
 555 764 555 764 555 747 c 2,21,-1
 555 210 l 1,22,-1
 738 393 l 2,23,24
 751 405 751 405 768.5 405 c 128,-1,25
 786 405 786 405 798 393 c 0,0,1
EndSplineSet
EndChar

StartChar: uniF175
Encoding: 61813 61813 109
Width: 1024
GlyphClass: 2
Flags: W
LayerCount: 2
Fore
SplineSet
874 811 m 1,0,-1
 989 811 l 2,1,2
 1002 811 1002 811 1011.5 801.5 c 128,-1,3
 1021 792 1021 792 1021 779 c 128,-1,4
 1021 766 1021 766 1011.5 756.5 c 128,-1,5
 1002 747 1002 747 989 747 c 2,6,-1
 874 747 l 1,7,-1
 874 633 l 2,8,9
 874 620 874 620 864.5 610.5 c 128,-1,10
 855 601 855 601 842 601 c 128,-1,11
 829 601 829 601 819.5 610.5 c 128,-1,12
 810 620 810 620 810 633 c 2,13,-1
 810 747 l 1,14,-1
 696 747 l 2,15,16
 683 747 683 747 673.5 756.5 c 128,-1,17
 664 766 664 766 664 779 c 128,-1,18
 664 792 664 792 673.5 801.5 c 128,-1,19
 683 811 683 811 696 811 c 2,20,-1
 810 811 l 1,21,-1
 810 925 l 2,22,23
 810 938 810 938 819.5 947.5 c 128,-1,24
 829 957 829 957 842 957 c 0,25,26
 856 957 856 957 865 947.5 c 128,-1,27
 874 938 874 938 874 925 c 2,28,-1
 874 811 l 1,0,-1
360 456 m 0,29,30
 242 456 242 456 196 509 c 0,31,32
 144 568 144 568 162 697 c 0,33,34
 174 787 174 787 226.5 838 c 128,-1,35
 279 889 279 889 360 889 c 128,-1,36
 441 889 441 889 493.5 838 c 128,-1,37
 546 787 546 787 558 697 c 0,38,39
 576 570 576 570 524 509 c 0,40,41
 477 456 477 456 360 456 c 0,29,30
225 688 m 0,42,43
 212 589 212 589 244 552 c 0,44,45
 272 520 272 520 360 520 c 0,46,47
 449 520 449 520 475 552 c 0,48,49
 509 589 509 589 495 688 c 0,50,51
 492 711 492 711 485 731.5 c 128,-1,52
 478 752 478 752 463.5 775 c 128,-1,53
 449 798 449 798 422.5 811.5 c 128,-1,54
 396 825 396 825 360 825 c 128,-1,55
 324 825 324 825 297.5 811.5 c 128,-1,56
 271 798 271 798 256.5 775 c 128,-1,57
 242 752 242 752 235 731.5 c 128,-1,58
 228 711 228 711 225 688 c 0,42,43
713 139 m 0,59,60
 724 92 724 92 696 56 c 0,61,62
 669 21 669 21 622 21 c 2,63,-1
 97 21 l 2,64,65
 51 21 51 21 23 57 c 0,66,67
 -6 93 -6 93 7 139 c 0,68,69
 35 252 35 252 133.5 323.5 c 128,-1,70
 232 395 232 395 360 395 c 128,-1,71
 488 395 488 395 586.5 323.5 c 128,-1,72
 685 252 685 252 713 139 c 0,59,60
646 96 m 0,73,74
 656 108 656 108 651 124 c 0,75,76
 629 215 629 215 547.5 273 c 128,-1,77
 466 331 466 331 360 331 c 128,-1,78
 254 331 254 331 172.5 273 c 128,-1,79
 91 215 91 215 69 124 c 0,80,81
 64 108 64 108 74 96 c 0,82,83
 82 85 82 85 97 85 c 2,84,-1
 622 85 l 2,85,86
 637 85 637 85 646 96 c 0,73,74
EndSplineSet
EndChar

StartChar: uniF176
Encoding: 61814 61814 110
Width: 1024
GlyphClass: 2
Flags: W
LayerCount: 2
Fore
SplineSet
824 564 m 0,0,1
 841 566 841 566 848 581 c 2,2,-1
 1003 894 l 2,3,4
 1009 906 1009 906 1005 918.5 c 128,-1,5
 1001 931 1001 931 989 937 c 128,-1,6
 977 943 977 943 964.5 938.5 c 128,-1,7
 952 934 952 934 946 923 c 2,8,-1
 811 651 l 1,9,-1
 729 738 l 2,10,11
 720 747 720 747 707 747.5 c 128,-1,12
 694 748 694 748 684 739 c 128,-1,13
 674 730 674 730 674 717 c 128,-1,14
 674 704 674 704 683 694 c 2,15,-1
 796 573 l 2,16,17
 806 563 806 563 824 564 c 0,0,1
360 456 m 0,18,19
 242 456 242 456 196 509 c 0,20,21
 144 568 144 568 162 697 c 0,22,23
 174 787 174 787 226.5 838 c 128,-1,24
 279 889 279 889 360 889 c 128,-1,25
 441 889 441 889 493.5 838 c 128,-1,26
 546 787 546 787 558 697 c 0,27,28
 576 570 576 570 524 509 c 0,29,30
 477 456 477 456 360 456 c 0,18,19
713 139 m 0,31,32
 724 93 724 93 696 57 c 0,33,34
 670 22 670 22 622 22 c 2,35,-1
 97 22 l 2,36,37
 50 22 50 22 23 57 c 0,38,39
 -6 93 -6 93 7 139 c 0,40,41
 35 252 35 252 133.5 323.5 c 128,-1,42
 232 395 232 395 360 395 c 128,-1,43
 488 395 488 395 586.5 323.5 c 128,-1,44
 685 252 685 252 713 139 c 0,31,32
EndSplineSet
EndChar

StartChar: uniF177
Encoding: 61815 61815 111
Width: 1024
GlyphClass: 2
Flags: W
LayerCount: 2
Fore
SplineSet
512 -11 m 128,-1,1
 636 -11 636 -11 742 50.5 c 128,-1,2
 848 112 848 112 909.5 218 c 128,-1,3
 971 324 971 324 971 448 c 128,-1,4
 971 572 971 572 909.5 678 c 128,-1,5
 848 784 848 784 742 845.5 c 128,-1,6
 636 907 636 907 512 907 c 128,-1,7
 388 907 388 907 282 845.5 c 128,-1,8
 176 784 176 784 114.5 678 c 128,-1,9
 53 572 53 572 53 448 c 128,-1,10
 53 324 53 324 114.5 218 c 128,-1,11
 176 112 176 112 282 50.5 c 128,-1,0
 388 -11 388 -11 512 -11 c 128,-1,1
512 843 m 128,-1,13
 676 843 676 843 791.5 727.5 c 128,-1,14
 907 612 907 612 907 448 c 128,-1,15
 907 284 907 284 791.5 168.5 c 128,-1,16
 676 53 676 53 512 53 c 128,-1,17
 348 53 348 53 232.5 168.5 c 128,-1,18
 117 284 117 284 117 448 c 128,-1,19
 117 612 117 612 232.5 727.5 c 128,-1,12
 348 843 348 843 512 843 c 128,-1,13
537 468 m 1,20,-1
 677 447 l 2,21,22
 690 446 690 446 698 435 c 128,-1,23
 706 424 706 424 704 411 c 0,24,25
 699 384 699 384 672 384 c 2,26,-1
 667 384 l 1,27,-1
 498 409 l 2,28,29
 487 411 487 411 480 420 c 128,-1,30
 473 429 473 429 473 441 c 2,31,-1
 473 686 l 2,32,33
 473 700 473 700 482.5 709 c 128,-1,34
 492 718 492 718 505 718 c 128,-1,35
 518 718 518 718 527.5 708.5 c 128,-1,36
 537 699 537 699 537 686 c 2,37,-1
 537 468 l 1,20,-1
EndSplineSet
EndChar

StartChar: uniF178
Encoding: 61816 61816 112
Width: 1024
GlyphClass: 2
Flags: W
LayerCount: 2
Fore
SplineSet
314 404 m 128,-1,1
 211 404 211 404 170 451 c 0,2,3
 125 503 125 503 140 615 c 0,4,5
 150 694 150 694 196.5 739 c 128,-1,6
 243 784 243 784 314 784 c 128,-1,7
 385 784 385 784 431.5 739 c 128,-1,8
 478 694 478 694 488 615 c 0,9,10
 503 503 503 503 458 451 c 0,11,0
 417 404 417 404 314 404 c 128,-1,1
713 404 m 0,12,13
 609 404 609 404 569 451 c 0,14,15
 523 503 523 503 538 615 c 0,16,17
 548 694 548 694 594.5 739 c 128,-1,18
 641 784 641 784 712 784 c 128,-1,19
 783 784 783 784 829.5 739.5 c 128,-1,20
 876 695 876 695 887 615 c 0,21,22
 902 503 902 503 856 451 c 0,23,24
 816 404 816 404 713 404 c 0,12,13
203 607 m 0,25,26
 192 523 192 523 218 493 c 0,27,28
 240 468 240 468 314 468 c 128,-1,29
 388 468 388 468 410 493 c 0,30,31
 436 523 436 523 425 607 c 0,32,33
 422 626 422 626 416.5 643 c 128,-1,34
 411 660 411 660 399 679 c 128,-1,35
 387 698 387 698 365 709 c 128,-1,36
 343 720 343 720 314 720 c 128,-1,37
 285 720 285 720 263 709 c 128,-1,38
 241 698 241 698 229 679 c 128,-1,39
 217 660 217 660 211.5 643 c 128,-1,40
 206 626 206 626 203 607 c 0,25,26
602 607 m 0,41,42
 590 523 590 523 617 493 c 0,43,44
 639 468 639 468 713 468 c 0,45,46
 786 468 786 468 808 493 c 0,47,48
 835 523 835 523 823 607 c 0,49,50
 821 626 821 626 815 643 c 128,-1,51
 809 660 809 660 797.5 678.5 c 128,-1,52
 786 697 786 697 764 708.5 c 128,-1,53
 742 720 742 720 713 720 c 0,54,55
 683 720 683 720 661 708.5 c 128,-1,56
 639 697 639 697 627.5 678.5 c 128,-1,57
 616 660 616 660 610 643 c 128,-1,58
 604 626 604 626 602 607 c 0,41,42
1019 128 m 0,59,60
 1030 87 1030 87 1004 53 c 0,61,62
 978 21 978 21 937 21 c 2,63,-1
 89 21 l 2,64,65
 48 21 48 21 22 53 c 0,66,67
 -3 85 -3 85 7 128 c 0,68,69
 32 226 32 226 117.5 288 c 128,-1,70
 203 350 203 350 314 350 c 0,71,72
 427 350 427 350 513 286 c 1,73,74
 601 350 601 350 713 350 c 0,75,76
 824 350 824 350 909.5 288 c 128,-1,77
 995 226 995 226 1019 128 c 0,59,60
89 85 m 2,78,-1
 539 85 l 2,79,80
 549 85 549 85 555 93 c 0,81,82
 561 100 561 100 559 112 c 0,83,84
 540 189 540 189 471.5 237.5 c 128,-1,85
 403 286 403 286 314 286 c 128,-1,86
 225 286 225 286 157 238 c 128,-1,87
 89 190 89 190 69 113 c 0,88,89
 66 102 66 102 73 92 c 0,90,91
 80 85 80 85 89 85 c 2,78,-1
954 93 m 128,-1,93
 960 101 960 101 957 112 c 0,94,95
 938 189 938 189 869.5 237.5 c 128,-1,96
 801 286 801 286 712 286 c 0,97,98
 628 286 628 286 561 241 c 1,99,100
 606 189 606 189 621 128 c 0,101,102
 625 106 625 106 621 85 c 1,103,-1
 937 85 l 2,104,92
 948 85 948 85 954 93 c 128,-1,93
EndSplineSet
EndChar

StartChar: uniF179
Encoding: 61817 61817 113
Width: 1024
GlyphClass: 2
Flags: W
LayerCount: 2
Fore
SplineSet
1009 749 m 1,0,1
 969 689 969 689 910 646 c 1,2,-1
 910 621 l 2,3,4
 910 541 910 541 887 461 c 128,-1,5
 864 381 864 381 816 308 c 128,-1,6
 768 235 768 235 702 178.5 c 128,-1,7
 636 122 636 122 543.5 88.5 c 128,-1,8
 451 55 451 55 345 55 c 0,9,10
 179 55 179 55 40 145 c 1,11,12
 64 142 64 142 87 142 c 0,13,14
 225 142 225 142 334 227 c 1,15,16
 270 228 270 228 219 266.5 c 128,-1,17
 168 305 168 305 149 365 c 1,18,19
 173 361 173 361 186 361 c 0,20,21
 210 361 210 361 238 368 c 1,22,23
 169 382 169 382 124 437 c 128,-1,24
 79 492 79 492 79 563 c 2,25,-1
 79 566 l 1,26,27
 121 542 121 542 169 541 c 1,28,29
 129 568 129 568 105 611.5 c 128,-1,30
 81 655 81 655 81 706 c 0,31,32
 81 762 81 762 107 806 c 1,33,34
 182 714 182 714 288.5 659.5 c 128,-1,35
 395 605 395 605 517 599 c 1,36,37
 512 622 512 622 512 644 c 0,38,39
 512 726 512 726 570 784.5 c 128,-1,40
 628 843 628 843 711 843 c 0,41,42
 796 843 796 843 856 780 c 1,43,44
 926 794 926 794 982 828 c 1,45,46
 959 757 959 757 895 718 c 1,47,48
 952 725 952 725 1009 749 c 1,0,1
EndSplineSet
EndChar

StartChar: uniF180
Encoding: 61824 61824 114
Width: 1024
GlyphClass: 2
Flags: W
LayerCount: 2
Fore
SplineSet
542 659 m 2,0,-1
 862 339 l 2,1,2
 875 327 875 327 875 309.5 c 128,-1,3
 875 292 875 292 862 279 c 0,4,5
 850 267 850 267 832 267 c 128,-1,6
 814 267 814 267 802 279 c 2,7,-1
 512 569 l 1,8,-1
 222 279 l 2,9,10
 210 267 210 267 192 267 c 128,-1,11
 174 267 174 267 162 279 c 0,12,13
 149 292 149 292 149 309.5 c 128,-1,14
 149 327 149 327 162 339 c 2,15,-1
 482 659 l 2,16,17
 495 672 495 672 512.5 672 c 128,-1,18
 530 672 530 672 542 659 c 2,0,-1
EndSplineSet
EndChar

StartChar: uniF181
Encoding: 61825 61825 115
Width: 1024
GlyphClass: 2
Flags: W
LayerCount: 2
Fore
SplineSet
862 612 m 0,0,1
 875 600 875 600 875 582.5 c 128,-1,2
 875 565 875 565 862 552 c 2,3,-1
 542 232 l 2,4,5
 529 219 529 219 512 219 c 128,-1,6
 495 219 495 219 482 232 c 2,7,-1
 162 552 l 2,8,9
 149 565 149 565 149 582.5 c 128,-1,10
 149 600 149 600 162 612 c 0,11,12
 175 625 175 625 192.5 625 c 128,-1,13
 210 625 210 625 222 612 c 2,14,-1
 512 323 l 1,15,-1
 802 612 l 2,16,17
 815 625 815 625 832.5 625 c 128,-1,18
 850 625 850 625 862 612 c 0,0,1
EndSplineSet
EndChar

StartChar: uniF182
Encoding: 61826 61826 116
Width: 1024
GlyphClass: 2
Flags: W
LayerCount: 2
Fore
SplineSet
512 907 m 128,-1,1
 636 907 636 907 742 845.5 c 128,-1,2
 848 784 848 784 909.5 678 c 128,-1,3
 971 572 971 572 971 448 c 128,-1,4
 971 324 971 324 909.5 218 c 128,-1,5
 848 112 848 112 742 50.5 c 128,-1,6
 636 -11 636 -11 512 -11 c 128,-1,7
 388 -11 388 -11 282 50.5 c 128,-1,8
 176 112 176 112 114.5 218 c 128,-1,9
 53 324 53 324 53 448 c 128,-1,10
 53 572 53 572 114.5 678 c 128,-1,11
 176 784 176 784 282 845.5 c 128,-1,0
 388 907 388 907 512 907 c 128,-1,1
540 374 m 2,12,-1
 617 634 l 2,13,14
 620 645 620 645 614 653 c 0,15,16
 607 662 607 662 597 662 c 2,17,-1
 429 662 l 2,18,19
 419 662 419 662 412 653 c 0,20,21
 406 645 406 645 409 634 c 2,22,-1
 486 374 l 2,23,24
 491 359 491 359 507 359 c 2,25,-1
 519 359 l 2,26,27
 535 359 535 359 540 374 c 2,12,-1
513 204 m 128,-1,29
 536 204 536 204 552 220 c 128,-1,30
 568 236 568 236 568 259 c 0,31,32
 568 281 568 281 552 297 c 128,-1,33
 536 313 536 313 513 313 c 128,-1,34
 490 313 490 313 474 297 c 128,-1,35
 458 281 458 281 458 259 c 0,36,37
 458 236 458 236 474 220 c 128,-1,28
 490 204 490 204 513 204 c 128,-1,29
EndSplineSet
EndChar

StartChar: uniF183
Encoding: 61827 61827 117
Width: 1024
GlyphClass: 2
Flags: W
LayerCount: 2
Fore
SplineSet
555 491 m 1,0,-1
 843 491 l 2,1,2
 860 491 860 491 872.5 478.5 c 128,-1,3
 885 466 885 466 885 448 c 128,-1,4
 885 430 885 430 872.5 417.5 c 128,-1,5
 860 405 860 405 843 405 c 2,6,-1
 555 405 l 1,7,-1
 555 117 l 2,8,9
 555 100 555 100 542.5 87.5 c 128,-1,10
 530 75 530 75 512 75 c 128,-1,11
 494 75 494 75 481.5 87.5 c 128,-1,12
 469 100 469 100 469 117 c 2,13,-1
 469 405 l 1,14,-1
 181 405 l 2,15,16
 164 405 164 405 151.5 417.5 c 128,-1,17
 139 430 139 430 139 448 c 128,-1,18
 139 466 139 466 151.5 478.5 c 128,-1,19
 164 491 164 491 181 491 c 2,20,-1
 469 491 l 1,21,-1
 469 779 l 2,22,23
 469 796 469 796 481.5 808.5 c 128,-1,24
 494 821 494 821 512 821 c 128,-1,25
 530 821 530 821 542.5 808.5 c 128,-1,26
 555 796 555 796 555 779 c 2,27,-1
 555 491 l 1,0,-1
EndSplineSet
EndChar

StartChar: uniF184
Encoding: 61828 61828 118
Width: 1024
GlyphClass: 2
Flags: W
LayerCount: 2
Fore
SplineSet
213 405 m 2,0,-1
 811 405 l 2,1,2
 828 405 828 405 840.5 417.5 c 128,-1,3
 853 430 853 430 853 448 c 128,-1,4
 853 466 853 466 840.5 478.5 c 128,-1,5
 828 491 828 491 811 491 c 2,6,-1
 213 491 l 2,7,8
 196 491 196 491 183.5 478.5 c 128,-1,9
 171 466 171 466 171 448 c 128,-1,10
 171 430 171 430 183.5 417.5 c 128,-1,11
 196 405 196 405 213 405 c 2,0,-1
EndSplineSet
EndChar

StartChar: uniF185
Encoding: 61829 61829 119
Width: 1024
GlyphClass: 2
Flags: W
LayerCount: 2
Fore
SplineSet
535 855 m 2,0,-1
 748 641 l 2,1,2
 757 632 757 632 757 619 c 128,-1,3
 757 606 757 606 748 596 c 0,4,5
 739 587 739 587 725 587 c 0,6,7
 712 587 712 587 703 596 c 2,8,-1
 544 755 l 1,9,-1
 544 320 l 2,10,11
 544 306 544 306 535 297 c 128,-1,12
 526 288 526 288 512 288 c 128,-1,13
 498 288 498 288 489 297 c 128,-1,14
 480 306 480 306 480 320 c 2,15,-1
 480 755 l 1,16,-1
 321 596 l 2,17,18
 312 587 312 587 299 587 c 128,-1,19
 286 587 286 587 276 596 c 0,20,21
 266 606 266 606 266 619 c 128,-1,22
 266 632 266 632 276 641 c 2,23,-1
 489 855 l 2,24,25
 499 864 499 864 512 864 c 128,-1,26
 525 864 525 864 535 855 c 2,0,-1
183 24 m 2,27,-1
 841 24 l 2,28,29
 882 24 882 24 910.5 53 c 128,-1,30
 939 82 939 82 939 122 c 2,31,-1
 939 363 l 2,32,33
 939 376 939 376 929.5 385.5 c 128,-1,34
 920 395 920 395 907 395 c 128,-1,35
 894 395 894 395 884.5 385.5 c 128,-1,36
 875 376 875 376 875 363 c 2,37,-1
 875 122 l 2,38,39
 875 108 875 108 865 98 c 128,-1,40
 855 88 855 88 841 88 c 2,41,-1
 183 88 l 2,42,43
 169 88 169 88 159 98 c 128,-1,44
 149 108 149 108 149 122 c 2,45,-1
 149 363 l 2,46,47
 149 376 149 376 139.5 385.5 c 128,-1,48
 130 395 130 395 117 395 c 128,-1,49
 104 395 104 395 94.5 385.5 c 128,-1,50
 85 376 85 376 85 363 c 2,51,-1
 85 122 l 2,52,53
 85 82 85 82 113.5 53 c 128,-1,54
 142 24 142 24 183 24 c 2,27,-1
EndSplineSet
EndChar

StartChar: uniF186
Encoding: 61830 61830 120
Width: 1024
GlyphClass: 2
Flags: W
LayerCount: 2
Fore
SplineSet
489 340 m 2,0,-1
 276 553 l 2,1,2
 266 563 266 563 266.5 576 c 128,-1,3
 267 589 267 589 276 599 c 0,4,5
 286 608 286 608 299 608 c 128,-1,6
 312 608 312 608 321 599 c 2,7,-1
 480 440 l 1,8,-1
 480 875 l 2,9,10
 480 888 480 888 489.5 897.5 c 128,-1,11
 499 907 499 907 512 907 c 128,-1,12
 525 907 525 907 534.5 897.5 c 128,-1,13
 544 888 544 888 544 875 c 2,14,-1
 544 440 l 1,15,-1
 703 599 l 2,16,17
 712 608 712 608 725 608 c 128,-1,18
 738 608 738 608 748 599 c 0,19,20
 757 589 757 589 757 576 c 128,-1,21
 757 563 757 563 748 553 c 2,22,-1
 535 340 l 2,23,24
 524 331 524 331 512 331 c 128,-1,25
 500 331 500 331 489 340 c 2,0,-1
907 395 m 128,-1,27
 920 395 920 395 929.5 385.5 c 128,-1,28
 939 376 939 376 939 363 c 2,29,-1
 939 122 l 2,30,31
 939 82 939 82 910.5 53 c 128,-1,32
 882 24 882 24 841 24 c 2,33,-1
 183 24 l 2,34,35
 142 24 142 24 113.5 53 c 128,-1,36
 85 82 85 82 85 122 c 2,37,-1
 85 363 l 2,38,39
 85 376 85 376 94.5 385.5 c 128,-1,40
 104 395 104 395 117 395 c 128,-1,41
 130 395 130 395 139.5 385.5 c 128,-1,42
 149 376 149 376 149 363 c 2,43,-1
 149 122 l 2,44,45
 149 108 149 108 159 98 c 128,-1,46
 169 88 169 88 183 88 c 2,47,-1
 841 88 l 2,48,49
 855 88 855 88 865 98 c 128,-1,50
 875 108 875 108 875 122 c 2,51,-1
 875 363 l 2,52,53
 875 376 875 376 884.5 385.5 c 128,-1,26
 894 395 894 395 907 395 c 128,-1,27
EndSplineSet
EndChar

StartChar: uniF187
Encoding: 61831 61831 121
Width: 1024
GlyphClass: 2
Flags: W
LayerCount: 2
Fore
SplineSet
203 831 m 2,0,-1
 821 831 l 2,1,2
 870 831 870 831 904.5 797 c 128,-1,3
 939 763 939 763 939 714 c 2,4,-1
 939 181 l 2,5,6
 939 132 939 132 904.5 97.5 c 128,-1,7
 870 63 870 63 821 63 c 2,8,-1
 203 63 l 2,9,10
 154 63 154 63 119.5 97.5 c 128,-1,11
 85 132 85 132 85 181 c 2,12,-1
 85 714 l 2,13,14
 85 763 85 763 119.5 797 c 128,-1,15
 154 831 154 831 203 831 c 2,0,-1
821 767 m 2,16,-1
 203 767 l 2,17,18
 181 767 181 767 165 751.5 c 128,-1,19
 149 736 149 736 149 714 c 2,20,-1
 149 683 l 1,21,-1
 493 455 l 2,22,23
 511 442 511 442 531 454 c 2,24,-1
 875 683 l 1,25,-1
 875 714 l 2,26,27
 875 736 875 736 859 751.5 c 128,-1,28
 843 767 843 767 821 767 c 2,16,-1
203 127 m 2,29,-1
 821 127 l 2,30,31
 844 127 844 127 859.5 142.5 c 128,-1,32
 875 158 875 158 875 181 c 2,33,-1
 875 608 l 1,34,-1
 566 402 l 2,35,36
 541 386 541 386 512 386 c 128,-1,37
 483 386 483 386 458 402 c 2,38,-1
 149 608 l 1,39,-1
 149 181 l 2,40,41
 149 158 149 158 164.5 142.5 c 128,-1,42
 180 127 180 127 203 127 c 2,29,-1
EndSplineSet
EndChar

StartChar: uniF188
Encoding: 61832 61832 122
Width: 1024
GlyphClass: 2
Flags: W
LayerCount: 2
Fore
SplineSet
542 777 m 2,0,-1
 798 521 l 2,1,2
 811 508 811 508 811 490.5 c 128,-1,3
 811 473 811 473 798 461 c 0,4,5
 786 448 786 448 768 448 c 128,-1,6
 750 448 750 448 738 461 c 2,7,-1
 555 644 l 1,8,-1
 555 107 l 2,9,10
 555 89 555 89 542.5 76.5 c 128,-1,11
 530 64 530 64 512 64 c 128,-1,12
 494 64 494 64 481.5 76.5 c 128,-1,13
 469 89 469 89 469 107 c 2,14,-1
 469 644 l 1,15,-1
 286 461 l 2,16,17
 274 448 274 448 256 448 c 128,-1,18
 238 448 238 448 226 461 c 0,19,20
 213 473 213 473 213 490.5 c 128,-1,21
 213 508 213 508 226 521 c 2,22,-1
 482 777 l 2,23,24
 495 789 495 789 512.5 789 c 128,-1,25
 530 789 530 789 542 777 c 2,0,-1
EndSplineSet
EndChar

StartChar: uniF189
Encoding: 61833 61833 123
Width: 1024
GlyphClass: 2
Flags: W
LayerCount: 2
Fore
SplineSet
511 21 m 128,-1,1
 335 21 335 21 209.5 146.5 c 128,-1,2
 84 272 84 272 84 448 c 128,-1,3
 84 624 84 624 209.5 749.5 c 128,-1,4
 335 875 335 875 511 875 c 0,5,6
 615 875 615 875 707.5 826.5 c 128,-1,7
 800 778 800 778 860 693 c 1,8,-1
 874 805 l 2,9,10
 876 817 876 817 884.5 825 c 128,-1,11
 893 833 893 833 905 833 c 2,12,-1
 909 833 l 2,13,14
 922 832 922 832 930.5 821.5 c 128,-1,15
 939 811 939 811 937 797 c 2,16,-1
 913 596 l 2,17,18
 912 584 912 584 900 574 c 0,19,20
 889 566 889 566 875 569 c 2,21,-1
 676 605 l 2,22,23
 663 608 663 608 655.5 619 c 128,-1,24
 648 630 648 630 651 643 c 0,25,26
 653 656 653 656 664 663.5 c 128,-1,27
 675 671 675 671 688 668 c 2,28,-1
 815 645 l 1,29,30
 765 722 765 722 684 766.5 c 128,-1,31
 603 811 603 811 511 811 c 0,32,33
 361 811 361 811 254.5 704.5 c 128,-1,34
 148 598 148 598 148 448 c 128,-1,35
 148 298 148 298 254.5 191.5 c 128,-1,36
 361 85 361 85 511 85 c 128,-1,37
 661 85 661 85 767.5 191.5 c 128,-1,38
 874 298 874 298 874 448 c 0,39,40
 874 462 874 462 883 471 c 128,-1,41
 892 480 892 480 906 480 c 0,42,43
 919 480 919 480 928.5 470.5 c 128,-1,44
 938 461 938 461 938 448 c 0,45,46
 938 272 938 272 812.5 146.5 c 128,-1,0
 687 21 687 21 511 21 c 128,-1,1
EndSplineSet
EndChar

StartChar: uniF190
Encoding: 61840 61840 124
Width: 1024
GlyphClass: 2
Flags: W
LayerCount: 2
Fore
SplineSet
320 224 m 2,0,-1
 939 224 l 2,1,2
 952 224 952 224 961.5 214.5 c 128,-1,3
 971 205 971 205 971 192 c 128,-1,4
 971 179 971 179 961.5 169.5 c 128,-1,5
 952 160 952 160 939 160 c 2,6,-1
 320 160 l 2,7,8
 280 160 280 160 252 188 c 128,-1,9
 224 216 224 216 224 256 c 2,10,-1
 224 875 l 2,11,12
 224 888 224 888 233.5 897.5 c 128,-1,13
 243 907 243 907 256 907 c 128,-1,14
 269 907 269 907 278.5 897.5 c 128,-1,15
 288 888 288 888 288 875 c 2,16,-1
 288 256 l 2,17,18
 288 242 288 242 297 233 c 128,-1,19
 306 224 306 224 320 224 c 2,0,-1
85 736 m 2,20,-1
 149 736 l 2,21,22
 162 736 162 736 171.5 727 c 128,-1,23
 181 718 181 718 181 704 c 128,-1,24
 181 690 181 690 171.5 681 c 128,-1,25
 162 672 162 672 149 672 c 2,26,-1
 85 672 l 2,27,28
 72 672 72 672 62.5 681.5 c 128,-1,29
 53 691 53 691 53 704 c 128,-1,30
 53 717 53 717 62.5 726.5 c 128,-1,31
 72 736 72 736 85 736 c 2,20,-1
704 672 m 2,32,-1
 363 672 l 2,33,34
 350 672 350 672 340.5 681 c 128,-1,35
 331 690 331 690 331 704 c 128,-1,36
 331 718 331 718 340.5 727 c 128,-1,37
 350 736 350 736 363 736 c 2,38,-1
 704 736 l 2,39,40
 744 736 744 736 772 708 c 128,-1,41
 800 680 800 680 800 640 c 2,42,-1
 800 299 l 2,43,44
 800 286 800 286 791 276.5 c 128,-1,45
 782 267 782 267 768 267 c 128,-1,46
 754 267 754 267 745 276.5 c 128,-1,47
 736 286 736 286 736 299 c 2,48,-1
 736 640 l 2,49,50
 736 654 736 654 727 663 c 128,-1,51
 718 672 718 672 704 672 c 2,32,-1
768 117 m 128,-1,53
 782 117 782 117 791 107.5 c 128,-1,54
 800 98 800 98 800 85 c 2,55,-1
 800 21 l 2,56,57
 800 8 800 8 790.5 -1.5 c 128,-1,58
 781 -11 781 -11 768 -11 c 128,-1,59
 755 -11 755 -11 745.5 -1.5 c 128,-1,60
 736 8 736 8 736 21 c 2,61,-1
 736 85 l 2,62,63
 736 98 736 98 745 107.5 c 128,-1,52
 754 117 754 117 768 117 c 128,-1,53
EndSplineSet
EndChar

StartChar: uniF191
Encoding: 61841 61841 125
Width: 1024
GlyphClass: 2
Flags: W
LayerCount: 2
Fore
SplineSet
199 448 m 1,0,-1
 571 76 l 2,1,2
 580 66 580 66 580 53 c 128,-1,3
 580 40 580 40 571 31 c 0,4,5
 561 21 561 21 548 21 c 0,6,7
 537 21 537 21 525 31 c 2,8,-1
 131 425 l 2,9,10
 121 435 121 435 121 448 c 128,-1,11
 121 461 121 461 131 471 c 2,12,-1
 525 865 l 2,13,14
 535 875 535 875 548 875 c 128,-1,15
 561 875 561 875 571 865 c 0,16,17
 580 856 580 856 580 843 c 128,-1,18
 580 830 580 830 571 820 c 2,19,-1
 199 448 l 1,0,-1
532 448 m 1,20,-1
 904 76 l 2,21,22
 913 66 913 66 913 53 c 128,-1,23
 913 40 913 40 904 31 c 0,24,25
 895 21 895 21 881 21 c 0,26,27
 869 21 869 21 859 31 c 2,28,-1
 464 425 l 2,29,30
 454 435 454 435 454 448 c 128,-1,31
 454 461 454 461 464 471 c 2,32,-1
 859 865 l 2,33,34
 868 875 868 875 881 875 c 128,-1,35
 894 875 894 875 904 865 c 0,36,37
 913 856 913 856 913 843 c 128,-1,38
 913 830 913 830 904 820 c 2,39,-1
 532 448 l 1,20,-1
EndSplineSet
EndChar

StartChar: uniF192
Encoding: 61842 61842 126
Width: 1024
GlyphClass: 2
Flags: W
LayerCount: 2
Fore
SplineSet
176 865 m 2,0,-1
 571 471 l 2,1,2
 580 461 580 461 580 448 c 128,-1,3
 580 435 580 435 571 425 c 2,4,-1
 176 31 l 2,5,6
 167 21 167 21 153 21 c 0,7,8
 140 21 140 21 131 31 c 0,9,10
 121 40 121 40 121 53 c 128,-1,11
 121 66 121 66 131 76 c 2,12,-1
 503 448 l 1,13,-1
 131 820 l 2,14,15
 121 830 121 830 121 843 c 128,-1,16
 121 856 121 856 131 865 c 0,17,18
 140 875 140 875 153.5 875 c 128,-1,19
 167 875 167 875 176 865 c 2,0,-1
509 865 m 2,20,-1
 904 471 l 2,21,22
 913 461 913 461 913 448 c 128,-1,23
 913 435 913 435 904 425 c 2,24,-1
 509 31 l 2,25,26
 500 21 500 21 487 21 c 0,27,28
 473 21 473 21 464 31 c 0,29,30
 454 40 454 40 454 53 c 128,-1,31
 454 66 454 66 464 76 c 2,32,-1
 836 448 l 1,33,-1
 464 820 l 2,34,35
 454 830 454 830 454.5 843 c 128,-1,36
 455 856 455 856 464 865 c 0,37,38
 473 875 473 875 486.5 875 c 128,-1,39
 500 875 500 875 509 865 c 2,20,-1
EndSplineSet
EndChar

StartChar: uniF193
Encoding: 61843 61843 127
Width: 1024
GlyphClass: 2
Flags: W
LayerCount: 2
Fore
SplineSet
380 448 m 1,0,-1
 670 158 l 2,1,2
 683 146 683 146 683 128 c 128,-1,3
 683 110 683 110 670 98 c 0,4,5
 657 85 657 85 640 85 c 128,-1,6
 623 85 623 85 610 98 c 2,7,-1
 290 418 l 2,8,9
 277 431 277 431 277 448.5 c 128,-1,10
 277 466 277 466 290 478 c 2,11,-1
 610 798 l 2,12,13
 623 811 623 811 640.5 811 c 128,-1,14
 658 811 658 811 670 798 c 0,15,16
 683 785 683 785 683 767.5 c 128,-1,17
 683 750 683 750 670 738 c 2,18,-1
 380 448 l 1,0,-1
EndSplineSet
EndChar

StartChar: uniF194
Encoding: 61844 61844 128
Width: 1024
GlyphClass: 2
Flags: W
LayerCount: 2
Fore
SplineSet
414 798 m 2,0,-1
 734 478 l 2,1,2
 747 465 747 465 747 447.5 c 128,-1,3
 747 430 747 430 734 418 c 2,4,-1
 414 98 l 2,5,6
 401 85 401 85 384 85 c 128,-1,7
 367 85 367 85 354 98 c 0,8,9
 341 110 341 110 341 128 c 128,-1,10
 341 146 341 146 354 158 c 2,11,-1
 644 448 l 1,12,-1
 354 738 l 2,13,14
 341 751 341 751 341 768.5 c 128,-1,15
 341 786 341 786 354 798 c 0,16,17
 367 811 367 811 384.5 811 c 128,-1,18
 402 811 402 811 414 798 c 2,0,-1
EndSplineSet
EndChar

StartChar: uniF195
Encoding: 61845 61845 129
Width: 1024
GlyphClass: 2
Flags: W
LayerCount: 2
Fore
SplineSet
542 659 m 2,0,-1
 862 339 l 2,1,2
 875 327 875 327 875 309.5 c 128,-1,3
 875 292 875 292 862 279 c 0,4,5
 850 267 850 267 832 267 c 128,-1,6
 814 267 814 267 802 279 c 2,7,-1
 512 569 l 1,8,-1
 222 279 l 2,9,10
 210 267 210 267 192 267 c 128,-1,11
 174 267 174 267 162 279 c 0,12,13
 149 292 149 292 149 309.5 c 128,-1,14
 149 327 149 327 162 339 c 2,15,-1
 482 659 l 2,16,17
 495 672 495 672 512.5 672 c 128,-1,18
 530 672 530 672 542 659 c 2,0,-1
EndSplineSet
EndChar

StartChar: uniF196
Encoding: 61846 61846 130
Width: 1024
GlyphClass: 2
Flags: W
LayerCount: 2
Fore
SplineSet
862 612 m 0,0,1
 875 600 875 600 875 582.5 c 128,-1,2
 875 565 875 565 862 552 c 2,3,-1
 542 232 l 2,4,5
 529 219 529 219 512 219 c 128,-1,6
 495 219 495 219 482 232 c 2,7,-1
 162 552 l 2,8,9
 149 565 149 565 149 582.5 c 128,-1,10
 149 600 149 600 162 612 c 0,11,12
 175 625 175 625 192.5 625 c 128,-1,13
 210 625 210 625 222 612 c 2,14,-1
 512 323 l 1,15,-1
 802 612 l 2,16,17
 815 625 815 625 832.5 625 c 128,-1,18
 850 625 850 625 862 612 c 0,0,1
EndSplineSet
EndChar

StartChar: uniF197
Encoding: 61847 61847 131
Width: 1026
GlyphClass: 2
Flags: W
LayerCount: 2
Fore
SplineSet
388 107 m 0,0,1
 409 109 409 109 419 125 c 2,2,-1
 841 723 l 2,3,4
 851 737 851 737 848 754.5 c 128,-1,5
 845 772 845 772 831 782 c 0,6,7
 816 792 816 792 799 789 c 128,-1,8
 782 786 782 786 771 772 c 2,9,-1
 378 215 l 1,10,-1
 210 384 l 2,11,12
 197 396 197 396 179.5 396 c 128,-1,13
 162 396 162 396 150 384 c 0,14,15
 137 371 137 371 137 353.5 c 128,-1,16
 137 336 137 336 150 323 c 2,17,-1
 354 119 l 2,18,19
 366 107 366 107 388 107 c 0,0,1
EndSplineSet
EndChar

StartChar: uniF198
Encoding: 61848 61848 132
Width: 1024
GlyphClass: 2
Flags: W
LayerCount: 2
Fore
SplineSet
555 491 m 1,0,-1
 843 491 l 2,1,2
 860 491 860 491 872.5 478.5 c 128,-1,3
 885 466 885 466 885 448 c 128,-1,4
 885 430 885 430 872.5 417.5 c 128,-1,5
 860 405 860 405 843 405 c 2,6,-1
 555 405 l 1,7,-1
 555 117 l 2,8,9
 555 100 555 100 542.5 87.5 c 128,-1,10
 530 75 530 75 512 75 c 128,-1,11
 494 75 494 75 481.5 87.5 c 128,-1,12
 469 100 469 100 469 117 c 2,13,-1
 469 405 l 1,14,-1
 181 405 l 2,15,16
 164 405 164 405 151.5 417.5 c 128,-1,17
 139 430 139 430 139 448 c 128,-1,18
 139 466 139 466 151.5 478.5 c 128,-1,19
 164 491 164 491 181 491 c 2,20,-1
 469 491 l 1,21,-1
 469 779 l 2,22,23
 469 796 469 796 481.5 808.5 c 128,-1,24
 494 821 494 821 512 821 c 128,-1,25
 530 821 530 821 542.5 808.5 c 128,-1,26
 555 796 555 796 555 779 c 2,27,-1
 555 491 l 1,0,-1
EndSplineSet
EndChar

StartChar: uniF199
Encoding: 61849 61849 133
Width: 1024
GlyphClass: 2
Flags: W
LayerCount: 2
Fore
SplineSet
806 569 m 1,0,-1
 863 569 l 2,1,2
 894 569 894 569 916.5 546.5 c 128,-1,3
 939 524 939 524 939 493 c 2,4,-1
 939 395 l 2,5,6
 939 364 939 364 916.5 341.5 c 128,-1,7
 894 319 894 319 863 319 c 2,8,-1
 674 319 l 1,9,10
 676 311 676 311 676 307 c 2,11,-1
 676 208 l 2,12,13
 676 176 676 176 654 154 c 128,-1,14
 632 132 632 132 600 132 c 2,15,-1
 149 132 l 1,16,-1
 149 71 l 2,17,18
 149 58 149 58 139.5 48.5 c 128,-1,19
 130 39 130 39 117 39 c 128,-1,20
 104 39 104 39 94.5 48.5 c 128,-1,21
 85 58 85 58 85 71 c 2,22,-1
 85 817 l 2,23,24
 85 830 85 830 94.5 839.5 c 128,-1,25
 104 849 104 849 117 849 c 128,-1,26
 130 849 130 849 139.5 839.5 c 128,-1,27
 149 830 149 830 149 817 c 2,28,-1
 149 755 l 1,29,-1
 731 755 l 2,30,31
 763 755 763 755 785 733 c 128,-1,32
 807 711 807 711 807 680 c 2,33,-1
 807 581 l 2,34,35
 807 573 807 573 806 569 c 1,0,-1
149 692 m 1,36,-1
 149 569 l 1,37,-1
 731 569 l 2,38,39
 743 569 743 569 743 581 c 2,40,-1
 743 680 l 2,41,42
 743 690 743 690 731 692 c 2,43,-1
 149 692 l 1,36,-1
875 395 m 2,44,-1
 875 493 l 2,45,46
 875 505 875 505 863 505 c 2,47,-1
 149 505 l 1,48,-1
 149 383 l 1,49,-1
 863 383 l 2,50,51
 875 383 875 383 875 395 c 2,44,-1
612 208 m 2,52,-1
 612 307 l 2,53,54
 612 312 612 312 608 315.5 c 128,-1,55
 604 319 604 319 600 319 c 2,56,-1
 149 319 l 1,57,-1
 149 196 l 1,58,-1
 600 196 l 2,59,60
 604 196 604 196 608 200 c 128,-1,61
 612 204 612 204 612 208 c 2,52,-1
EndSplineSet
EndChar

StartChar: uniF200
Encoding: 61952 61952 134
Width: 1024
GlyphClass: 2
Flags: W
LayerCount: 2
Fore
SplineSet
512 21 m 128,-1,1
 525 21 525 21 534.5 30.5 c 128,-1,2
 544 40 544 40 544 53 c 2,3,-1
 544 843 l 2,4,5
 544 856 544 856 534.5 865.5 c 128,-1,6
 525 875 525 875 512 875 c 128,-1,7
 499 875 499 875 489.5 865.5 c 128,-1,8
 480 856 480 856 480 843 c 2,9,-1
 480 53 l 2,10,11
 480 40 480 40 489.5 30.5 c 128,-1,0
 499 21 499 21 512 21 c 128,-1,1
731 21 m 128,-1,13
 744 21 744 21 753.5 30.5 c 128,-1,14
 763 40 763 40 763 53 c 2,15,-1
 763 623 l 2,16,17
 763 636 763 636 753.5 645.5 c 128,-1,18
 744 655 744 655 731 655 c 128,-1,19
 718 655 718 655 708.5 645.5 c 128,-1,20
 699 636 699 636 699 623 c 2,21,-1
 699 53 l 2,22,23
 699 40 699 40 708.5 30.5 c 128,-1,12
 718 21 718 21 731 21 c 128,-1,13
293 21 m 128,-1,25
 306 21 306 21 315.5 30.5 c 128,-1,26
 325 40 325 40 325 53 c 2,27,-1
 325 492 l 2,28,29
 325 505 325 505 315.5 514.5 c 128,-1,30
 306 524 306 524 293 524 c 128,-1,31
 280 524 280 524 270.5 514.5 c 128,-1,32
 261 505 261 505 261 492 c 2,33,-1
 261 53 l 2,34,35
 261 40 261 40 270.5 30.5 c 128,-1,24
 280 21 280 21 293 21 c 128,-1,25
EndSplineSet
EndChar

StartChar: uniF201
Encoding: 61953 61953 135
Width: 1024
GlyphClass: 2
Flags: W
LayerCount: 2
Fore
SplineSet
535 684 m 2,0,-1
 930 277 l 2,1,2
 945 262 945 262 936 242 c 0,3,4
 928 223 928 223 907 223 c 2,5,-1
 117 223 l 2,6,7
 96 223 96 223 88 242 c 0,8,9
 79 262 79 262 94 277 c 2,10,-1
 489 684 l 2,11,12
 498 693 498 693 512 693 c 128,-1,13
 526 693 526 693 535 684 c 2,0,-1
EndSplineSet
EndChar

StartChar: uniF202
Encoding: 61954 61954 136
Width: 1024
GlyphClass: 2
Flags: W
LayerCount: 2
Fore
SplineSet
936 674 m 0,0,1
 945 654 945 654 930 639 c 2,2,-1
 535 232 l 2,3,4
 526 223 526 223 512 223 c 128,-1,5
 498 223 498 223 489 232 c 2,6,-1
 94 639 l 2,7,8
 79 654 79 654 88 674 c 0,9,10
 96 693 96 693 117 693 c 2,11,-1
 907 693 l 2,12,13
 928 693 928 693 936 674 c 0,0,1
EndSplineSet
EndChar

